<svg xmlns="http://www.w3.org/2000/svg" width="57.243" height="57.485" viewBox="0 0 57.243 57.485">
  <g id="Grupo_520" data-name="Grupo 520" transform="translate(0.5 0.615)">
    <path id="Trazado_2998" data-name="Trazado 2998" d="M1135.528,95.986l13.007-12.423c1.3-1.21,3.537-.92,5,.646s1.589,3.82.29,5.03l-14.443,13.755c-.03.03-.065.053-.095.08a2.194,2.194,0,0,1-1.658.746" transform="translate(-1110.12 -54.291)" fill="#fff" stroke="#707070" stroke-width="1"/>
    <path id="Trazado_2999" data-name="Trazado 2999" d="M1135.528,95.986l13.007-12.423c1.3-1.21,3.537-.92,5,.646s1.589,3.82.29,5.03l-14.443,13.755c-.03.03-.065.053-.095.08a2.194,2.194,0,0,1-1.658.746" transform="translate(-1110.12 -54.291)" fill="none" stroke="#1a1d00" stroke-linecap="round" stroke-linejoin="round" stroke-width="1"/>
    <path id="Trazado_3000" data-name="Trazado 3000" d="M1153.407,100.771l13.007-12.423c1.3-1.211,3.538-.922,5,.646s1.591,3.817.287,5.028l-14.44,13.759c-.03.028-.063.051-.1.079a2.217,2.217,0,0,1-1.66.746" transform="translate(-1121.766 -57.383)" fill="#fff" stroke="#707070" stroke-width="1"/>
    <path id="Trazado_3001" data-name="Trazado 3001" d="M1153.407,100.771l13.007-12.423c1.3-1.211,3.538-.922,5,.646s1.591,3.817.287,5.028l-14.44,13.759c-.03.028-.063.051-.1.079a2.217,2.217,0,0,1-1.66.746" transform="translate(-1121.766 -57.383)" fill="none" stroke="#1a1d00" stroke-linecap="round" stroke-linejoin="round" stroke-width="1"/>
    <path id="Trazado_3002" data-name="Trazado 3002" d="M1103.625,109.315l6.6,1.609a4.335,4.335,0,1,0,2.3-8.359s-8.683-2.908-11.688-2.826c-4.736.128-11.654,2.464-11.654,2.464v15.848l10.472.489,19.513.78a2.209,2.209,0,0,0,1.661-.745c.03-.026.063-.051.1-.08l14.443-13.756c1.3-1.21,1.168-3.463-.29-5.03s-3.7-1.854-5-.645l-13.009,12.423" transform="translate(-1080.263 -64.307)" fill="#fff" stroke="#707070" stroke-width="1"/>
    <path id="Trazado_3003" data-name="Trazado 3003" d="M1103.625,109.315l6.6,1.609a4.335,4.335,0,1,0,2.3-8.359s-8.683-2.908-11.688-2.826c-4.736.128-11.654,2.464-11.654,2.464v15.848l10.472.489,19.513.78a2.209,2.209,0,0,0,1.661-.745c.03-.026.063-.051.1-.08l14.443-13.756c1.3-1.21,1.168-3.463-.29-5.03s-3.7-1.854-5-.645l-13.009,12.423" transform="translate(-1080.263 -64.307)" fill="none" stroke="#1a1d00" stroke-linecap="round" stroke-linejoin="round" stroke-width="1"/>
    <path id="Trazado_3004" data-name="Trazado 3004" d="M1124.6,27.426C1114.412-4.3,1149.147,2.88,1149.147,2.88s7.179,34.736-24.544,24.546" transform="translate(-1101.941 -2.184)" fill="#a5c670" stroke="#707070" stroke-width="1"/>
    <path id="Trazado_3005" data-name="Trazado 3005" d="M1124.6,27.426C1114.412-4.3,1149.147,2.88,1149.147,2.88s7.179,34.736-24.544,24.546" transform="translate(-1101.941 -2.184)" fill="none" stroke="#1a1d00" stroke-linecap="round" stroke-linejoin="round" stroke-width="1"/>
    <path id="Trazado_3006" data-name="Trazado 3006" d="M1116.708,22.555,1098.672,40.59s-6.761,6.4-16.068-.493" transform="translate(-1075.713 -15.348)" fill="none" stroke="#1a1d00" stroke-linecap="round" stroke-linejoin="round" stroke-width="1"/>
    <path id="Trazado_3007" data-name="Trazado 3007" d="M1154.729,26.307s-3.865-3.182-1.514-8.963" transform="translate(-1121.028 -11.981)" fill="none" stroke="#1a1d00" stroke-linecap="round" stroke-linejoin="round" stroke-width="1"/>
    <path id="Trazado_3008" data-name="Trazado 3008" d="M1158.88,42.679s3.183,3.864,8.964,1.515" transform="translate(-1125.218 -28.353)" fill="none" stroke="#1a1d00" stroke-linecap="round" stroke-linejoin="round" stroke-width="1"/>
    <path id="Trazado_3009" data-name="Trazado 3009" d="M1138.463,36.57s-4.993-4.112-1.958-11.584" transform="translate(-1110.056 -16.919)" fill="none" stroke="#1a1d00" stroke-linecap="round" stroke-linejoin="round" stroke-width="1"/>
    <path id="Trazado_3010" data-name="Trazado 3010" d="M1143.827,57.73s4.112,4.994,11.585,1.958" transform="translate(-1115.467 -38.08)" fill="none" stroke="#1a1d00" stroke-linecap="round" stroke-linejoin="round" stroke-width="1"/>
    <path id="Trazado_3011" data-name="Trazado 3011" d="M1072.771,116.415c0,3.054-2.159,5.528-4.825,5.528s-4.823-2.474-4.823-5.528V105.8c0-3.054,2.159-5.529,4.823-5.529s4.825,2.475,4.825,5.529Z" transform="translate(-1063.124 -65.572)" fill="#fff" stroke="#707070" stroke-width="1"/>
    <path id="Trazado_3012" data-name="Trazado 3012" d="M1072.771,116.415c0,3.054-2.159,5.528-4.825,5.528s-4.823-2.474-4.823-5.528V105.8c0-3.054,2.159-5.529,4.823-5.529s4.825,2.475,4.825,5.529Z" transform="translate(-1063.124 -65.572)" fill="none" stroke="#1a1d00" stroke-linecap="round" stroke-linejoin="round" stroke-width="1"/>
  </g>
</svg>
