<svg xmlns="http://www.w3.org/2000/svg" width="57.619" height="57.299" viewBox="0 0 57.619 57.299">
  <g id="Grupo_521" data-name="Grupo 521" transform="translate(0.809 0.5)">
    <path id="Trazado_2991" data-name="Trazado 2991" d="M827.013,2.287a27.476,27.476,0,0,0-27.471,26.991h-2.486l4.51,9.015,4.514-9.015h-3.027A24.5,24.5,0,0,1,827.542,5.27" transform="translate(-797.057 -2.287)" fill="#a5c670" stroke="#707070" stroke-width="1"/>
    <path id="Trazado_2992" data-name="Trazado 2992" d="M827.013,2.287a27.476,27.476,0,0,0-27.471,26.991h-2.486l4.51,9.015,4.514-9.015h-3.027A24.5,24.5,0,0,1,827.542,5.27" transform="translate(-797.057 -2.287)" fill="none" stroke="#1a1d00" stroke-linecap="round" stroke-linejoin="round" stroke-width="1"/>
    <path id="Trazado_2993" data-name="Trazado 2993" d="M872.21,95.656a27.474,27.474,0,0,0,27.469-26.991h2.488l-4.514-9.014-4.51,9.014h3.024A24.492,24.492,0,0,1,871.68,92.672" transform="translate(-846.167 -39.357)" fill="#a5c670" stroke="#707070" stroke-width="1"/>
    <path id="Trazado_2994" data-name="Trazado 2994" d="M872.21,95.656a27.474,27.474,0,0,0,27.469-26.991h2.488l-4.514-9.014-4.51,9.014h3.024A24.492,24.492,0,0,1,871.68,92.672" transform="translate(-846.167 -39.357)" fill="none" stroke="#1a1d00" stroke-linecap="round" stroke-linejoin="round" stroke-width="1"/>
    <path id="Trazado_2995" data-name="Trazado 2995" d="M855.148,63.839c24.107-5.221-3.789-34.707-3.789-34.707s-28.041,30.216-3.785,34.707a25.838,25.838,0,0,0,7.573,0" transform="translate(-823.749 -19.635)" fill="#fff" stroke="#707070" stroke-width="1"/>
    <path id="Trazado_2996" data-name="Trazado 2996" d="M855.148,63.839c24.107-5.221-3.789-34.707-3.789-34.707s-28.041,30.216-3.785,34.707A25.838,25.838,0,0,0,855.148,63.839Z" transform="translate(-823.749 -19.635)" fill="none" stroke="#1a1d00" stroke-linecap="round" stroke-linejoin="round" stroke-width="1"/>
    <path id="Trazado_2997" data-name="Trazado 2997" d="M898.087,85.054s3.667,6.475-1.486,9.21" transform="translate(-861.962 -55.774)" fill="none" stroke="#1a1d00" stroke-linecap="round" stroke-linejoin="round" stroke-width="1"/>
  </g>
</svg>
