<svg xmlns="http://www.w3.org/2000/svg" width="57" height="57.299" viewBox="0 0 57 57.299">
  <g id="Grupo_522" data-name="Grupo 522" transform="translate(0.5 0.5)">
    <path id="Trazado_2985" data-name="Trazado 2985" d="M588.653,30.436a28.1,28.1,0,0,1-24.136,27.882h0a27.723,27.723,0,0,1-3.863.268,28.149,28.149,0,1,1,4.719-55.9s0,0,.007,0a28.118,28.118,0,0,1,23.275,27.753" transform="translate(-532.653 -2.287)" fill="#a5c670" stroke="#707070" stroke-width="1"/>
    <path id="Trazado_2986" data-name="Trazado 2986" d="M588.653,30.436a28.1,28.1,0,0,1-24.136,27.882h0a27.723,27.723,0,0,1-3.863.268,28.149,28.149,0,1,1,4.719-55.9s0,0,.007,0A28.118,28.118,0,0,1,588.653,30.436Z" transform="translate(-532.653 -2.287)" fill="none" stroke="#1a1d00" stroke-linecap="round" stroke-linejoin="round" stroke-width="1"/>
    <path id="Trazado_2987" data-name="Trazado 2987" d="M604.727,31.16a28.15,28.15,0,0,1-24.264,27.882h0a27.811,27.811,0,0,1-4.3-1.085,28.161,28.161,0,0,1,.826-53.593,27.854,27.854,0,0,1,4.331-.957s0,0,.007,0A28.16,28.16,0,0,1,604.727,31.16Z" transform="translate(-548.727 -3.011)" fill="none" stroke="#1a1d00" stroke-linecap="round" stroke-linejoin="round" stroke-width="1"/>
    <path id="Trazado_2988" data-name="Trazado 2988" d="M580.315,31.223a28.165,28.165,0,0,1-19.926,26.5,27.7,27.7,0,0,1-4.331.956,28.154,28.154,0,0,1,.857-55.635,27.755,27.755,0,0,1,4.3,1.086A28.165,28.165,0,0,1,580.315,31.223Z" transform="translate(-532.653 -2.774)" fill="none" stroke="#1a1d00" stroke-linecap="round" stroke-linejoin="round" stroke-width="1"/>
    <line id="Línea_111" data-name="Línea 111" x1="0.826" y2="53.593" transform="translate(27.587 1.353)" fill="none" stroke="#1a1d00" stroke-linecap="round" stroke-linejoin="round" stroke-width="1"/>
    <line id="Línea_112" data-name="Línea 112" x2="56" transform="translate(0 28.149)" fill="none" stroke="#1a1d00" stroke-linecap="round" stroke-linejoin="round" stroke-width="1"/>
    <path id="Trazado_2989" data-name="Trazado 2989" d="M542.19,44.055h49.252" transform="translate(-538.816 -29.279)" fill="none" stroke="#1a1d00" stroke-linecap="round" stroke-linejoin="round" stroke-width="1"/>
    <path id="Trazado_2990" data-name="Trazado 2990" d="M542.288,119.846h49.183" transform="translate(-538.879 -78.258)" fill="none" stroke="#1a1d00" stroke-linecap="round" stroke-linejoin="round" stroke-width="1"/>
  </g>
</svg>
