<svg xmlns="http://www.w3.org/2000/svg" width="224.999" height="49.563" viewBox="0 0 224.999 49.563">
  <g id="Grupo_121" data-name="Grupo 121" transform="translate(-2605 -4310)">
    <path id="Trazado_1652" data-name="Trazado 1652" d="M0,11.124A16.133,16.133,0,0,1,15.032.777q28.64-.166,57.278,0c7.024.047,13.517,2.006,18.668,7.119,10.353,10.275,7.817,28.623-4.907,35.766a33.143,33.143,0,0,1-15.6,3.891c-7.351.216-14.7.355-22.052.517a11.951,11.951,0,0,1-1.306-.127V18.429c4.187,0,8.238,0,12.289,0,1.351,0,1.076,1.033,1.08,1.8.021,5.388.008,10.774.012,16.161,0,2.517.012,2.589,2.538,2.441a72.987,72.987,0,0,0,8.269-.754c8.642-1.507,13.225-8.188,11.7-16.825C81.776,14.3,77.456,10.116,70.411,9.968,54.558,9.635,38.7,9.615,22.837,9.477c-1.614-.014-3.228,0-4.835.1a7.5,7.5,0,0,0-2.45.468c-1.649.686-3.281,1.692-3.371,3.61-.092,1.969,1.78,2.622,3.271,3.051,3.4.973,6.9,1.591,10.305,2.538a74.021,74.021,0,0,1,9.71,3.152c4.162,1.8,6.17,5.3,6.31,9.794.271,8.782-3.567,13.689-12.3,15.8q-1.768.428-3.54.854H15.486c-.5-.119-.99-.255-1.489-.357-4.031-.825-8.067-1.614-12.081-2.5-.573-.127-1.464-.727-1.482-1.138C.306,41.868.365,38.884.365,35.63c1.025.343,1.733.61,2.458.817,3.521,1,7.008,2.183,10.583,2.936,4.111.866,8.306,1.218,12.348-.5a4.275,4.275,0,0,0,2.868-4.53c-.1-2.1-1.308-3.176-3.279-3.708-4.905-1.324-9.761-2.84-14.691-4.061C5.117,25.218,1.294,22.23,0,16.512Z" transform="translate(2605 4310.722)" fill="#016971"/>
    <path id="Trazado_1653" data-name="Trazado 1653" d="M63.626,24.167c0,7.236-.041,14.476.033,21.711.014,1.612-.528,2.1-2.111,2.055-3.476-.1-6.956-.07-10.435-.012-1.259.021-1.682-.423-1.678-1.671q.046-22.286,0-44.577c0-1.261.448-1.678,1.692-1.659C54.6.074,58.084.105,61.561,0c1.6-.045,2.111.472,2.1,2.068-.07,7.365-.031,14.732-.031,22.1" transform="translate(2657.068 4310)" fill="#016971"/>
    <path id="Trazado_1654" data-name="Trazado 1654" d="M65.957,9.115a1.6,1.6,0,0,0-.62-1.285,6.33,6.33,0,0,0-2.1-.953,7,7,0,0,1-2.464-1.109,2.182,2.182,0,0,1-.844-1.8,2.33,2.33,0,0,1,.945-1.907,3.781,3.781,0,0,1,2.413-.747,3.584,3.584,0,0,1,2.482.844,2.685,2.685,0,0,1,.91,2.146l-.014.043h-.776a2.155,2.155,0,0,0-.727-1.663,2.686,2.686,0,0,0-1.875-.659,2.813,2.813,0,0,0-1.852.558,1.725,1.725,0,0,0-.671,1.374,1.575,1.575,0,0,0,.61,1.269,6.237,6.237,0,0,0,2.144.928,7.032,7.032,0,0,1,2.441,1.146A2.213,2.213,0,0,1,66.795,9.1a2.241,2.241,0,0,1-.979,1.9,4.107,4.107,0,0,1-2.48.721,4.49,4.49,0,0,1-2.608-.764,2.449,2.449,0,0,1-1.078-2.22l.014-.041h.772a1.937,1.937,0,0,0,.883,1.747,3.609,3.609,0,0,0,2.016.575,3.129,3.129,0,0,0,1.891-.532,1.637,1.637,0,0,0,.731-1.374" transform="translate(2667.826 4311.378)" fill="#016971"/>
    <path id="Trazado_1655" data-name="Trazado 1655" d="M69.5,6.6H64.961v4.2h5.246v.7H64.125V1.379h6.049v.71H64.961v3.8H69.5Z" transform="translate(2672.541 4311.454)" fill="#016971"/>
    <path id="Trazado_1656" data-name="Trazado 1656" d="M75.112,8.412l.014.043a2.948,2.948,0,0,1-.973,2.376,3.808,3.808,0,0,1-2.628.889A3.405,3.405,0,0,1,68.8,10.5a4.723,4.723,0,0,1-1.035-3.16V5.7A4.73,4.73,0,0,1,68.8,2.536a3.389,3.389,0,0,1,2.725-1.228,3.861,3.861,0,0,1,2.638.871,2.938,2.938,0,0,1,.963,2.39l-.014.041h-.778A2.454,2.454,0,0,0,73.586,2.7a2.94,2.94,0,0,0-2.061-.684,2.571,2.571,0,0,0-2.131,1.029,4.16,4.16,0,0,0-.8,2.634V7.343a4.19,4.19,0,0,0,.8,2.653,2.578,2.578,0,0,0,2.131,1.025,2.983,2.983,0,0,0,2.061-.669,2.458,2.458,0,0,0,.747-1.938Z" transform="translate(2676.375 4311.378)" fill="#016971"/>
    <path id="Trazado_1657" data-name="Trazado 1657" d="M73.216,6.923V11.5h-.834V1.383h3.371a3.846,3.846,0,0,1,2.495.712,2.538,2.538,0,0,1,.869,2.082,2.387,2.387,0,0,1-.462,1.441,2.617,2.617,0,0,1-1.31.928,2.209,2.209,0,0,1,1.351.844,2.664,2.664,0,0,1,.415,1.526v.953a2.988,2.988,0,0,0,.111.848,1.316,1.316,0,0,0,.368.612V11.5h-.848a1.394,1.394,0,0,1-.361-.7,4.12,4.12,0,0,1-.1-.938V8.931a1.87,1.87,0,0,0-.6-1.47A2.429,2.429,0,0,0,76,6.923Zm0-.708h2.439a2.99,2.99,0,0,0,2-.554,1.868,1.868,0,0,0,.632-1.489,1.918,1.918,0,0,0-.628-1.54,2.877,2.877,0,0,0-1.908-.54H73.216Z" transform="translate(2681.238 4311.458)" fill="#016971"/>
    <path id="Trazado_1658" data-name="Trazado 1658" d="M82.288,6.6h-4.54v4.2H83v.7H76.915V1.379h6.047v.71H77.748v3.8h4.54Z" transform="translate(2686.012 4311.454)" fill="#016971"/>
    <path id="Trazado_1659" data-name="Trazado 1659" d="M88.109,2.089H84.662V11.5h-.827V2.089H80.27v-.71h7.839Z" transform="translate(2689.546 4311.453)" fill="#016971"/>
    <path id="Trazado_1660" data-name="Trazado 1660" d="M90.437,8.677H85.994L84.973,11.5h-.862L87.832,1.38h.782L92.308,11.5h-.864Zm-4.176-.743h3.9L88.246,2.569h-.041Z" transform="translate(2693.592 4311.454)" fill="#016971"/>
    <path id="Trazado_1661" data-name="Trazado 1661" d="M89.688,6.923V11.5h-.834V1.383h3.371A3.846,3.846,0,0,1,94.72,2.1a2.539,2.539,0,0,1,.871,2.082,2.389,2.389,0,0,1-.464,1.441,2.617,2.617,0,0,1-1.31.928,2.2,2.2,0,0,1,1.351.844,2.649,2.649,0,0,1,.415,1.526v.953a2.988,2.988,0,0,0,.111.848,1.316,1.316,0,0,0,.368.612V11.5h-.848a1.377,1.377,0,0,1-.359-.7,4.008,4.008,0,0,1-.1-.938V8.931a1.877,1.877,0,0,0-.6-1.47,2.438,2.438,0,0,0-1.68-.538Zm0-.708h2.439a3,3,0,0,0,2-.554,1.875,1.875,0,0,0,.632-1.489,1.919,1.919,0,0,0-.63-1.54,2.873,2.873,0,0,0-1.908-.54H89.688Z" transform="translate(2698.588 4311.458)" fill="#016971"/>
    <rect id="Rectángulo_149" data-name="Rectángulo 149" width="0.834" height="10.121" transform="translate(2796.965 4312.832)" fill="#016971"/>
    <path id="Trazado_1662" data-name="Trazado 1662" d="M101.148,8.677H96.7L95.684,11.5h-.862L98.54,1.38h.784L103.017,11.5h-.862ZM96.97,7.934h3.905L98.957,2.569h-.041Z" transform="translate(2704.874 4311.454)" fill="#016971"/>
    <path id="Trazado_1663" data-name="Trazado 1663" d="M101.261,11.5V1.379h3.086a4.114,4.114,0,0,1,3.068,1.238,4.345,4.345,0,0,1,1.213,3.176V7.1a4.331,4.331,0,0,1-1.213,3.17,4.119,4.119,0,0,1-3.068,1.234Zm.834-9.41V10.8h2.252a3.226,3.226,0,0,0,2.474-1.049,3.749,3.749,0,0,0,.973-2.653V5.773a3.718,3.718,0,0,0-.977-2.634,3.226,3.226,0,0,0-2.47-1.049Z" transform="translate(2711.656 4311.453)" fill="#016971"/>
    <path id="Trazado_1664" data-name="Trazado 1664" d="M111.3,6.6h-4.538v4.2h5.246v.7h-6.082V1.379h6.049v.71h-5.213v3.8H111.3Z" transform="translate(2716.569 4311.454)" fill="#016971"/>
    <path id="Trazado_1665" data-name="Trazado 1665" d="M59.941,19.819V9.7h3.086a4.114,4.114,0,0,1,3.068,1.238,4.349,4.349,0,0,1,1.213,3.176v1.3a4.331,4.331,0,0,1-1.213,3.17,4.119,4.119,0,0,1-3.068,1.234Zm.834-9.41v8.708h2.252A3.226,3.226,0,0,0,65.5,18.067a3.749,3.749,0,0,0,.973-2.653V14.092a3.718,3.718,0,0,0-.977-2.634,3.226,3.226,0,0,0-2.47-1.049Z" transform="translate(2668.134 4320.215)" fill="#016971"/>
    <path id="Trazado_1666" data-name="Trazado 1666" d="M70.742,14.918H66.2v4.2H71.45v.7H65.369V9.7h6.047v.71H66.2v3.8h4.54Z" transform="translate(2673.851 4320.216)" fill="#016971"/>
    <path id="Trazado_1667" data-name="Trazado 1667" d="M75.966,17.434a1.6,1.6,0,0,0-.618-1.285,6.33,6.33,0,0,0-2.1-.953,6.956,6.956,0,0,1-2.462-1.109,2.166,2.166,0,0,1-.846-1.8,2.339,2.339,0,0,1,.945-1.91A3.785,3.785,0,0,1,73.3,9.627a3.575,3.575,0,0,1,2.482.846,2.678,2.678,0,0,1,.91,2.144l-.014.043H75.9A2.155,2.155,0,0,0,75.169,11a2.677,2.677,0,0,0-1.873-.659,2.813,2.813,0,0,0-1.852.558,1.725,1.725,0,0,0-.671,1.374,1.569,1.569,0,0,0,.61,1.269,6.178,6.178,0,0,0,2.144.928,7.039,7.039,0,0,1,2.439,1.146,2.211,2.211,0,0,1,.842,1.807,2.245,2.245,0,0,1-.984,1.9,4.087,4.087,0,0,1-2.478.721,4.508,4.508,0,0,1-2.608-.762,2.442,2.442,0,0,1-1.076-2.222l.014-.041h.77a1.941,1.941,0,0,0,.883,1.747,3.609,3.609,0,0,0,2.016.575,3.129,3.129,0,0,0,1.891-.532,1.635,1.635,0,0,0,.729-1.374" transform="translate(2678.373 4320.141)" fill="#016971"/>
    <path id="Trazado_1668" data-name="Trazado 1668" d="M80.723,17H76.282l-1.02,2.821H74.4L78.117,9.7H78.9l3.692,10.119h-.862Zm-4.176-.743h3.905l-1.918-5.365h-.041Z" transform="translate(2683.363 4320.216)" fill="#016971"/>
    <path id="Trazado_1669" data-name="Trazado 1669" d="M80.738,15.242v4.573H79.9V9.7h3.371a3.85,3.85,0,0,1,2.495.712,2.538,2.538,0,0,1,.869,2.082,2.4,2.4,0,0,1-.462,1.443,2.626,2.626,0,0,1-1.31.926,2.209,2.209,0,0,1,1.351.844,2.664,2.664,0,0,1,.415,1.526v.953a2.989,2.989,0,0,0,.111.848,1.316,1.316,0,0,0,.368.612v.166h-.848a1.37,1.37,0,0,1-.361-.7,4.12,4.12,0,0,1-.1-.938V17.25a1.87,1.87,0,0,0-.6-1.47,2.432,2.432,0,0,0-1.678-.538Zm0-.708h2.439a2.99,2.99,0,0,0,2-.554,1.865,1.865,0,0,0,.632-1.489,1.918,1.918,0,0,0-.628-1.54,2.877,2.877,0,0,0-1.908-.54H80.738Z" transform="translate(2689.161 4320.22)" fill="#016971"/>
    <path id="Trazado_1670" data-name="Trazado 1670" d="M86.023,15.242v4.573h-.834V9.7H88.56a3.846,3.846,0,0,1,2.495.712,2.538,2.538,0,0,1,.869,2.082,2.4,2.4,0,0,1-.462,1.443,2.626,2.626,0,0,1-1.31.926,2.209,2.209,0,0,1,1.351.844,2.664,2.664,0,0,1,.415,1.526v.953a2.989,2.989,0,0,0,.111.848,1.316,1.316,0,0,0,.368.612v.166h-.848a1.386,1.386,0,0,1-.361-.7,4.12,4.12,0,0,1-.1-.938V17.25a1.87,1.87,0,0,0-.6-1.47,2.429,2.429,0,0,0-1.678-.538Zm0-.708h2.439a2.99,2.99,0,0,0,2-.554A1.865,1.865,0,0,0,91.1,12.49a1.918,1.918,0,0,0-.628-1.54,2.877,2.877,0,0,0-1.907-.54H86.023Z" transform="translate(2694.728 4320.22)" fill="#016971"/>
    <path id="Trazado_1671" data-name="Trazado 1671" d="M98.131,15.662a4.589,4.589,0,0,1-1.076,3.17,3.659,3.659,0,0,1-2.879,1.207,3.583,3.583,0,0,1-2.84-1.207,4.641,4.641,0,0,1-1.062-3.17V14.015a4.656,4.656,0,0,1,1.057-3.17,3.568,3.568,0,0,1,2.836-1.218,3.662,3.662,0,0,1,2.885,1.218,4.6,4.6,0,0,1,1.078,3.17ZM97.3,14a3.992,3.992,0,0,0-.832-2.641,2.827,2.827,0,0,0-2.3-1,2.73,2.73,0,0,0-2.252,1A4.074,4.074,0,0,0,91.109,14v1.661a4.1,4.1,0,0,0,.811,2.657,2.745,2.745,0,0,0,2.257,1,2.825,2.825,0,0,0,2.3-1,4.048,4.048,0,0,0,.823-2.659Z" transform="translate(2700.084 4320.141)" fill="#016971"/>
    <path id="Trazado_1672" data-name="Trazado 1672" d="M96.746,19.117h5.228v.7H95.912V9.7h.834Z" transform="translate(2706.022 4320.216)" fill="#016971"/>
    <path id="Trazado_1673" data-name="Trazado 1673" d="M101.327,19.117h5.226v.7h-6.059V9.7h.834Z" transform="translate(2710.848 4320.216)" fill="#016971"/>
    <path id="Trazado_1674" data-name="Trazado 1674" d="M112.5,15.662a4.589,4.589,0,0,1-1.076,3.17,3.659,3.659,0,0,1-2.879,1.207,3.583,3.583,0,0,1-2.84-1.207,4.641,4.641,0,0,1-1.062-3.17V14.015a4.656,4.656,0,0,1,1.057-3.17,3.568,3.568,0,0,1,2.836-1.218,3.663,3.663,0,0,1,2.885,1.218,4.6,4.6,0,0,1,1.078,3.17ZM111.672,14a3.992,3.992,0,0,0-.832-2.641,2.827,2.827,0,0,0-2.3-1,2.73,2.73,0,0,0-2.252,1A4.074,4.074,0,0,0,105.478,14v1.661a4.1,4.1,0,0,0,.811,2.657,2.745,2.745,0,0,0,2.257,1,2.825,2.825,0,0,0,2.3-1,4.048,4.048,0,0,0,.823-2.659Z" transform="translate(2715.219 4320.141)" fill="#016971"/>
    <rect id="Rectángulo_150" data-name="Rectángulo 150" width="0.834" height="10.121" transform="translate(2728.291 4346.996)" fill="#016971"/>
    <path id="Trazado_1675" data-name="Trazado 1675" d="M69.344,28.138H68.51l-5.749-8.661-.043.008v8.653h-.832V18.018h.832l5.749,8.64.043-.006V18.018h.834Z" transform="translate(2670.183 4328.979)" fill="#016971"/>
    <path id="Trazado_1676" data-name="Trazado 1676" d="M72.861,25.751a1.6,1.6,0,0,0-.618-1.285,6.33,6.33,0,0,0-2.1-.953A6.985,6.985,0,0,1,67.679,22.4a2.17,2.17,0,0,1-.844-1.8,2.333,2.333,0,0,1,.945-1.91,3.78,3.78,0,0,1,2.413-.745,3.574,3.574,0,0,1,2.482.844,2.68,2.68,0,0,1,.91,2.144l-.014.043h-.778a2.155,2.155,0,0,0-.727-1.663,2.68,2.68,0,0,0-1.873-.659,2.813,2.813,0,0,0-1.852.558,1.725,1.725,0,0,0-.671,1.374,1.573,1.573,0,0,0,.608,1.269,6.212,6.212,0,0,0,2.146.928,7.039,7.039,0,0,1,2.439,1.146,2.212,2.212,0,0,1,.84,1.807,2.249,2.249,0,0,1-.981,1.9,4.1,4.1,0,0,1-2.478.719,4.5,4.5,0,0,1-2.608-.762,2.448,2.448,0,0,1-1.078-2.222l.014-.041h.772a1.934,1.934,0,0,0,.883,1.747,3.6,3.6,0,0,0,2.016.575,3.129,3.129,0,0,0,1.891-.532,1.635,1.635,0,0,0,.729-1.374" transform="translate(2675.1 4328.904)" fill="#016971"/>
    <path id="Trazado_1677" data-name="Trazado 1677" d="M78.473,18.728H75.025v9.41H74.2v-9.41H70.633v-.71h7.839Z" transform="translate(2679.396 4328.979)" fill="#016971"/>
    <rect id="Rectángulo_151" data-name="Rectángulo 151" width="0.834" height="10.121" transform="translate(2759.854 4346.996)" fill="#016971"/>
    <path id="Trazado_1678" data-name="Trazado 1678" d="M84.532,18.728H81.085v9.41h-.827v-9.41H76.693v-.71h7.839Z" transform="translate(2685.779 4328.979)" fill="#016971"/>
    <path id="Trazado_1679" data-name="Trazado 1679" d="M88.55,18.018v6.72a3.363,3.363,0,0,1-1.023,2.608,3.725,3.725,0,0,1-2.626.938,3.628,3.628,0,0,1-2.589-.94,3.4,3.4,0,0,1-1-2.606v-6.72h.834v6.72a2.793,2.793,0,0,0,.774,2.076,2.7,2.7,0,0,0,1.986.768,2.8,2.8,0,0,0,2.029-.764,2.749,2.749,0,0,0,.793-2.08v-6.72Z" transform="translate(2690.64 4328.979)" fill="#016971"/>
    <path id="Trazado_1680" data-name="Trazado 1680" d="M93.258,25.05l.014.043a2.946,2.946,0,0,1-.973,2.378,3.807,3.807,0,0,1-2.628.887,3.4,3.4,0,0,1-2.725-1.218,4.723,4.723,0,0,1-1.035-3.16V22.334a4.73,4.73,0,0,1,1.035-3.16,3.393,3.393,0,0,1,2.725-1.226,3.86,3.86,0,0,1,2.638.869,2.941,2.941,0,0,1,.963,2.39l-.014.041h-.778a2.446,2.446,0,0,0-.747-1.905,2.931,2.931,0,0,0-2.062-.686,2.564,2.564,0,0,0-2.129,1.029,4.148,4.148,0,0,0-.8,2.634v1.661a4.179,4.179,0,0,0,.8,2.653,2.566,2.566,0,0,0,2.129,1.025,2.983,2.983,0,0,0,2.062-.669,2.455,2.455,0,0,0,.747-1.938Z" transform="translate(2695.488 4328.905)" fill="#016971"/>
    <rect id="Rectángulo_152" data-name="Rectángulo 152" width="0.834" height="10.121" transform="translate(2791.257 4346.996)" fill="#016971"/>
    <path id="Trazado_1681" data-name="Trazado 1681" d="M100.2,23.981a4.607,4.607,0,0,1-1.074,3.17,3.669,3.669,0,0,1-2.881,1.207A3.59,3.59,0,0,1,93.4,27.151a4.65,4.65,0,0,1-1.059-3.17V22.334a4.659,4.659,0,0,1,1.055-3.17,3.571,3.571,0,0,1,2.838-1.216,3.661,3.661,0,0,1,2.885,1.216,4.6,4.6,0,0,1,1.078,3.17Zm-.827-1.661a3.985,3.985,0,0,0-.834-2.641,2.826,2.826,0,0,0-2.3-1,2.73,2.73,0,0,0-2.252,1,4.09,4.09,0,0,0-.809,2.641v1.661a4.1,4.1,0,0,0,.813,2.657,2.743,2.743,0,0,0,2.257,1,2.827,2.827,0,0,0,2.3-1,4.048,4.048,0,0,0,.823-2.659Z" transform="translate(2702.261 4328.905)" fill="#016971"/>
    <path id="Trazado_1682" data-name="Trazado 1682" d="M104.744,28.138h-.834l-5.749-8.661-.041.008v8.653h-.834V18.018h.834l5.747,8.64.043-.006V18.018h.834Z" transform="translate(2707.469 4328.979)" fill="#016971"/>
    <path id="Trazado_1683" data-name="Trazado 1683" d="M108.133,25.315H103.69l-1.02,2.821h-.862l3.718-10.119h.784L110,28.137h-.862Zm-4.178-.743h3.905l-1.918-5.365H105.9Z" transform="translate(2712.231 4328.979)" fill="#016971"/>
    <path id="Trazado_1684" data-name="Trazado 1684" d="M107.463,27.436h5.226v.7h-6.059V18.018h.834Z" transform="translate(2717.31 4328.979)" fill="#016971"/>
  </g>
</svg>
