<svg id="Grupo_788" data-name="Grupo 788" xmlns="http://www.w3.org/2000/svg" xmlns:xlink="http://www.w3.org/1999/xlink" width="215.552" height="78.783" viewBox="0 0 215.552 78.783">
  <defs>
    <clipPath id="clip-path">
      <rect id="Rectángulo_298" data-name="Rectángulo 298" width="215.552" height="78.783" fill="none"/>
    </clipPath>
  </defs>
  <g id="Grupo_511" data-name="Grupo 511" clip-path="url(#clip-path)">
    <path id="Trazado_2907" data-name="Trazado 2907" d="M27.491,0C11.654,0,0,11.952,0,27.192v.149A26.554,26.554,0,0,0,26.968,54.384c11.5,0,18.153-5.005,23.083-11.8L39.144,34.811c-3.138,3.81-6.35,6.35-11.8,6.35-7.321,0-12.475-6.126-12.475-13.969v-.149c0-7.62,5.155-13.895,12.475-13.895,5.005,0,8.441,2.465,11.43,6.126l10.907-8.441C45.045,4.482,38.173,0,27.491,0" fill="#e98b2b"/>
    <path id="Trazado_2908" data-name="Trazado 2908" d="M104.1,0A28.381,28.381,0,0,0,82.246,9.77v0l-.018.024a26.806,26.806,0,0,0-1.816,2.4c-7.19,9.334-19.086,23.205-19.447,23.619-6.325,7.261-16.738,5.848-21.2-2.9a17.091,17.091,0,0,1-1.354-11.488C33.884,30.94,37.283,43.193,45.447,48.9c8.881,6.208,18.4,2.79,26.439-4.141a34.1,34.1,0,0,0,5.989-7.125c4.052,9.858,13.863,16.749,26.074,16.749,16.136,0,28.237-12.176,28.237-27.192v-.149C132.186,12.027,120.234,0,104.1,0M117.32,27.341c0,7.545-5.3,13.969-13.222,13.969-7.993,0-13.447-6.574-13.447-14.119v-.149c0-7.545,5.3-13.969,13.3-13.969s13.372,6.5,13.372,14.119Z" transform="translate(-22.994)" fill="#0096aa"/>
    <path id="Trazado_2909" data-name="Trazado 2909" d="M40.718,51.97a11.961,11.961,0,0,1-.757-5.158A12.774,12.774,0,0,1,50.532,36.159a4.483,4.483,0,0,1,.688-.108c.159-.017.142.4.176.726a13.465,13.465,0,0,1-5.772,13.085,11.9,11.9,0,0,1-4.906,2.108" transform="translate(-25.214 -22.779)" fill="#90c700"/>
    <path id="Trazado_2910" data-name="Trazado 2910" d="M56.171,4.514C48.459.1,35.652.188,27.953,8.439s-5.684,19.576-.084,24.485c0,0-.385-11.868,7.559-16.919,0,0,9.071-5.975,17.8,4.333l10.919-8.491a23.506,23.506,0,0,0-7.978-7.331" transform="translate(-14.472 -1.014)" fill="#00bebe"/>
    <path id="Trazado_2911" data-name="Trazado 2911" d="M350.674,2.7V32.132c0,7.321-3.81,10.757-9.711,10.757-5.827,0-9.637-3.586-9.637-11.131V25.747l-5.032.107a1.71,1.71,0,1,1-.073-3.4l5.1-.109V21.126l-5.991.255a2.083,2.083,0,0,1-2.272-1.861,2.083,2.083,0,0,1,2.106-2.047l6.158-.262v-1.1l-5,.154a2.083,2.083,0,0,1-2.25-1.887A2.083,2.083,0,0,1,326.2,12.36l5.125-.158V11.067l-4.336.163a1.838,1.838,0,0,1-.138-3.673l4.474-.169V2.7H316.684v9.256l2.322-.38a2.353,2.353,0,0,1,2.8,1.78,2.353,2.353,0,0,1-2.086,2.58l-3.035.5V32.057c0,16.36,9.338,23.9,24.129,23.9,14.866,0,24.5-7.47,24.5-24.278V2.7Z" transform="translate(-200.101 -1.705)" fill="#0096aa"/>
    <path id="Trazado_2912" data-name="Trazado 2912" d="M564.239,107.659a5.522,5.522,0,1,1-5.5-5.56,5.509,5.509,0,0,1,5.5,5.56" transform="translate(-349.544 -64.513)" fill="#90c700"/>
    <path id="Trazado_2913" data-name="Trazado 2913" d="M480.6,17.821a5.522,5.522,0,1,1-5.5-5.56,5.509,5.509,0,0,1,5.5,5.56" transform="translate(-296.693 -7.747)" fill="#0096aa"/>
    <path id="Trazado_2914" data-name="Trazado 2914" d="M493.657,80.724a7.15,7.15,0,0,1,13.355-3.543,18.775,18.775,0,0,0,.17-2.508v-.149c0-8.295-5.369-12.349-14.283-14.985-2.764.168-6.633,5.61-6.633,5.61a13.962,13.962,0,0,1-5.075,5.109q1.243.31,2.535.6c7.171,1.718,8.89,2.839,8.89,5.08v.149c0,2.241-2.092,3.586-6.051,3.586A27.091,27.091,0,0,1,469.606,73.4l-8.068,9.637c6.5,5.752,15.239,8.666,24.5,8.666,5.85,0,10.792-1.35,14.426-3.847a7.162,7.162,0,0,1-6.81-7.134" transform="translate(-291.63 -37.621)" fill="#e98b2b"/>
    <path id="Trazado_2915" data-name="Trazado 2915" d="M488.106,12.027a25.67,25.67,0,0,1,14.642,5.155l7.246-10.234C504.316,2.391,497.369,0,488.479,0a24.23,24.23,0,0,0-12.54,3.093,7.145,7.145,0,1,1-7.515,11.069,17.388,17.388,0,0,0-.19,2.571v.149c0,8.32,5.212,12.063,12.776,14.512,4.162-.609,7.58-5.325,7.58-5.325,3.635-4.96,4.84-5.109,4.881-5.113-.487-.115-.979-.228-1.482-.338-7.321-1.643-9.114-2.689-9.114-5.08V15.39c0-1.943,1.718-3.363,5.229-3.363" transform="translate(-295.861 0)" fill="#e98b2b"/>
    <path id="Trazado_2916" data-name="Trazado 2916" d="M70.841,172.689v-.019A3.376,3.376,0,0,1,74.23,169.2a3.487,3.487,0,0,1,2.613,1.062l-.517.555a2.912,2.912,0,0,0-2.106-.919,2.627,2.627,0,0,0-2.594,2.747v.019a2.644,2.644,0,0,0,2.594,2.766,2.909,2.909,0,0,0,2.163-.967l.5.488a3.489,3.489,0,0,1-2.68,1.177,3.341,3.341,0,0,1-3.36-3.445" transform="translate(-44.762 -106.915)" fill="#4d4d4f"/>
    <path id="Trazado_2917" data-name="Trazado 2917" d="M89.795,172.689v-.019a3.417,3.417,0,1,1,6.834-.02v.019a3.417,3.417,0,1,1-6.834.02m6.05,0v-.019A2.664,2.664,0,0,0,93.2,169.9a2.632,2.632,0,0,0-2.623,2.747v.019a2.664,2.664,0,0,0,2.642,2.766,2.631,2.631,0,0,0,2.623-2.747" transform="translate(-56.738 -106.915)" fill="#4d4d4f"/>
    <path id="Trazado_2918" data-name="Trazado 2918" d="M112.181,172.689v-.019a3.417,3.417,0,1,1,6.834-.02v.019a3.417,3.417,0,1,1-6.834.02m6.05,0v-.019a2.664,2.664,0,0,0-2.642-2.767,2.632,2.632,0,0,0-2.623,2.747v.019a2.664,2.664,0,0,0,2.642,2.766,2.631,2.631,0,0,0,2.623-2.747" transform="translate(-70.883 -106.915)" fill="#4d4d4f"/>
    <path id="Trazado_2919" data-name="Trazado 2919" d="M135.373,169.518h2.881a2.642,2.642,0,0,1,1.9.67,1.851,1.851,0,0,1,.517,1.321v.019a1.961,1.961,0,0,1-1.819,1.953l2.058,2.737h-.928l-1.943-2.6h-1.914v2.6h-.756Zm2.814,3.417c1.005,0,1.723-.517,1.723-1.378v-.019c0-.823-.632-1.321-1.713-1.321h-2.067v2.718Z" transform="translate(-85.537 -107.112)" fill="#4d4d4f"/>
    <path id="Trazado_2920" data-name="Trazado 2920" d="M154.457,169.518h2.326a3.34,3.34,0,0,1,3.561,3.331v.019a3.354,3.354,0,0,1-3.561,3.35h-2.326Zm2.326,6a2.593,2.593,0,0,0,2.776-2.632v-.019a2.608,2.608,0,0,0-2.776-2.652h-1.57v5.3Z" transform="translate(-97.596 -107.112)" fill="#4d4d4f"/>
    <rect id="Rectángulo_291" data-name="Rectángulo 291" width="0.756" height="6.7" transform="translate(64.518 62.406)" fill="#4d4d4f"/>
    <path id="Trazado_2921" data-name="Trazado 2921" d="M182.926,169.518h.708l4.221,5.37v-5.37h.737v6.7h-.6l-4.326-5.494v5.494h-.737Z" transform="translate(-115.584 -107.112)" fill="#4d4d4f"/>
    <path id="Trazado_2922" data-name="Trazado 2922" d="M205.245,169.388h.708l3.053,6.748h-.814l-.785-1.771h-3.647l-.794,1.771h-.775Zm1.866,4.3-1.522-3.417-1.531,3.417Z" transform="translate(-127.758 -107.03)" fill="#4d4d4f"/>
    <path id="Trazado_2923" data-name="Trazado 2923" d="M222.706,172.689v-.019a3.376,3.376,0,0,1,3.388-3.465,3.488,3.488,0,0,1,2.613,1.062l-.517.555a2.912,2.912,0,0,0-2.106-.919,2.627,2.627,0,0,0-2.594,2.747v.019a2.644,2.644,0,0,0,2.594,2.766,2.909,2.909,0,0,0,2.163-.967l.5.488a3.489,3.489,0,0,1-2.68,1.177,3.341,3.341,0,0,1-3.36-3.445" transform="translate(-140.72 -106.915)" fill="#4d4d4f"/>
    <rect id="Rectángulo_292" data-name="Rectángulo 292" width="0.756" height="6.7" transform="translate(89.519 62.406)" fill="#4d4d4f"/>
    <path id="Trazado_2924" data-name="Trazado 2924" d="M250.032,169.585v-.019a3.417,3.417,0,1,1,6.834-.02v.019a3.417,3.417,0,1,1-6.834.02m6.049,0v-.019a2.664,2.664,0,0,0-2.642-2.767,2.632,2.632,0,0,0-2.623,2.747v.019a2.664,2.664,0,0,0,2.642,2.766,2.631,2.631,0,0,0,2.623-2.747m-1.981-5.293.756.345-1.1.89h-.613Z" transform="translate(-157.986 -103.81)" fill="#4d4d4f"/>
    <path id="Trazado_2925" data-name="Trazado 2925" d="M273.223,169.518h.708l4.221,5.37v-5.37h.737v6.7h-.6l-4.326-5.494v5.494h-.737v-6.7Z" transform="translate(-172.64 -107.112)" fill="#4d4d4f"/>
    <path id="Trazado_2926" data-name="Trazado 2926" d="M301.459,173.348v-3.829h1.474v3.79c0,1.091.546,1.656,1.445,1.656s1.445-.546,1.445-1.608v-3.838H307.3V173.3a2.7,2.7,0,0,1-2.938,3.025,2.659,2.659,0,0,1-2.9-2.977" transform="translate(-190.481 -107.113)" fill="#4d4d4f"/>
    <path id="Trazado_2927" data-name="Trazado 2927" d="M321.687,169.518h1.359l3.139,4.126v-4.126h1.455v6.7h-1.254l-3.245-4.259v4.259h-1.455Z" transform="translate(-203.263 -107.112)" fill="#4d4d4f"/>
    <rect id="Rectángulo_293" data-name="Rectángulo 293" width="1.474" height="6.7" transform="translate(126.158 62.406)" fill="#4d4d4f"/>
    <path id="Trazado_2928" data-name="Trazado 2928" d="M349.974,169.518H351.6l1.752,4.719,1.752-4.719h1.589l-2.709,6.748h-1.3Z" transform="translate(-221.136 -107.112)" fill="#4d4d4f"/>
    <path id="Trazado_2929" data-name="Trazado 2929" d="M371.321,169.518h5.054v1.311h-3.589v1.359h3.159V173.5h-3.159v1.407h3.637v1.311h-5.1v-6.7Z" transform="translate(-234.625 -107.112)" fill="#4d4d4f"/>
    <path id="Trazado_2930" data-name="Trazado 2930" d="M389.026,169.518h3.063a2.67,2.67,0,0,1,1.953.68,2.1,2.1,0,0,1,.574,1.531v.019a2.081,2.081,0,0,1-1.436,2.077l1.637,2.393h-1.723l-1.436-2.144H390.5v2.144h-1.474Zm2.967,3.254c.718,0,1.129-.383,1.129-.948v-.019c0-.632-.44-.957-1.158-.957H390.5v1.924Z" transform="translate(-245.812 -107.112)" fill="#4d4d4f"/>
    <path id="Trazado_2931" data-name="Trazado 2931" d="M406.862,175.078l.871-1.043a3.074,3.074,0,0,0,2,.814c.6,0,.967-.239.967-.632V174.2c0-.373-.23-.565-1.35-.852-1.35-.345-2.221-.718-2.221-2.048v-.019a2.1,2.1,0,0,1,2.345-2.02,3.878,3.878,0,0,1,2.489.852l-.766,1.11a3.144,3.144,0,0,0-1.742-.66c-.565,0-.861.258-.861.584v.019c0,.44.287.584,1.445.881,1.359.354,2.125.842,2.125,2.01v.019c0,1.33-1.015,2.077-2.46,2.077a4.266,4.266,0,0,1-2.843-1.072" transform="translate(-257.082 -106.949)" fill="#4d4d4f"/>
    <rect id="Rectángulo_294" data-name="Rectángulo 294" width="1.474" height="6.7" transform="translate(156.538 62.406)" fill="#4d4d4f"/>
    <path id="Trazado_2932" data-name="Trazado 2932" d="M434.8,170.878h-2.039v-1.359h5.552v1.359H436.27v5.341H434.8v-5.341Z" transform="translate(-273.444 -107.113)" fill="#4d4d4f"/>
    <path id="Trazado_2933" data-name="Trazado 2933" d="M450.163,169.388h1.359l2.872,6.748h-1.541l-.613-1.5h-2.833l-.613,1.5h-1.5Zm1.551,3.944-.89-2.173-.89,2.173Z" transform="translate(-282.628 -107.03)" fill="#4d4d4f"/>
    <path id="Trazado_2934" data-name="Trazado 2934" d="M469.678,169.518h3.063a2.67,2.67,0,0,1,1.953.68,2.1,2.1,0,0,1,.574,1.531v.019a2.081,2.081,0,0,1-1.436,2.077l1.637,2.393h-1.723l-1.436-2.144h-1.158v2.144h-1.474Zm2.967,3.254c.718,0,1.129-.383,1.129-.948v-.019c0-.632-.44-.957-1.158-.957h-1.464v1.924Z" transform="translate(-296.773 -107.112)" fill="#4d4d4f"/>
    <rect id="Rectángulo_295" data-name="Rectángulo 295" width="1.474" height="6.7" transform="translate(179.998 62.406)" fill="#4d4d4f"/>
    <path id="Trazado_2935" data-name="Trazado 2935" d="M499.1,169.388h1.359l2.872,6.748h-1.541l-.613-1.5h-2.833l-.613,1.5h-1.5Zm1.551,3.944-.89-2.173-.89,2.173Z" transform="translate(-313.546 -107.03)" fill="#4d4d4f"/>
    <path id="Trazado_2936" data-name="Trazado 2936" d="M101.027,195.518h2.508c1.512,0,2.508.8,2.508,2.125v.019c0,1.445-1.206,2.192-2.632,2.192h-1.627v2.364h-.756v-6.7m2.412,3.647c1.11,0,1.838-.593,1.838-1.474v-.019c0-.957-.718-1.455-1.8-1.455h-1.695v2.948Z" transform="translate(-63.835 -123.541)" fill="#4d4d4f"/>
    <path id="Trazado_2937" data-name="Trazado 2937" d="M118.355,195.388h.708l3.053,6.748H121.3l-.785-1.771h-3.647l-.794,1.771H115.3Zm1.866,4.3-1.522-3.417-1.531,3.417Z" transform="translate(-72.855 -123.459)" fill="#4d4d4f"/>
    <path id="Trazado_2938" data-name="Trazado 2938" d="M137.687,195.518h2.881a2.642,2.642,0,0,1,1.9.67,1.851,1.851,0,0,1,.517,1.321v.019a1.961,1.961,0,0,1-1.819,1.953l2.058,2.737H142.3l-1.943-2.6h-1.914v2.6h-.756Zm2.814,3.417c1.005,0,1.723-.517,1.723-1.378v-.019c0-.823-.632-1.321-1.713-1.321h-2.067v2.718Z" transform="translate(-87 -123.541)" fill="#4d4d4f"/>
    <path id="Trazado_2939" data-name="Trazado 2939" d="M158.264,195.388h.708l3.053,6.748h-.814l-.785-1.771h-3.647l-.794,1.771h-.775Zm1.866,4.3-1.522-3.417-1.531,3.417Z" transform="translate(-98.072 -123.459)" fill="#4d4d4f"/>
    <path id="Trazado_2940" data-name="Trazado 2940" d="M185.682,195.518h.756v6h3.772v.7h-4.527v-6.7Z" transform="translate(-117.326 -123.541)" fill="#4d4d4f"/>
    <path id="Trazado_2941" data-name="Trazado 2941" d="M203.556,195.388h.708l3.053,6.748H206.5l-.785-1.771h-3.647l-.794,1.771H200.5Zm1.866,4.3-1.522-3.417-1.531,3.417Z" transform="translate(-126.691 -123.459)" fill="#4d4d4f"/>
    <path id="Trazado_2942" data-name="Trazado 2942" d="M229.05,201.078l.871-1.043a3.074,3.074,0,0,0,2,.814c.6,0,.967-.239.967-.632V200.2c0-.373-.23-.565-1.35-.852-1.35-.345-2.221-.718-2.221-2.048v-.019a2.1,2.1,0,0,1,2.345-2.02,3.878,3.878,0,0,1,2.489.852l-.766,1.11a3.144,3.144,0,0,0-1.742-.66c-.565,0-.861.258-.861.584v.019c0,.44.287.584,1.445.881,1.359.354,2.125.842,2.125,2.01v.019c0,1.33-1.015,2.077-2.46,2.077a4.266,4.266,0,0,1-2.843-1.072" transform="translate(-144.729 -123.377)" fill="#0096aa"/>
    <path id="Trazado_2943" data-name="Trazado 2943" d="M246.937,199.348v-3.829h1.474v3.79c0,1.091.546,1.656,1.445,1.656s1.445-.546,1.445-1.608v-3.838h1.474V199.3a2.7,2.7,0,0,1-2.938,3.025,2.659,2.659,0,0,1-2.9-2.977" transform="translate(-156.031 -123.542)" fill="#0096aa"/>
    <path id="Trazado_2944" data-name="Trazado 2944" d="M265.917,201.078l.871-1.043a3.073,3.073,0,0,0,2,.814c.6,0,.967-.239.967-.632V200.2c0-.373-.23-.565-1.35-.852-1.35-.345-2.221-.718-2.221-2.048v-.019a2.1,2.1,0,0,1,2.345-2.02,3.878,3.878,0,0,1,2.489.852l-.766,1.11a3.144,3.144,0,0,0-1.742-.66c-.565,0-.861.258-.861.584v.019c0,.44.287.584,1.445.881,1.359.354,2.125.842,2.125,2.01v.019c0,1.33-1.015,2.077-2.46,2.077a4.267,4.267,0,0,1-2.842-1.072" transform="translate(-168.023 -123.377)" fill="#0096aa"/>
    <path id="Trazado_2945" data-name="Trazado 2945" d="M284.44,196.878H282.4v-1.359h5.552v1.359h-2.039v5.341H284.44v-5.341Z" transform="translate(-178.439 -123.542)" fill="#0096aa"/>
    <path id="Trazado_2946" data-name="Trazado 2946" d="M300.835,195.518h5.054v1.311H302.3v1.359h3.159V199.5H302.3v1.407h3.637v1.311h-5.1v-6.7Z" transform="translate(-190.087 -123.541)" fill="#0096aa"/>
    <path id="Trazado_2947" data-name="Trazado 2947" d="M318.541,195.518H319.9l3.139,4.126v-4.126h1.455v6.7h-1.254L320,197.959v4.259h-1.455Z" transform="translate(-201.275 -123.541)" fill="#0096aa"/>
    <path id="Trazado_2948" data-name="Trazado 2948" d="M340.106,196.878h-2.039v-1.359h5.552v1.359H341.58v5.341h-1.474Z" transform="translate(-213.612 -123.542)" fill="#0096aa"/>
    <path id="Trazado_2949" data-name="Trazado 2949" d="M355.472,195.388h1.359l2.871,6.748h-1.541l-.613-1.5h-2.833l-.613,1.5h-1.5Zm1.551,3.944-.89-2.173-.89,2.173Z" transform="translate(-222.796 -123.459)" fill="#0096aa"/>
    <path id="Trazado_2950" data-name="Trazado 2950" d="M374.987,195.518H378.1a2.419,2.419,0,0,1,1.752.593,1.537,1.537,0,0,1,.459,1.139v.019a1.558,1.558,0,0,1-.881,1.445,1.638,1.638,0,0,1,1.254,1.646v.019c0,1.225-1,1.838-2.508,1.838h-3.187Zm2.795,2.709c.651,0,1.062-.211,1.062-.708V197.5c0-.44-.345-.689-.967-.689h-1.455v1.417Zm.392,2.7c.651,0,1.043-.23,1.043-.727v-.019c0-.45-.335-.727-1.091-.727h-1.7v1.474Z" transform="translate(-236.941 -123.541)" fill="#0096aa"/>
    <rect id="Rectángulo_296" data-name="Rectángulo 296" width="1.474" height="6.7" transform="translate(145.129 71.977)" fill="#0096aa"/>
    <path id="Trazado_2951" data-name="Trazado 2951" d="M403.066,195.518h1.474v5.36h3.341v1.34h-4.815Z" transform="translate(-254.683 -123.541)" fill="#0096aa"/>
    <rect id="Rectángulo_297" data-name="Rectángulo 297" width="1.474" height="6.7" transform="translate(154.48 71.977)" fill="#0096aa"/>
    <path id="Trazado_2952" data-name="Trazado 2952" d="M428.468,195.518h2.613a3.34,3.34,0,0,1,3.561,3.331v.019a3.354,3.354,0,0,1-3.561,3.35h-2.613Zm2.613,5.37a1.909,1.909,0,0,0,2.02-2v-.019a1.924,1.924,0,0,0-2.02-2.02h-1.139v4.039Z" transform="translate(-270.734 -123.541)" fill="#0096aa"/>
    <path id="Trazado_2953" data-name="Trazado 2953" d="M449.1,195.388h1.359l2.872,6.748h-1.541l-.613-1.5h-2.833l-.613,1.5h-1.5Zm1.551,3.944-.89-2.173-.89,2.173Z" transform="translate(-281.955 -123.459)" fill="#0096aa"/>
    <path id="Trazado_2954" data-name="Trazado 2954" d="M468.612,195.518h2.613a3.34,3.34,0,0,1,3.561,3.331v.019a3.354,3.354,0,0,1-3.561,3.35h-2.613Zm2.613,5.37a1.909,1.909,0,0,0,2.02-2v-.019a1.924,1.924,0,0,0-2.02-2.02h-1.139v4.039Z" transform="translate(-296.099 -123.541)" fill="#0096aa"/>
  </g>
</svg>
