<?xml version="1.0" encoding="utf-8"?>
<!-- Generator: Adobe Illustrator 26.5.0, SVG Export Plug-In . SVG Version: 6.00 Build 0)  -->
<svg version="1.1" id="Layer_1" xmlns="http://www.w3.org/2000/svg" xmlns:xlink="http://www.w3.org/1999/xlink" x="0px" y="0px"
	 viewBox="0 0 48 65" style="enable-background:new 0 0 48 65;" xml:space="preserve">
<style type="text/css">
	.st0{fill:#016971;}
</style>
<g>
	<g>
		<path class="st0" d="M34.2,25.8V14.9c0,0,0-0.1-0.1-0.1H13c0,0-0.1,0-0.1,0.1v10.9l0,0c0.1,3.8,1.2,7.4,3.2,10.3
			c1.9,2.9,4.6,4.9,7.5,5.7l0,0c2.9-0.8,5.5-2.8,7.4-5.7C33,33.2,34.1,29.7,34.2,25.8L34.2,25.8L34.2,25.8z M33.8,25.7
			C33.8,25.8,33.8,25.8,33.8,25.7c-0.2,7.6-4.3,14-10.2,15.7c-5.8-1.7-10-8.1-10.2-15.6c0,0,0,0,0-0.1V15.2h20.4V25.7L33.8,25.7z"/>
		<path class="st0" d="M23.6,38.9L23.6,38.9c4.5-1.7,7.8-7.1,7.9-13.1c0-0.1,0-0.1,0-0.1v-7.9c0,0,0-0.1-0.1-0.1H15.6
			c0,0-0.1,0-0.1,0.1v7.9v0.1C15.8,31.8,19.1,37.2,23.6,38.9L23.6,38.9z M23.6,38.4c-4.3-1.7-7.4-6.9-7.5-12.6c0-0.1,0-0.1,0-0.1
			s0-6.1,0-7.4c0,0.1,0.1,0.2,0.1,0.3c0.1,0.2,0.4,0.7,0.4,0.7s0,0.2-0.1,0.3c-0.1,0,0.1,0.2,0.2,0.2c0.1,0.1,0.2,0.4,0.3,0.4
			c0.1,0,0.1-0.1,0.1-0.3c-0.1-0.2-0.3-0.5-0.3-0.5s0-0.2-0.1-0.4c-0.1-0.2-0.2-0.5-0.2-0.5s0.5,0.1,0.6,0.4c0,0.1,0.2,0.8,0.3,1.2
			c0.1,0.2,0.2,0.4,0.4,0.6c0.2,0.2,0.5,0.5,0.9,0.7c0.4,0.1,0.9-0.2,1.1,0c0.2,0.1,0.6,0.5,0.9,0.6s1,0.2,1.2,0.5s0.5,0.3,0.7,0.4
			c0.2,0,0.8,0.3,0.8,0.8l-0.5,1c0,0-0.4,0.4-0.4,0.8c-0.1,0.4-0.2,0.6,0.1,1.1c0.4,0.5,0.6,1.2,0.6,1.7s0.5,0.5,0.8,0.7
			s0,0.4-0.2,0.9s-0.1,1.4-0.3,2c-0.2,0.6-0.4,0.8-0.4,1.3s0,1-0.1,1.4c-0.1,0.4,0,0.8,0,1.2c0,0.4,0.1,1,0.4,1.4s1,0.6,0.9,0
			s0-1.4,0.4-1.8C25,35,25,35,25,35s-0.1-0.6,0.3-0.8s0.6-0.4,0.4-0.5s0-0.3,0.2-0.3s0.3,0.1,0.8-0.5s0.6-0.7,1.1-1s0.7-0.8,1-1.1
			c0.3-0.3,0.8-0.6,1.2-0.6c0.3-0.1,0.5-0.4,0.5-0.8s-0.1-0.7,0.2-1.1c0.3-0.4,0.1-0.5,0.3-0.7C30.3,32.6,27.4,36.9,23.6,38.4
			L23.6,38.4z M31.1,25.6v0.1c0,0.2,0,0.5,0,0.7c-0.2-0.2-0.6-0.4-0.8-0.6c-0.2-0.3-0.6-0.5-0.7-0.5c-0.1-0.1-0.2-0.2-0.5-0.1
			s-0.6,0-0.7-0.3s0-0.7-0.4-0.8c-0.3-0.2-0.5-0.4-0.8-0.6C27,23.3,26.7,23,26.6,23s-0.7,0-0.7,0s-0.4-0.3-0.9-0.2
			c0,0-0.3-0.5-0.7-0.2c-0.4,0.3-0.7,0.5-0.9,0.2c-0.2-0.3-0.6-0.2-0.8-0.1c-0.2,0-0.5-0.4-0.5-0.6c-0.1-0.2,0-0.4-0.1-0.4
			s-0.5,0.1-0.7-0.1s-0.1-0.4,0-0.5c0.1-0.2,0.2-0.8,0.2-0.9h-0.3c0,0-0.3-0.1-0.4,0.2c-0.1,0.2-0.5,0.5-0.8,0.4s-0.6-0.3-0.7-0.6
			c-0.1-0.3-0.1-0.5,0-0.7S19.1,19,19,18.9c-0.1-0.1-0.1,0.1-0.3-0.2c-0.1-0.2-0.2-0.3-0.3-0.4h12.7C31.1,18.8,31.1,25.6,31.1,25.6
			L31.1,25.6z"/>
		<path class="st0" d="M17.7,6.2c-0.4-0.2-0.9-0.1-1,0.1c-0.1,0.1-0.2,0.2-0.2,0.2c-0.1,0-0.7,0-0.9,0.3c-0.1,0.2-0.1,0.4,0,0.7
			C16,8.5,16,8.7,16,8.7l0,0c0,0,0.6,0.6,0.4,1.2c-0.3,0.6-0.2,0.8,0.1,1c0.3,0.1,0.4,0.3,0.4,1V12c0,0.4,0,0.8,0.2,1
			c0.1,0.1,0.3,0.2,0.5,0.2c0.1,0,0.3-0.1,0.3-0.2c0.3-0.4,0.2-1.2,0.1-1.6c-0.1-0.3-0.2-1.1,0-1.3c0.3-0.2,0.4-0.3,0.6-0.1l0,0
			c0.1,0,0.4-0.1,0.4-0.4c0-0.1,0-0.2-0.1-0.3l0,0H19c0.2,0,0.3,0,0.4-0.1s0.1-0.3,0-0.4c-0.1-0.3-0.6-1-0.9-1.3l-0.1-0.1
			c-0.2-0.2-0.2-0.2-0.2-0.3C18.3,6.6,18.1,6.4,17.7,6.2L17.7,6.2z M18.5,9.3C18.5,9.4,18.5,9.4,18.5,9.3c-0.3-0.1-0.6,0.2-0.8,0.3
			c-0.4,0.3-0.3,1-0.1,1.7c0.1,0.5,0.1,1.1,0,1.3c0,0,0,0-0.1,0s-0.2,0-0.2,0c-0.1-0.1-0.1-0.5-0.1-0.8v-0.1c0-0.7-0.2-1-0.6-1.3
			c-0.1,0-0.1-0.1-0.1-0.1s0-0.1,0.2-0.4c0.3-0.7-0.2-1.4-0.4-1.6c0-0.1-0.1-0.4-0.4-1.1c-0.1-0.2-0.1-0.3,0-0.3
			c0.1-0.1,0.5-0.2,0.6-0.2h0.1c0.1,0,0.2-0.1,0.4-0.3c0-0.1,0.3-0.1,0.6,0C17.9,6.5,18,6.7,18,6.8c0,0.3,0.1,0.4,0.3,0.6l0.1,0.1
			c0.3,0.3,0.7,0.9,0.8,1.2l0,0c0,0,0,0-0.1,0s-0.3-0.1-0.5,0.1C18.4,9.1,18.5,9.3,18.5,9.3L18.5,9.3z"/>
		<path class="st0" d="M17,7.5c-0.2,0-0.3,0.1-0.3,0.3c0,0.2,0.1,0.3,0.3,0.3c0.2,0,0.3-0.1,0.3-0.3C17.3,7.7,17.1,7.5,17,7.5
			L17,7.5z"/>
		<path class="st0" d="M13.6,7.7c-0.1,0-1.4,0.4-1.4,1.3c0,0.9,0.9,1,0.9,1s0,0,0.1,0c0,0,0,0,0-0.1C13.1,9.7,13,9.6,13,9.5
			c0-0.1,0.2-0.2,0.3-0.3c0.2-0.1,0.3-0.2,0.3-0.4C13.5,8.3,13.7,7.8,13.6,7.7C13.7,7.8,13.7,7.7,13.6,7.7L13.6,7.7L13.6,7.7z
			 M12.6,9.3c-0.1-0.1-0.1-0.2-0.1-0.3c0-0.3,0.3-0.6,0.7-0.7c0,0.2,0,0.4,0,0.5l-0.1,0.1C12.9,8.9,12.7,9.1,12.6,9.3L12.6,9.3z"/>
		<path class="st0" d="M14.3,9.3c-0.6,0.3-1,0.5-1,0.6c0,0,0,0,0,0.1c0,0,0,0,0.1,0c0.2,0,1.8,0.4,2.1,0.3c0.2,0,0.5-0.2,0.6-0.5
			s0-0.7-0.2-1.1c-0.5-0.9-0.7-1.6-0.7-1.6s0,0-0.1,0c0,0-1.5,0.4-1.3,1.8c0,0,0,0,0.1,0h0.5c0.1,0,0.2,0.1,0.2,0.1
			C14.6,9.1,14.6,9.2,14.3,9.3L14.3,9.3z M14.9,9c0-0.3-0.4-0.4-0.5-0.4h-0.1h-0.2c0-0.6,0.5-0.9,0.8-1c0.1,0.3,0.3,0.7,0.6,1.3l0,0
			c0.1,0.2,0.3,0.5,0.2,0.7s-0.3,0.2-0.3,0.3c-0.1,0-0.5-0.1-1.1-0.2c0.1,0,0.2-0.1,0.3-0.1C14.6,9.6,15,9.4,14.9,9L14.9,9z"/>
		<path class="st0" d="M16.9,13.1c0,0,0-0.1-0.1-0.1l-0.3-0.2l0,0c0,0-0.2-0.1-0.4,0.1l-1.6,1.2c0,0-0.2,0.2-0.1,0.3
			c0,0,0,0.1,0.1,0.1c0.2,0,0.9,0.1,1,0.1c0,0,0.3,0,0.5-0.1c0.1-0.1,0.8-1,0.9-1C16.8,13.4,16.9,13.2,16.9,13.1L16.9,13.1z
			 M15.7,14.2c0,0-0.1,0-0.2,0L15,14.1l1.3-0.9l0,0l0,0l0.1,0.1C16.2,13.5,15.8,14.1,15.7,14.2L15.7,14.2z"/>
		<path class="st0" d="M16.2,14.6c0.3,0,0.6,0.1,0.6,0.1s0.2,0,0.4-0.3l0.4-0.8c0,0,0.1-0.1,0-0.2c0,0-0.1-0.1-0.2-0.1
			c-0.2-0.1-0.3-0.1-0.3-0.1s-0.2-0.1-0.4,0.1c-0.1,0.1-0.8,1-0.8,1s-0.1,0.2-0.1,0.3C16.1,14.6,16.1,14.6,16.2,14.6L16.2,14.6z
			 M16.9,14.3c0,0-0.2,0-0.3,0c0.2-0.2,0.5-0.6,0.6-0.8h0.1C17.2,13.7,17,14.2,16.9,14.3L16.9,14.3L16.9,14.3z"/>
		<path class="st0" d="M17.9,14.7h0.5c0.1,0,0.3-0.1,0.3-0.4v-0.9l0,0c0,0-0.1-0.2-0.3-0.1c-0.2,0-0.3,0-0.3,0s-0.2,0-0.2,0.2
			s-0.3,0.8-0.3,0.8s-0.1,0.2,0,0.3C17.5,14.7,17.7,14.7,17.9,14.7L17.9,14.7z M18.3,14.3L18.3,14.3h-0.4l0,0
			c0.1-0.2,0.2-0.5,0.3-0.7c0.1,0,0.1,0,0.2,0L18.3,14.3L18.3,14.3z"/>
		<path class="st0" d="M20.2,14.6h0.5c0,0,0.1,0,0.1-0.1s0-0.1,0-0.3c-0.1-0.2-0.7-1.4-0.7-1.4l0,0c0,0-0.1-0.1-0.2-0.1l0,0
			l-0.3,0.2c-0.1,0-0.2,0.1-0.1,0.3s0.4,1.2,0.4,1.2l0,0C19.8,14.5,19.9,14.7,20.2,14.6L20.2,14.6z M19.8,13.2
			c0.1,0.3,0.4,0.8,0.5,1.1c-0.1,0-0.2,0-0.2,0l0,0C20.1,14.1,19.9,13.5,19.8,13.2L19.8,13.2L19.8,13.2z"/>
		<path class="st0" d="M18.9,14.7c0.1,0,0.6,0,0.6,0s0.1,0,0.2-0.1c0-0.1,0-0.1,0-0.2l-0.4-1.1l0,0c0-0.1-0.1-0.2-0.3-0.1
			c-0.1,0-0.3,0.1-0.3,0.1l0,0c0,0-0.1,0.1-0.1,0.2c0,0.1,0,1,0,1C18.7,14.6,18.8,14.7,18.9,14.7L18.9,14.7z M19.1,14.3
			c0-0.3,0-0.6,0-0.8l0,0l0.3,0.8H19.1L19.1,14.3z"/>
		<path class="st0" d="M21.1,14.5c0.2,0,0.4-0.1,0.5-0.1c0,0,0.2,0,0.2-0.1c0.1-0.1,0-0.2,0-0.4c-0.2-0.4-1-1.6-1-1.7
			c0,0,0-0.1-0.1-0.1s-0.1,0-0.2,0.1l-0.3,0.3c-0.1,0-0.2,0.2-0.1,0.4s0.7,1.5,0.7,1.5l0,0C20.8,14.4,20.9,14.6,21.1,14.5L21.1,14.5
			z M20.4,12.8l0.1-0.1c0.2,0.3,0.7,1.1,0.9,1.5c-0.1,0-0.2,0-0.3,0C21,14,20.5,13,20.4,12.8L20.4,12.8z"/>
		<path class="st0" d="M11.5,27.7c-0.8-0.4-1.6-0.1-1.6,0.6c0,1.6,3.4,1.4,2.8-1.4c-0.3-1.6-1.3-3.7-1.6-6.8C11,17,12.6,16,12.6,16
			v-0.8c-2.6,1.3-2.1,6.8-1.3,9.4C12.1,27.3,11.5,27.7,11.5,27.7L11.5,27.7z"/>
		<path class="st0" d="M37.3,28.2c0-0.7-0.8-1-1.5-0.6c0,0-0.6-0.4,0.2-3s1.3-8.1-1.3-9.4V16c0,0,1.6,1,1.4,4
			c-0.2,3.1-1.2,5.1-1.5,6.8C33.9,29.7,37.3,29.9,37.3,28.2L37.3,28.2z"/>
		<path class="st0" d="M10.5,30l-1.6,1.3c-1.8-1.4-2.6,0.3-2.6,0.3c0.7-0.1,1.2,0.1,1.2,0.1C6.1,32.1,6.4,33,6.4,33s1.5-1,2.1,0
			c0.8,1.3-0.2,2.3-0.2,2.3c2.4,0,1.6-3.2,1.6-3.2L12,30L10.5,30L10.5,30z"/>
		<path class="st0" d="M40.6,31.5c0,0-0.8-1.7-2.6-0.3l-1.6-1.3h-1.5L37,32c0,0-0.8,3.2,1.6,3.2c0,0-1-1-0.2-2.3
			c0.6-1,2.1-0.1,2.1-0.1s0.4-0.9-1.1-1.3C39.4,31.5,39.9,31.3,40.6,31.5L40.6,31.5z"/>
		<path class="st0" d="M12.6,17.9v-1.3c0,0.3-0.3,0.4-0.5,0.6c-0.2,0.1-0.1,0.3-0.1,0.3C12.5,17.4,12.6,17.9,12.6,17.9L12.6,17.9z"
			/>
		<path class="st0" d="M12.3,21.2c0.1,0.9,0.3,0.5,0.3,0.5s-0.1-1.4-0.1-1.7c0-0.3-0.9-0.1-0.9,0.2c0,0.3,0.2,1.5,0.2,1.5h0.3
			L12,20.6C12,20.6,12.2,20.3,12.3,21.2L12.3,21.2z"/>
		<path class="st0" d="M12.5,24.2c0.2,0.3,0.2-1.1,0.2-1.4c0,0-0.6-0.2-0.6,0.1C12.1,23.3,12.2,23.8,12.5,24.2L12.5,24.2z"/>
		<path class="st0" d="M11.6,18.7c0,0.3,0.9,0.2,0.9,0.2v-0.5C12.5,18.4,11.6,18.2,11.6,18.7L11.6,18.7z"/>
		<path class="st0" d="M12.5,19.5V19c0,0-0.9-0.1-0.9,0.3C11.6,19.6,12.5,19.5,12.5,19.5L12.5,19.5z"/>
		<path class="st0" d="M14.9,35.3c0-0.2-0.1-0.3-0.3-0.3c-0.1,0-0.3,0.1-0.3,0.3c0,0.1,0.1,0.3,0.3,0.3
			C14.8,35.6,14.9,35.5,14.9,35.3L14.9,35.3z"/>
		<path class="st0" d="M35.3,32.4c-0.2,0-0.3,0.1-0.3,0.3c0,0.1,0.1,0.3,0.3,0.3c0.1,0,0.3-0.1,0.3-0.3S35.5,32.4,35.3,32.4
			L35.3,32.4z"/>
		<path class="st0" d="M34.7,32.8c0-0.2-0.1-0.3-0.3-0.3c-0.1,0-0.3,0.1-0.3,0.3s0.1,0.3,0.3,0.3C34.6,33,34.7,32.9,34.7,32.8
			L34.7,32.8z"/>
		<path class="st0" d="M33.9,32.9c0-0.1-0.1-0.3-0.3-0.3c-0.1,0-0.3,0.1-0.3,0.3s0.1,0.3,0.3,0.3C33.8,33.2,33.9,33.1,33.9,32.9
			L33.9,32.9z"/>
		<path class="st0" d="M12.2,37.7l0.1-1.6c0,0-0.1-0.3-0.6-0.1l-0.1,1.2c0,0-0.3,0.5-0.9-0.1l0.1-1.2c0,0-0.2-0.3-0.6-0.1l-0.1,1.6
			C10.2,37.4,11,38.5,12.2,37.7L12.2,37.7z"/>
		<path class="st0" d="M11.2,37c0.1,0,0.2-0.1,0.2-0.2v-0.5c0-0.1-0.1-0.2-0.2-0.2c-0.1,0-0.2,0.1-0.2,0.1v0.5
			C11.1,36.9,11.1,37,11.2,37L11.2,37z"/>
		<path class="st0" d="M14.4,38l0.1-1.5c0,0-0.1-0.3-0.6-0.1l-0.1,1.2c0,0-0.3,0.4-0.8-0.1l0.1-1.2c0,0-0.2-0.3-0.5-0.1l-0.1,1.6
			C12.5,37.8,13.3,38.8,14.4,38L14.4,38z"/>
		<path class="st0" d="M13.5,37.4c0.1,0,0.2-0.1,0.2-0.2v-0.5c0-0.1-0.1-0.2-0.1-0.2c-0.1,0-0.2,0.1-0.2,0.2v0.5
			C13.4,37.3,13.4,37.4,13.5,37.4L13.5,37.4z"/>
		<path class="st0" d="M16.4,38.1l0.1-0.8c0,0-0.1-0.4-0.5-0.1v0.4c0,0-0.2,0.3-0.2-0.2s0-0.5,0-0.5s-0.1-0.2-0.2,0.1v0.6
			c0,0-0.1,0.1-0.3,0l0.1-0.9c0,0-0.1-0.4-0.5-0.1L14.8,38C14.8,37.9,15.3,38.9,16.4,38.1L16.4,38.1z"/>
		<path class="st0" d="M11.2,34.8c0-0.1-0.1-0.3-0.3-0.3c-0.1,0-0.3,0.1-0.3,0.3c0,0.1,0.1,0.3,0.3,0.3C11.1,35,11.2,34.9,11.2,34.8
			L11.2,34.8z"/>
		<path class="st0" d="M12.6,35c0-0.1-0.1-0.3-0.3-0.3c-0.1,0-0.3,0.1-0.3,0.3c0,0.1,0.1,0.3,0.3,0.3C12.4,35.2,12.6,35.1,12.6,35
			L12.6,35z"/>
		<path class="st0" d="M13.6,35.1c0-0.1-0.1-0.3-0.3-0.3c-0.1,0-0.3,0.1-0.3,0.3s0.1,0.3,0.3,0.3C13.5,35.4,13.6,35.3,13.6,35.1
			L13.6,35.1z"/>
		<path class="st0" d="M12.3,30.5v0.9l0.6,0.5C12.9,32,13.2,30.8,12.3,30.5L12.3,30.5z"/>
		<path class="st0" d="M13.2,33c-0.1,0.1-0.2,0.3-0.3-0.1c-0.1-0.3-0.3-0.3-0.5-0.3c-0.1,0-0.3,0.6-0.5,0.2
			c-0.1-0.4-0.2-0.6-0.7-0.5v1l2.5,0.6c0,0,0-0.7-0.1-0.8C13.6,32.9,13.3,32.9,13.2,33L13.2,33z"/>
		<path class="st0" d="M13.9,34.2c0,0-1.7-0.5-2.5-0.6V34l2.6,0.6C13.9,34.6,14,34.6,13.9,34.2L13.9,34.2z"/>
		<path class="st0" d="M36.9,37.4l-0.1-1.6c-0.4-0.2-0.6,0.1-0.6,0.1l0.1,1.2c-0.6,0.5-0.9,0.1-0.9,0.1L35.3,36
			c-0.5-0.2-0.6,0.1-0.6,0.1l0.1,1.6C36.1,38.4,36.9,37.4,36.9,37.4L36.9,37.4z"/>
		<path class="st0" d="M35.7,36.8c0,0.1,0.1,0.2,0.2,0.2s0.2-0.1,0.2-0.2v-0.5c0-0.1-0.1-0.2-0.2-0.1c-0.1,0-0.2,0.1-0.2,0.2V36.8
			L35.7,36.8z"/>
		<path class="st0" d="M34.5,37.7l-0.1-1.6c-0.4-0.2-0.5,0.1-0.5,0.1l0.1,1.2c-0.6,0.5-0.8,0.1-0.8,0.1l-0.1-1.2
			c-0.4-0.2-0.6,0.1-0.6,0.1l0.1,1.5C33.8,38.7,34.5,37.7,34.5,37.7L34.5,37.7z"/>
		<path class="st0" d="M33.5,36.5c-0.1,0-0.2,0.1-0.1,0.2v0.5c0,0.1,0.1,0.2,0.2,0.2c0.1,0,0.1-0.1,0.1-0.2v-0.5
			C33.7,36.6,33.6,36.5,33.5,36.5L33.5,36.5z"/>
		<path class="st0" d="M31.1,37.5L31,37.2c-0.4-0.3-0.5,0.1-0.5,0.1l0.1,0.8c1.1,0.8,1.7-0.2,1.7-0.2l-0.1-1.4
			c-0.4-0.3-0.5,0.1-0.5,0.1l0.1,0.9c-0.2,0.1-0.3,0-0.3,0v-0.6c-0.1-0.2-0.2-0.1-0.2-0.1s0,0,0,0.5C31.3,37.8,31.1,37.5,31.1,37.5
			L31.1,37.5z"/>
		<path class="st0" d="M4,6.5C4.2,6.4,4.4,6.3,4.2,6L3.4,4L3.2,4.1l0.8,2C4.1,6.3,4,6.3,4,6.5C3.8,6.4,3.7,6.4,3.7,6.2l-0.8-2
			L2.7,4.3l0.8,2C3.6,6.6,3.8,6.6,4,6.5L4,6.5z"/>
		<polygon class="st0" points="4.9,6.2 4.3,4 4.3,4 5.2,6.1 5.5,6 4.8,3.6 4.6,3.6 5.2,5.7 5.2,5.7 4.3,3.7 4,3.8 4.7,6.2 		"/>
		<polygon class="st0" points="6.2,5.8 5.5,3.4 5.3,3.5 5.9,5.9 		"/>
		<polygon class="st0" points="7,5.6 6.8,3.1 6.5,3.2 6.8,5.4 6.8,5.4 6.1,3.3 5.9,3.3 6.7,5.7 		"/>
		<polygon class="st0" points="8.2,5.4 8.2,5.2 7.8,5.3 7.6,4.3 7.9,4.2 7.9,4 7.5,4.1 7.4,3.2 7.7,3.1 7.7,2.9 7.1,3 7.6,5.5 		"/>
		<path class="st0" d="M8.8,5.3L8.6,4.1h0.1c0.1,0,0.2,0,0.2,0.1l0.2,1h0.2L9.2,4.1C9.1,4,9,3.9,8.9,3.9l0,0c0.2,0,0.2-0.1,0.2-0.3
			L9,3c0-0.2-0.2-0.3-0.4-0.2H8.1l0.4,2.5H8.8L8.8,5.3z M8.4,3h0.1c0.1,0,0.2,0,0.2,0.1l0.1,0.6c0,0.1,0,0.2-0.1,0.2H8.6L8.4,3
			L8.4,3z"/>
		<path class="st0" d="M9.5,3.3c0,0.1,0.1,0.2,0.1,0.3L10,4.1c0.1,0.1,0.1,0.1,0.1,0.2v0.3c0,0.1,0,0.2-0.1,0.2s-0.2,0-0.2-0.2V4.3
			H9.6v0.3c0,0.3,0.2,0.3,0.4,0.3s0.3-0.2,0.3-0.4l-0.1-0.4c0-0.1-0.1-0.2-0.1-0.3L9.8,3.4c0-0.1-0.1-0.1-0.1-0.2V2.9
			c0-0.1,0-0.2,0.1-0.2S9.9,2.8,10,2.8v0.3h0.2V2.8c0-0.2-0.2-0.3-0.4-0.3C9.5,2.6,9.4,2.7,9.4,3L9.5,3.3L9.5,3.3z"/>
		<polygon class="st0" points="11.1,4.9 10.7,2.4 10.5,2.5 10.8,5 		"/>
		<path class="st0" d="M11.9,4.8c0.3,0,0.4-0.2,0.3-0.5L12,2.7c0-0.2-0.1-0.4-0.4-0.4l-0.4,0.1l0.3,2.5L11.9,4.8L11.9,4.8z
			 M11.6,2.5c0.2,0,0.2,0,0.2,0.2L12,4.4c0,0.1,0,0.2-0.2,0.2h-0.1l-0.3-2.1H11.6L11.6,2.5z"/>
		<path class="st0" d="M12.8,4h0.4l0.2,0.7h0.2L13,2.1h-0.3l-0.1,2.6h0.2L12.8,4L12.8,4z M12.8,2.3L12.8,2.3l0.3,1.4h-0.4L12.8,2.3
			L12.8,2.3z"/>
		<path class="st0" d="M14.3,4.5c0.3,0,0.4-0.2,0.4-0.4l-0.2-1.7c0-0.2-0.1-0.4-0.4-0.4h-0.4L14,4.6L14.3,4.5L14.3,4.5z M14.1,2.2
			c0.1,0,0.2,0,0.2,0.2l0.2,1.7c0,0.1,0,0.2-0.2,0.2h-0.1L14,2.2H14.1L14.1,2.2z"/>
		<polygon class="st0" points="15.9,4.4 15.8,2.2 15.8,2.2 16.2,4.4 16.6,4.4 16.4,1.8 16.2,1.8 16.3,4 16.3,4 15.9,1.9 15.6,1.9 
			15.7,4.4 		"/>
		<path class="st0" d="M17.2,3.6h0.4l0.1,0.7h0.2l-0.5-2.5h-0.3l-0.2,2.5h0.2L17.2,3.6L17.2,3.6z M17.3,2L17.3,2l0.3,1.4h-0.4
			L17.3,2L17.3,2z"/>
		<path class="st0" d="M18.6,4.3c0.2,0,0.4-0.2,0.4-0.4V3.5h-0.2v0.4c0,0.1,0,0.2-0.1,0.2s-0.1,0-0.1-0.2L18.3,2
			c0-0.1,0-0.2,0.1-0.2s0.1,0,0.1,0.2v0.3h0.2V2c0-0.2-0.1-0.3-0.4-0.3c-0.2,0-0.3,0.2-0.3,0.4L18.1,4C18.2,4.1,18.3,4.3,18.6,4.3
			L18.6,4.3z"/>
		<polygon class="st0" points="19.5,4.2 19.4,1.7 19.2,1.7 19.3,4.2 		"/>
		<path class="st0" d="M20.4,4.2c0.3,0,0.4-0.2,0.4-0.4L20.7,2c0-0.2-0.1-0.4-0.4-0.4S19.9,1.8,19.9,2L20,3.7
			C19.9,4,20,4.2,20.4,4.2L20.4,4.2z M20.3,1.8c0.1,0,0.2,0.1,0.2,0.2l0.1,1.7c0,0.1,0,0.2-0.2,0.2c-0.1,0-0.2-0.1-0.2-0.2L20.1,2
			C20.1,1.9,20.1,1.8,20.3,1.8L20.3,1.8z"/>
		<polygon class="st0" points="21.4,4.1 21.3,1.9 21.4,1.9 21.7,4.1 22,4.1 22,1.6 21.8,1.6 21.8,3.8 21.8,3.8 21.5,1.6 21.1,1.6 
			21.2,4.1 		"/>
		<path class="st0" d="M22.6,3.4H23l0.1,0.7h0.2L23,1.6h-0.3l-0.3,2.5h0.2L22.6,3.4L22.6,3.4z M22.8,1.7L22.8,1.7L23,3.2h-0.4
			L22.8,1.7L22.8,1.7z"/>
		<polygon class="st0" points="24.3,3.9 23.9,3.9 23.9,1.6 23.7,1.6 23.7,4.1 24.3,4.1 		"/>
		<path class="st0" d="M25.4,3.4h0.4l0.1,0.7h0.2l-0.3-2.5h-0.3l-0.4,2.5h0.2L25.4,3.4L25.4,3.4z M25.6,1.8L25.6,1.8l0.2,1.5h-0.4
			L25.6,1.8L25.6,1.8z"/>
		<path class="st0" d="M26.8,4.2c0.2,0,0.4-0.1,0.4-0.3l0.1-2.2h-0.2l-0.1,2C27,3.9,26.9,4,26.8,4s-0.2-0.1-0.2-0.2l0.1-2.1h-0.2
			l-0.1,2.2C26.4,4.1,26.6,4.2,26.8,4.2L26.8,4.2z"/>
		<polygon class="st0" points="27.8,4.2 28,4.2 28.1,1.9 28.4,1.9 28.4,1.7 27.6,1.6 27.6,1.8 27.9,1.9 		"/>
		<path class="st0" d="M29,4.3c0.3,0,0.4-0.2,0.4-0.4l0.1-1.7c0-0.2-0.1-0.4-0.4-0.4S28.7,2,28.7,2.2l-0.1,1.7
			C28.6,4.1,28.7,4.2,29,4.3L29,4.3z M28.9,3.8L29,2.1c0-0.1,0-0.2,0.2-0.2s0.2,0.1,0.2,0.3l-0.1,1.7c0,0.1,0,0.2-0.2,0.2
			S28.9,4,28.9,3.8L28.9,3.8z"/>
		<polygon class="st0" points="30.2,2.1 30.2,2.1 30.4,4.3 30.7,4.3 30.9,1.8 30.7,1.8 30.5,4 30.5,4 30.4,1.8 30,1.8 29.9,4.3 
			30.1,4.3 		"/>
		<path class="st0" d="M31.5,4.4c0.3,0,0.4-0.1,0.4-0.4L32,2.3c0-0.2-0.1-0.4-0.4-0.5c-0.3,0-0.4,0.1-0.4,0.4L31.1,4
			C31.1,4.2,31.2,4.4,31.5,4.4L31.5,4.4z M31.4,4l0.1-1.7c0-0.1,0-0.2,0.2-0.2c0.1,0,0.2,0.1,0.2,0.3L31.7,4c0,0.1,0,0.2-0.2,0.2
			C31.4,4.2,31.4,4.1,31.4,4L31.4,4z"/>
		<polygon class="st0" points="32.8,2.2 32.8,2.2 32.8,4.5 33.1,4.5 33.6,2.2 33.6,2.2 33.4,4.6 33.6,4.6 33.8,2.1 33.4,2 33,4.3 
			33,4.3 32.9,2 32.6,1.9 32.3,4.5 32.5,4.5 		"/>
		<path class="st0" d="M34.3,4h0.4v0.7h0.2l-0.1-2.6h-0.3l-0.7,2.5H34L34.3,4L34.3,4z M34.7,2.3L34.7,2.3v1.5h-0.4L34.7,2.3
			L34.7,2.3z"/>
		<polygon class="st0" points="38.1,2.8 38.1,2.8 38,5.2 38.3,5.2 39,3 39,3 38.6,5.3 38.8,5.3 39.2,2.8 38.8,2.8 38.2,4.9 
			38.2,4.9 38.3,2.7 38,2.6 37.5,5.1 37.7,5.1 		"/>
		<polygon class="st0" points="39.8,5.5 39.8,5.3 39.4,5.2 39.6,4.2 40,4.3 40,4.1 39.7,4.1 39.9,3.2 40.2,3.2 40.3,3 39.7,2.9 
			39.2,5.4 		"/>
		<polygon class="st0" points="40,5.6 40.2,5.6 40.7,4.6 40.7,4.6 40.7,5.7 40.9,5.8 40.8,4.5 41.4,3.3 41.2,3.2 40.8,4.2 40.8,4.2 
			40.8,3.1 40.6,3.1 40.6,4.4 		"/>
		<polygon class="st0" points="41.4,5.9 42,3.4 41.8,3.4 41.1,5.8 		"/>
		<path class="st0" d="M42.1,6.1c0.2,0.1,0.4,0,0.4-0.2l0.1-0.3l-0.2-0.1l-0.1,0.3c0,0.1-0.1,0.1-0.2,0.1C42,5.9,42,5.8,42,5.7
			L42.6,4c0-0.1,0.1-0.1,0.2-0.1c0.1,0,0.1,0.1,0.1,0.2l-0.1,0.3H43l0.1-0.3c0.1-0.2,0-0.4-0.2-0.4c-0.2-0.1-0.4,0-0.5,0.2l-0.5,1.8
			C41.8,5.9,41.9,6.1,42.1,6.1L42.1,6.1z"/>
		<path class="st0" d="M43.1,6.5c0.3,0.1,0.4,0,0.5-0.2l0.6-1.6c0.1-0.2,0.1-0.4-0.2-0.5s-0.4,0-0.5,0.2L42.9,6
			C42.8,6.2,42.8,6.4,43.1,6.5L43.1,6.5z M43.1,6l0.6-1.6c0-0.1,0.1-0.2,0.2-0.2C44,4.3,44,4.4,44,4.5l-0.6,1.6
			c0,0.1-0.1,0.2-0.2,0.2C43.1,6.2,43.1,6.1,43.1,6L43.1,6z"/>
		<path class="st0" d="M1.6,5.9C2,6.5,2.1,6.7,2.1,7.2v0.2c0,0.4,0,0.8,0.3,1.1C2.6,8.7,3,8.8,3.6,8.8c0.4,0,1.1-0.1,1.8-0.3
			C6.5,8.3,7.8,8,9.1,8.1C8.8,8.5,7.9,9.3,6,9.1C4.1,8.8,2,8.8,1.3,9.8C1,10.3,1,11.1,1.5,12.2c0,0,0,0,0.1,0c0,0,1.5-0.5,1.1-2.1
			c0.6,0,1.1,0.2,1.7,0.4c0.1,0,0.2,0.1,0.4,0.1c-1.2,0.3-2.1,0.8-2.1,1.4c0,0.3,0.4,0.4,1.2,0.8c0.9,0.4,1.7,0.7,2.5,1.1
			c2.2,1.1,3.8,2,4,1.8c0.3-0.3-4.9-2.4-3.7-4.2c0.7-1,1.8,0.3,0.9,0.5s1.4,2.5,4.1,3.3c0,0,0.5-0.5,0.8-0.7c0,0,0.4-0.3-0.2-0.5
			c-0.6-0.2-4.3-1.3-2.8-2.7C10,11,10,10.7,9.8,10.5c0.5-0.2,1-0.5,1.3-0.8s0.5-0.7,0.5-1c0-1-1.2-2.3-1.7-2.8c3.5-0.6,8.2-1,13.6-1
			c5.6,0,10.3,0.4,13.9,1c-0.4,0.4-1.7,1.8-1.7,2.8c0,0.3,0.2,0.7,0.5,1c0.2,0.2,0.5,0.4,0.8,0.6c-0.4,0.2-0.6,0.5-0.6,0.7
			c0,0.8,0.8,1.1,0.8,1.1c0.1,1-2.2,2-2.8,2.2c0.1,0.1,0.5,0.2,0.8,0.4c2.2-0.6,2.8-1.8,3.2-2.3c0.5-0.6-0.8-0.3-0.8-0.9
			c0-0.6,1.9-1.1,1.5,0.6c-0.3,1.6-2.6,2.6-3.6,2.9c0.1,0.1,0.3,0.2,0.4,0.4c0,0.1,0.2,0.3,0.3,0.3s0-0.4,0.2-0.3
			c0.2,0,0.3,0.1,0.4-0.1c0.1-0.2,0.1-0.4,0.2-0.3c0.2,0.1,0.2,0.2,0.3,0.1c0.1-0.1-0.1-0.5,0.2-0.4s0.4-0.1,0.3-0.3
			c-0.1-0.2,0.1-0.1,0.4,0.1c0.2,0.1,0.2-0.1,0.1-0.3c-0.1-0.2,0-0.3,0.2-0.1s0.6,0.1,0.3-0.1c-0.3-0.3,0-0.5,0.3-0.3
			s0.2,0.1,0.1-0.2c-0.2-0.3,0-0.4,0.3-0.1c0.4,0.2,0.6,0.1,0.2-0.2c-0.4-0.3-0.2-0.5,0.2-0.3s0.9,0.3,0.4-0.1
			c-0.4-0.4-0.6-0.7-0.1-0.4s1,0.2,0.2-0.3s0.4,0,0.7,0.2s0.3-0.1-0.2-0.5c-0.6-0.3-0.2-0.4,0.5,0s0.7,0,0.1-0.2
			c-0.6-0.2-0.9-0.7-0.1-0.3c0.7,0.4,1.5,0.4,0.7,0c-0.3-0.2-0.6-0.3-0.7-0.4c0.2-0.1,0.5,0,1,0.3c1,0.7,0,1.4-0.8,1.8
			c-1.2,0.5-1.8,1-3.1,1.9c-0.8,0.6-1.8,0.7-2.5,0.8c0.1,0.1,0.1,0.3,0.2,0.4c1.2,0,2.5-0.4,3.3-0.9c1.1-0.7,2.9-1.7,4.3-2
			c1-0.3,2-0.8,0.4-1.9c-0.5-0.4-1.1-0.7-1.6-0.9h0.1c0.6-0.2,1.1-0.4,1.7-0.4c-0.3,1.6,1.1,2.1,1.1,2.1h0.1c0.5-1,0.6-1.8,0.2-2.4
			c-0.7-1-2.7-0.9-4.6-0.7c-2.1,0.2-3-0.7-3.2-0.9c0.2,0,0.5,0,0.8,0c0.6,0,1.3,0.2,1.9,0.3c1.5,0.3,3.1,0.5,3.9,0
			C45,8.2,45.2,8,45.2,7.6c0.1-0.7,0.4-1.3,0.7-1.8s0.6-1,0.5-1.4c-0.1-0.3-0.4-0.5-0.8-0.7c-2.1-0.9-5.3-1.7-8.9-2.3
			c-4.1-0.6-8.7-1-13.2-1c-8.8,0-17,1.1-21.3,2.9c0,0-0.9,0.3-1.1,0.9C0.9,4.7,0.9,5,1.1,5.3C1.3,5.5,1.4,5.7,1.6,5.9L1.6,5.9z
			 M2.2,3.8L2.2,3.8C6.5,2,14.6,0.9,23.4,0.9c10.7,0,18.6,1.7,22,3.2C45.8,4.2,46,4.4,46,4.6c0.1,0.3-0.2,0.7-0.4,1.1
			c-0.3,0.5-0.7,1.2-0.8,1.9c0,0.2-0.1,0.4-0.2,0.5l0,0c0-0.1-0.1-0.2-0.2-0.4c-1.5-1.4-10.4-3-20.9-3c-5.4,0-10.6,0.4-14.9,1.2
			C6.8,6.2,5.2,6.6,4.2,7C3.3,7.4,2.7,7.7,2.5,8c0-0.1,0-0.4,0-0.6V7.2c0-0.6-0.2-0.8-0.6-1.5C1.7,5.5,1.6,5.3,1.4,5.1
			C1.3,4.9,1.2,4.7,1.3,4.5C1.4,4.1,2,3.9,2.2,3.8L2.2,3.8z M41,8c-0.7-0.1-1.4-0.2-2-0.3c-1.5-0.1-2.4,0.4-2.9,0.9
			c0.1-0.7,1.1-1.9,1.8-2.6c3.4,0.6,5.6,1.3,6.2,1.9C44.2,8,44.2,8,44.2,8.1v0.1C43.4,8.4,42.2,8.2,41,8L41,8z M37.8,8.3l0.1,0.1
			c0.2,0.2,1.2,1.3,3.5,1c1-0.1,3.1-0.3,4,0.3c-0.9-0.1-1.8,0.1-2.6,0.4c-0.2,0.1-0.3,0.1-0.5,0.2c-2-0.8-3.8-0.5-4.8-0.1
			c-0.4-0.2-0.8-0.4-1-0.6c-0.1-0.1-0.2-0.3-0.3-0.4C36.5,8.9,36.9,8.4,37.8,8.3C37.8,8.2,37.8,8.3,37.8,8.3L37.8,8.3z M45,10
			c0.3,0,0.5,0,0.8,0.1c0.1,0.4,0.1,0.9-0.2,1.5C45.3,11.5,44.8,11,45,10L45,10z M11.2,8.5c-1.7-1-4.1-0.6-5.9-0.2
			C4.6,8.4,4,8.5,3.6,8.5c-0.3,0-0.6,0-0.7-0.1V8.3c0,0,0-0.1,0.1-0.2c0.6-0.6,2.9-1.4,6.5-2C10,6.7,10.9,7.7,11.2,8.5L11.2,8.5z
			 M9.4,10.4c-0.7-0.2-2-0.2-2.8-0.1c-0.4,0-0.8,0.1-1.1,0.2c-0.3-0.1-0.7-0.2-1-0.3C3.7,9.8,2.9,9.6,1.9,9.7c0.9-0.6,3-0.4,4-0.3
			c2.3,0.2,3.3-0.8,3.5-1l0.2-0.1l0,0c0.6,0.1,1.2,0.3,1.6,0.7C11.1,9.5,10.5,10,9.4,10.4L9.4,10.4z M1.7,11.7
			c-0.3-0.7-0.3-1.2-0.2-1.5c0.3-0.1,0.5-0.1,0.8-0.1C2.6,11,2.1,11.5,1.7,11.7L1.7,11.7z"/>
		<path class="st0" d="M24.9,13.3C24.8,13.3,24.8,13.3,24.9,13.3C24.8,13.3,24.8,13.4,24.9,13.3c-0.1,0.1,0,1.3,1.4,1.3
			c1.2,0,2.3-1,2.5-1.2c0.2,0.3,0.8,1.2,1.4,1.2c0.2,0,0.4-0.2,0.6-0.6c0.2,0.2,0.7,0.6,1.3,0.6c0.5,0,1-0.4,1.4-1c0,0,0,0,0-0.1
			c0,0,0,0-0.1,0c0,0-1.1,0.4-1.9-0.2c-0.4-0.3-0.6-0.8-0.6-1.4c0-1,0.1-1.6,0.2-2c0.3,0.2,0.7,0.3,1.2,0.3c1.3,0,1.5-0.7,1.5-0.8
			c0,0,0,0,0-0.1c0,0,0,0-0.1,0c-0.4,0.1-0.7,0-0.9,0c0.6-0.2,1-0.2,1.2,0s0.2,0.6,0.2,0.6V10c0,0,0,0,0.1,0
			c0.4-0.5,0.6-0.9,0.5-1.3c-0.2-0.6-1.2-0.8-2.1-1C31.4,7.4,30.9,6,30.9,6l0,0c0,0,0,0-0.1,0c-0.3,0.2-0.6,0.4-0.7,0.6l-0.9-1l0,0
			c0,0,0,0-0.1,0c0,0-0.4,0.5-0.1,1.2c-0.2-0.2-0.4-0.5-0.4-0.8c0,0,0,0,0-0.1c0,0,0,0-0.1,0c0,0-0.9,0.9,0,2.1
			c-0.2,0.1-0.9,0.3-2.3-0.1l0,0l0,0c0,0-0.1,0.5,0.2,0.9c0.3,0.3,0.7,0.5,1.4,0.6c-0.2,0.2-0.8,0.5-2.1,0.1c0,0,0,0-0.1,0
			c0,0,0,0,0,0.1c0,0,0.4,1.5,2.3,1.2c-0.4,0.3-1.4,1.1-2.8,0.7l0,0l0,0c0,0,0,0.9,0.7,1.2c0.5,0.3,1.4,0.1,2.4-0.5
			C27.8,12.5,27.2,13.5,24.9,13.3L24.9,13.3z M28.1,9.3c0.1-0.1,0.1-0.2,0-0.3c0-0.1-0.2-0.2-0.3-0.2c-0.6,0-1-0.1-1.3-0.4
			c-0.1-0.1-0.1-0.1-0.1-0.2c1.5,0.3,2.1,0,2.2-0.1c0.1,0,0.1-0.1,0.1-0.2c0-0.1,0-0.2,0-0.3c-0.4-0.5-0.4-0.9-0.3-1.2
			C28.6,6.8,28.9,7,28.9,7c0.1,0.1,0.3,0.1,0.4,0s0.1-0.2,0.1-0.4c-0.1-0.2-0.1-0.4-0.1-0.6l0.6,0.7c0,0.1,0,0.1-0.1,0.2
			c-0.1,0.4,0,0.7,0.1,0.9c-1,0.7-1.1,1.3-1,1.6c-0.1,0.2-0.5,0.7-1.3,0.9c-0.8,0.1-1.2-0.2-1.5-0.4C27.5,9.9,28,9.3,28.1,9.3
			L28.1,9.3z M30.7,6.3C30.8,6.5,31,6.7,31.2,7h-0.5l-0.3-0.4C30.4,6.5,30.5,6.4,30.7,6.3L30.7,6.3z M34.4,9c0-0.1-0.1-0.1-0.1-0.1
			c-0.4-0.3-0.9-0.3-1.8,0c-0.1,0-0.2,0.2-0.2,0.3s0.1,0.2,0.2,0.3c0,0,0.2,0.1,0.5,0.1c-0.2,0.1-0.4,0.1-0.7,0.1
			c-0.4,0-0.7-0.1-1-0.3c0.1-0.2,0.3-0.3,0.4-0.4c0.1,0,0.1-0.1,0.2-0.1c0.3-0.2,0.5-0.7,0.7-1h0.1c0.5,0.1,1.7,0.3,1.8,0.8
			C34.5,8.8,34.5,8.9,34.4,9L34.4,9z M32.6,13.9c-0.2,0.2-0.4,0.3-0.6,0.3c-0.6,0-1-0.5-1-0.5c0-0.1-0.1-0.1-0.2-0.1
			c-0.1-0.2-0.2-0.4-0.2-0.8h0.1c0.1,0.3,0.3,0.6,0.6,0.8C31.7,13.8,32.2,13.9,32.6,13.9L32.6,13.9z M30.2,7l0.2,0.3
			c0.1,0.1,0.1,0.1,0.2,0.1c0,0,0.2,0,0.4,0c0,0.1-0.1,0.2-0.2,0.3c-0.2,0.1-0.4,0.1-0.5,0c0,0,0,0,0-0.1C30.3,7.6,30.1,7.3,30.2,7
			L30.2,7z M31.6,8.6c-0.1,0-0.1,0.1-0.2,0.1C31.2,8.9,31,9,30.9,9.2c-0.1,0-0.1-0.1-0.2-0.1c0.2-0.2,0.4-0.5,0.7-0.6
			c0.4-0.2,0.4-0.6,0.4-0.9c0.1,0,0.2,0.1,0.3,0.1C32,8.1,31.8,8.4,31.6,8.6L31.6,8.6z M29.2,13.2c-0.1,0-0.2-0.2-0.2-0.9
			c0.2-0.1,0.4-0.4,0.6-0.5c0,0.3,0,0.6,0.2,0.8l0.1,0.1C29.7,12.9,29.4,13.2,29.2,13.2L29.2,13.2z M29.1,10.8L29.1,10.8
			c0,0,0.4-0.1,0.6-0.4c0,0.1,0,0.2,0,0.3c-0.5,0.9-1,1.2-1.2,1.2C28.5,11.9,28.8,11.3,29.1,10.8L29.1,10.8z M30.6,12.3
			c-0.2,0-0.3,0-0.4-0.1c-0.2-0.2-0.1-0.8,0-1.2c0.1,0,0.3-0.1,0.4-0.1c0,0.3,0,0.6,0,0.9C30.5,12,30.5,12.1,30.6,12.3L30.6,12.3z
			 M30.2,8c0.2,0.1,0.5,0.1,0.8,0c0.2-0.1,0.4-0.3,0.4-0.7h0.1v0.1l0,0l0,0c0,0,0.1,0.6-0.2,0.7c-0.4,0.2-0.7,0.4-0.8,0.7
			c-0.1-0.1-0.2-0.2-0.2-0.2c-0.1-0.1-0.2-0.1-0.4-0.1c-0.1,0-0.2,0.1-0.2,0.2c0,0-0.1,0.1-0.5,0.2C29.3,8.8,29.5,8.5,30.2,8L30.2,8
			L30.2,8z M30.2,13c0.1,0.2,0.2,0.5,0.2,0.7c0,0,0,0,0,0.1c-0.1,0.3-0.2,0.4-0.3,0.5c-0.2,0-0.5-0.3-0.8-0.6
			C29.7,13.4,30,13.2,30.2,13L30.2,13z M30.2,10.6c0-0.2-0.1-0.6-0.1-1V9.5H30c0,0-0.4,0.4-0.7,0.6c0-0.1-0.1-0.3-0.1-0.6l0,0
			C29.8,9.3,30,9.1,30.1,9c0.1,0.1,0.3,0.3,0.7,0.6c-0.1,0.2-0.1,0.5-0.2,0.8C30.5,10.4,30.4,10.5,30.2,10.6L30.2,10.6z M28.2,10.7
			c0.1-0.1,0.1-0.1,0.1-0.2c0.1,0,0.3-0.2,0.5-0.4c0,0.1,0.1,0.2,0.1,0.3c-0.3,0.5-0.7,1-0.9,1.2h-0.1c-1,0.6-1.7,0.8-2.1,0.5
			c-0.2-0.1-0.3-0.3-0.4-0.5C27,12,28.2,10.7,28.2,10.7L28.2,10.7z M28.2,12.3c0.1,0,0.2,0.1,0.4,0.1c0,0.1,0,0.4,0.1,0.6
			c0,0-0.1,0-0.1,0.1c0,0-1.1,1.2-2.3,1.2c-0.6,0-0.9-0.3-1-0.5C27.3,13.8,28,12.8,28.2,12.3L28.2,12.3z"/>
		<path class="st0" d="M4.7,36.6c0-0.2,0-0.4-0.1-0.4c-0.1-0.1-0.2,0.1-0.2,0.1l0,0l0,0c0,0-0.2,0.3-0.7,0.3c-0.3,0-0.7,0.2-0.9,0.4
			c-0.1,0.2-0.1,0.4-0.1,0.5C3,37.9,3.2,38.1,3.3,38c0,0,0.1,0,0.1-0.2v-0.1c0-0.1,0-0.1,0-0.2c0,0,0,0,0.1,0c0.2,0.1,0.4,0.1,0.5,0
			c0,0,0.1-0.1,0.1-0.3c0-0.1,0-0.1-0.1-0.2v-0.1c0,0,0,0,0.2-0.1C4.5,37,4.7,37,4.7,36.6L4.7,36.6z M3.4,37.2L3.4,37.2L3.4,37.2
			L3.4,37.2L3.4,37.2z"/>
		<path class="st0" d="M46.9,36.1c-0.1,0-0.2-0.1-0.3-0.2c-0.1-0.1-0.2-0.2-0.5-0.2c-0.1,0-0.3,0-0.3,0.1c-0.1,0.2-0.1,0.4,0.1,0.8
			c0.1,0.1,0.1,0.2,0.1,0.2c-0.2-0.1-0.4-0.1-0.6-0.2c-0.1-0.1-0.3-0.1-0.4,0c-0.2,0.2-0.3,0.7-0.3,1.2c-0.6,0-1.1,0.4-1.4,0.8
			c0-0.2,0-0.5-0.1-0.6s-0.2-0.1-0.4-0.1s-0.4,0.1-0.7,0.2c0-0.1,0-0.2,0-0.3s-0.1-0.2-0.2-0.2c-0.2,0-0.4,0-0.6,0.2
			c-0.1,0.1-0.1,0.2-0.1,0.3c0.1,0.2,0.3,0.4,0.5,0.5l-0.1,0.1c-0.1,0.2-0.1,0.3-0.1,0.5c0.1,0.3,0.5,0.5,0.9,0.6
			c-0.5,0.5-1.1,0.9-1.7,0.7c-0.1-0.1-0.7-0.8-2-0.5h-0.1c-1.3,0.3-2.2,0.5-2.7,1.8c-0.2,0.4-0.3,0.5-0.4,0.7
			c-0.3,0.4-0.5,0.7-0.7,3c-0.2,0.1-1.1,0.4-1.7,0.7c-0.1,0.1-0.3,0.1-0.4,0.1c-0.3,0-0.7,0-1.1,0.6c-0.3,0.2-0.4,0.2-0.6,0.1
			c-0.2,0-0.3-0.1-0.6,0.1c-0.2,0.1-0.4,0.1-0.4,0.1c0.1-0.2,0.3-0.7,0.8-0.9c0.5-0.1,1.7-0.5,2.2-1.1l0,0c0.2-0.4,0.4-0.6,0.6-0.7
			c0.3-0.2,0.5-0.4,0.3-0.7c-0.1-0.3,0-0.6,0.1-0.9c0.1-0.3,0.2-0.6,0-0.8c0.2-0.1,0.7-0.2,0.8-0.5c0-0.1,0-0.1,0-0.2
			c0-0.1,0-0.3,0-0.5c0.1-0.3,0.1-0.6,0-0.8C34.7,40,34.6,40,34.5,40c0-0.1-0.2-0.3-0.4-0.3s-0.4,0-0.6,0.2c-0.1,0-0.4-0.1-0.6,0
			c-0.1,0.1-0.2,0.2-0.2,0.5L32.3,41c-0.1,0-0.6-0.1-1.4,0.4l-0.3,0.2c-0.8,0.5-1.4,0.9-1.6,1.9c-0.1,0.5-0.2,0.7-0.2,0.9
			c-0.1,0-0.1-0.1-0.2-0.1c-0.2-0.1-0.4-0.2-0.6-0.3c-0.4-0.2-0.7-0.3-0.9-0.5c-0.4-0.5-1-0.6-1.7-0.1c-0.9,0.5-1.5,0.4-2.4,0.1
			c-0.1-0.1-0.3-0.1-0.5-0.2c-1-0.4-2.3-0.9-2.8-1.5c-0.1-0.1-0.2-0.3-0.2-0.4c-0.4-0.6-0.7-1.1-1.6-1.2c-0.1,0-0.7-0.3-1.3,0.2l0,0
			c0,0,0,0-0.1,0c0,0-0.1,0-0.1-0.1c-0.2-0.2-0.4-0.3-0.8,0.1c0,0-0.8,0.6-1,1.1l-0.1-0.1c-0.3-0.7-0.7-1.2-1.1-1.3
			c-0.3-0.1-0.6-0.4-0.8-0.7c-0.2-0.2-0.3-0.4-0.5-0.5s-0.3-0.2-0.4-0.2c-0.3,0-0.5,0.3-0.7,0.6l-0.1,0.1c-0.2,0.3-0.7,0.6-1,0.9
			c-0.2,0.1-0.3,0.2-0.4,0.3l0,0c-0.2-0.1-0.3-0.2-0.3-0.3c-0.5-0.4-1-1-1.2-1.3c0.1-0.3,0-0.7-0.2-0.9c0.3,0,0.4-0.2,0.6-0.5
			c0.1-0.2,0.1-0.3,0-0.4C8.3,37,8,36.9,7.5,36.9c-0.4,0-0.8,0.3-0.9,0.5c-0.2,0-0.5,0-0.8,0.2c0-0.2,0-0.3-0.1-0.5
			c-0.5-0.5-1.4,0.4-1.8,0.8c-0.3,0.3-0.3,0.6-0.3,0.8l0,0H3.5H3.4c-0.1,0-0.3-0.1-0.5-0.1c-0.1-0.3-0.3-1-0.8-1c-0.1,0-0.1,0-0.2,0
			v-0.1c0-0.1-0.1-0.3-0.2-0.4c-0.1,0-0.3-0.1-0.4-0.1c-0.3,0-0.6,0.3-0.6,0.6c0,0.2,0.1,0.3,0.2,0.4L1,38.1
			c-0.1,0.1-0.2,0.2-0.3,0.3c0,0.1-0.1,0.3,0.1,0.5C1,39,1.2,39.2,1.4,39.4c-0.1,0.2-0.1,0.4-0.1,0.6l0,0C1.2,40,1,40.1,1,40.3
			s0.2,0.3,0.3,0.4c0,0.3,0,0.6,0.1,0.8c-0.1,0.1-0.1,0.3,0,0.3s0.1,0.1,0.2,0.1L1.7,42c0.1,0.1,0.2,0.3,0.4,0.4c0,0,0,0.1,0.1,0.1
			c0,0.2-0.1,0.5,0.1,0.5c0.1,0,0.3,0,0.4,0c0.1,0.1,0.2,0.2,0.3,0.2c0.2,0.1,0.3,0.2,0.5,0.3c0,0.2,0,0.4,0.2,0.4
			c0.1,0,0.2,0,0.3-0.1c0.4,0.3,0.7,0.6,0.7,0.7c-0.1,0.2-0.7,0.7-0.9,0.7c-0.1,0-0.2,0-0.2,0.1c-0.1,0.2-0.1,0.5,0,0.8
			C3.2,46.5,2.9,46.8,3,47c0,0.1,0.1,0.2,0.2,0.2c0.1,0.1,0.2,0.2,0.2,0.3c0,0-0.1,0.1-0.2,0.1c-0.3,0.1-0.7,0.3-0.8,0.6
			c-0.1,0.2,0,0.5,0.3,0.8l0,0l-0.1,0.2c0,0-0.5,0.1-0.4,0.5c0.2,0.4,0.9,0.4,0.7-0.2l0.2-0.2c0.3,0.2,0.6,0.3,0.9,0.2
			c0.3-0.1,0.4-0.3,0.5-0.7c0.3,0.1,1.3,0.5,2.3,0.5c0.1,0.1,0.3,0.2,0.5,0.2s0.2-0.2,0.3-0.3c0.2,0,0.7,0,1.2,0
			c0.1,0.1,0.2,0.2,0.4,0.2s0.2-0.1,0.2-0.3c0.1,0,0.2-0.1,0.3-0.1c0.2-0.1,0.7-0.2,1.4-0.2c0,0,0,0.1,0.1,0.1
			c0.2,0.4,0.4,0.5,0.4,0.6c0,0,0,0,0,0.1s0,0.2,0,0.3c0.1,0.1,0.2,0.1,0.4,0.2l0,0c0.4,0.1,0.7,0.1,0.9,0.4l0,0
			c0.1,0.2,0.2,0.3,0.3,0.3s0.3,0,0.5-0.2c0.4-0.3,0.9,0,0.9,0c0,0.1,0.2,0.4,0.5,0.4c0.1,0,0.3-0.1,0.3-0.4
			c0.1-0.1,0.2-0.1,0.4-0.1s0.5,0,0.9-0.2c0,0,0.9-0.6,1.5-0.9c0.1,0.1,0.1,0.3,0.1,0.5c0.1,0.5-2,1.4-1.2,2.7
			c0.1,0.2,0.2,0.1,0.2,0.1s-0.2-0.4,0.1-0.7c0.2-0.2,1.3,0.1,1.9-0.6c0.2,0.7,0.9,0.8,0.9,0.8s0.1,0,0.1-0.1l0.3-1.8
			c0.1,0.2,0.2,0.4,0.4,0.5c0.2,0.1,0.4,0.1,0.5,0.1c0.6,0.9,1.3,0.7,1.4,0.6c0.4,0,0.5-0.1,0.6-0.2c0,0,0.1-0.2-0.5-0.6
			c-0.1,0-0.1-0.1-0.1-0.1s0-0.1,0.1-0.1c0.2,0,0.7,0.1,1.1,0.9c0.6,1.1,1.7,0.8,1.7,0.7c0,0,0,0,0-0.1c0,0,0,0,0-0.1
			c-0.3-0.1-0.3-0.4-0.4-0.6c0.7,0.5,1.3,0.7,1.9,0.7c0.6-0.1,0.9-0.5,1-0.5c0,0,0,0,0-0.1c0,0,0,0-0.1,0c-0.7,0.2-1-0.1-1.4-0.5
			c0.3-0.1,0.8-0.3,1.4-1.1c0.1,0,1.1-0.3,2,0c0.1,0,0.2,0.1,0.3,0.1c1.1,0.4,3.5,1.2,5.1-0.1c1.1-0.8,1.3-1.4,1.3-1.7
			c0-0.1,0-0.1,0-0.2c0.2,0,0.3,0,0.3,0l0,0c0.3,0.1,0.8,0.2,1.2,0.3c0.1,0,0.2,0.1,0.3,0.1c-0.1,0.1-0.3,0.4,0,0.5s1-0.3,1,0.1
			c0,0.4,0.4,0.4,1,0.1c0,0,0.3-0.1,0.3,0.1c0,0.2,0.2,0.3,0.4,0.3c0.1,0,0.3-0.2,0.4-0.4c0.2,0,0.4,0,0.6-0.1
			c0.2,0.2,0.4,0.2,0.5,0.1c0.1-0.1,0.1-0.2,0.1-0.3c0.3-0.1,0.5-0.3,0.6-0.6c0.2-0.4,0.1-0.7,0.1-1c0.1-0.1,0.2-0.2,0.2-0.4
			c0-0.3-0.3-0.2-0.5-0.5c-0.1-0.1-0.2-0.3-0.3-0.4c0-0.1-0.1-0.2-0.1-0.4c0-0.4-0.5-0.6-0.6-0.1c-1.1-0.5-2.6-0.5-3.7-0.2
			c-0.3,0.1-0.6,0.2-0.9,0.2c-0.9,0.3-1.7,0.5-2.1,0.1c0-0.1,0.3-0.8,1.5-1.2c0.9-0.3,3-1.2,3.4-2.5c0.4,0,3.5,0.2,4.2-0.9
			c0.7-0.9,1.2-1.8,0.6-2.6c0.3-0.2,0.5-0.5,0.7-0.7c0.1-0.2,0.1-0.3,0.1-0.5c0-0.1-0.2-0.2-0.3-0.3c0-0.1,0.2-0.2,0.5-0.3
			s0.3-0.2,0.3-0.3C47.3,36.4,47.1,36.1,46.9,36.1L46.9,36.1z M7.5,37.3c0.3,0,0.4,0.1,0.5,0.1c-0.2,0.3-0.2,0.3-0.5,0.2
			c-0.1-0.1-0.2-0.1-0.3-0.1C7.3,37.4,7.4,37.3,7.5,37.3L7.5,37.3z M41.7,38.2L41.7,38.2L41.7,38.2C41.7,38.1,41.7,38.1,41.7,38.2
			L41.7,38.2z M43.8,47.5c0,0.1,0,0.1,0,0.2c0,0,0.2,0.4,0,0.8c-0.1,0.2-0.4,0.4-0.8,0.5c-1.2,0.4-2.9-0.3-3.7-0.6
			c-0.1,0-0.2-0.1-0.3-0.1c-0.8-0.3-1.8-0.4-1.8-0.4h-0.1c-0.6-0.1-0.7-0.3-0.7-0.8c0-0.3,0.2-0.5,0.4-0.6c0.5,0,1.2-0.1,1.8-0.3
			c0.3-0.1,0.6-0.2,0.8-0.2c1-0.3,2.6-0.3,3.6,0.3C43.8,46.7,43.8,47.4,43.8,47.5L43.8,47.5z M36.8,48.4c0,0.1,0,0.5-1.2,1.4
			c-1.4,1.1-3.6,0.4-4.7,0l0,0c-0.1,0-0.2-0.1-0.3-0.1c-1-0.3-1.9-0.1-2.2,0c0-0.3,0-0.7,0-1c-0.1-0.3,0.2-0.6,0.4-0.7
			c0.3,0,0.6-0.1,0.8-0.2c0.1,0,0.4,0,0.6-0.1c-0.1,0.2-0.3,0.5-0.1,0.6c0.2,0.1,0.8,0.2,0.6-0.7c0.2,0,0.4,0,0.8-0.2c0,0,0,0,0.1,0
			c0.3-0.4,0.6-0.4,0.8-0.4s0.4,0,0.5-0.1l0,0c0.6-0.4,1.6-0.7,1.7-0.7l0,0c0.3,0.1,0.8,0.4,1.3,0.2l0,0c0.1,0.1,0.2,0.2,0.3,0.2
			c-0.2,0.2-0.3,0.4-0.3,0.8c0,0.2,0,0.4,0.2,0.6c0.2,0.2,0.4,0.3,0.6,0.4C36.7,48.2,36.7,48.3,36.8,48.4L36.8,48.4z M25.4,51.1
			c-0.1,0.1-0.2,0.2-0.2,0.3s0,0.3,0.1,0.4c-0.3-0.1-0.5-0.3-0.6-0.5c-0.5-0.9-1.2-1.2-1.6-1.1c-0.1,0-0.2,0-0.2,0.1
			c0.1-0.1,0.1-0.2,0.1-0.4c0.2,0,0.8,0.1,1.1-0.2c0,0,0.1,0,0.1,0.1h0.1c0.4,0.2,1.5,0.8,2,1.3c0.1,0.1,0.2,0.2,0.3,0.3
			c0.1,0.2,0.3,0.3,0.5,0.5c-0.4-0.1-0.8-0.3-1.3-0.7C25.7,51.1,25.6,51.1,25.4,51.1L25.4,51.1z M19.2,51.2L19.2,51.2L19.2,51.2
			L19.2,51.2L19.2,51.2z M19.2,51.1L19.2,51.1L19.2,51.1L19.2,51.1L19.2,51.1z M19.8,51.2c0,0,0-0.1-0.1-0.1
			c0.1-0.3,0.2-0.9,0.2-1.2c0-0.1-0.1-0.2-0.1-0.3c-0.2-0.1-0.3,0.1-0.3,0.1s0.2,1.5-0.7,1.8c-0.3,0.1-0.6,0.1-0.9,0.1
			c-0.2,0-0.4,0.1-0.4,0.1c0.1-0.7,1.3-1,1.3-1.7c0-0.6-0.6-1.2-0.7-1.3c0,0-0.8-0.8-0.9-1.6c0,0,0,0,0-0.1s0-0.1,0-0.2
			c0-0.1,0-0.2,0-0.3c0.2-0.8,0.8-1.7,1.8-1.5c0.1,0.1,0.3,0.1,0.5,0.3c0.1,0.2,0.2,0.3,0.2,0.4c0.1,0.4-0.5,0.5-0.5,0.5
			s0-0.8-0.4-0.8s-0.8,0.4-0.9,0.8c-0.1,0.4,0.1,0.8,0.6,1c0.2,0.1,0.3,0.1,0.4,0.2c0.2,0.1,0.4,0.2,0.7,0.2c0,0,0,0-0.1,0h-0.1
			c0,0,0,0.1,0,0.2c0.1,0.1,0.3,0.2,0.7,0.3c0.7,0.1,1.5,0.3,1.5,1c0,0.6-0.3,0.8-0.4,0.9c-0.1-0.3-0.4-1-1.4-1.4
			c-1.2-0.4-1.7-0.9-1.9-1.7l0,0c0,0-0.2-0.1-0.3,0c-0.1,0.1-0.1,0.2-0.1,0.3c0,0,0.2,1,1.1,1.4c0.2,0.1,0.3,0.2,0.5,0.2
			c0.6,0.3,1.2,0.5,1.5,1c-0.1,0.1-0.2,0.2-0.2,0.3l-0.2,1.7C19.9,51.6,19.8,51.5,19.8,51.2L19.8,51.2z M15,50.6L15,50.6
			c-0.1-0.1-0.1-0.2-0.1-0.2s-0.7-0.5-1.4,0c-0.1,0.1-0.1,0.1-0.2,0.1v-0.1l0,0c-0.3-0.5-0.7-0.5-1.2-0.6l0,0c0,0,0,0-0.1,0
			c0-0.2,0-0.3-0.1-0.5c-0.1-0.1-0.2-0.2-0.4-0.5c-0.3-0.6,0.2-1.5,0.4-1.7c0.2-0.3,1.2-0.9,2.2-0.9c0.8,0,2.2,0.5,2.8,0.7
			c0.1,1.1,1,2,1.1,2.1c0,0,0.1,0.1,0.2,0.2c-0.5,0.3-1.3,0.8-1.4,0.9c-0.4,0.2-0.6,0.2-0.8,0.2c-0.2,0-0.4,0-0.6,0.1
			C15.1,50.4,15.1,50.5,15,50.6C15.1,50.6,15,50.6,15,50.6L15,50.6z M7.3,48.9c-1.1,0.3-2.7-0.4-2.7-0.4c-0.1-0.1-0.2,0-0.3,0
			c-0.1,0.1-0.2,0.2-0.2,0.3s0,0.3-0.2,0.4c-0.2,0.1-0.5,0-0.8-0.4c-0.2-0.2-0.2-0.4-0.2-0.5S3,48.1,3.4,48c0.2-0.1,0.4-0.2,0.4-0.4
			c0.1-0.3-0.1-0.5-0.3-0.6l-0.1-0.1c0-0.1,0.1-0.2,0.2-0.2c0.1-0.1,0.2-0.3,0.1-0.4c-0.1-0.2-0.1-0.3-0.1-0.4
			C4.2,45.8,4.8,45,4.9,45C5,44.9,5,44.8,5,44.7C4.8,44.1,3,43,3,43c-0.4-0.2-0.6-0.5-0.8-0.7C2.1,42.1,2,42,1.8,41.8
			c-0.2-0.1-0.2-1-0.1-1.8c0.1-0.4,0.2-0.7,0.4-0.8c0.3-0.2,0.9-0.1,1.1,0c0.1,0,0.2,0,0.3,0h0.1c0.1,0,0.1,0,0.1,0l0,0
			c0.1,0.1,0.1,0.1,0.1,0.2c0,0.1,0.1,0.2,0.1,0.3c0.1,0.2,0.3,0.5,0.6,0.9C4.8,40.8,5,41,5.1,41.2c0.2,0.3,0.6,1,1,2
			c0.1,0.1,0,0.7-0.1,1.3c0,0.1,0,0.1,0,0.2c-0.1,0.2-0.1,0.5,0,0.6s0.3,0,0.5-0.4c0.1,0,0.1-0.1,0.2-0.1l0,0c0,0,0.1-0.1,1,0.1l0,0
			C8,45,8.6,45.2,8.8,45.4c0.1,0.1,0.2,0.2,0.4,0.4c0.4,0.4,0.9,0.9,1.3,1.2c0.3,0.2,0.6,0.3,0.8,0.4c-0.2,0.3-0.3,0.8-0.3,1.2
			c-0.8,0-1.3,0.1-1.6,0.3C9.2,49,8.2,49.1,7.5,49C7.4,48.9,7.4,48.9,7.3,48.9L7.3,48.9z M2.4,38.6c-0.2,0-0.3,0.1-0.5,0.2
			c-0.1,0-0.1,0.1-0.2,0.2c-0.2-0.2-0.4-0.3-0.5-0.5l0,0c0.1-0.1,0.6-0.4,0.9-0.4C2.1,38.1,2.3,38.3,2.4,38.6L2.4,38.6z M4.1,38.2
			c0.9-0.8,1.2-0.8,1.3-0.8c0,0,0,0.2-0.3,0.7c-0.2,0.3-0.3,0.5-0.3,0.8c-0.2,0.1-0.4,0.2-0.5,0.2c0-0.1-0.1-0.1-0.1-0.2
			C4,38.8,4,38.7,3.9,38.7C3.9,38.6,3.9,38.4,4.1,38.2L4.1,38.2z M11,39.8L11,39.8c0.2-0.3,0.4-0.5,0.5-0.6c0,0,0.1,0,0.1,0.1
			c0.2,0.1,0.3,0.3,0.4,0.5c0.3,0.3,0.6,0.7,1,0.8c0.1,0,0.4,0.1,0.8,1.1c0.1,0.2,0.2,0.3,0.4,0.3c0,0.1,0.1,0.2,0.2,0.3
			c0.4,0.4,0.9,0.4,1.2,0.5c0.3,0,0.5,0.1,0.7,0.3c0.5,0.5,1,0.9,1.5,1c0.2,0.1,0.5,0.3,0.7,0.5c-0.8,0.1-1.5,0.8-1.8,1.9l0,0
			c-0.3-0.1-0.7-0.3-1.2-0.4c0-0.1,0-0.2-0.1-0.4c-0.1-0.3-0.6-0.7-0.5-0.4c0,0,0,0.2,0,0.4c0,0.1,0,0.2,0,0.3
			c-0.3-0.1-0.7-0.1-0.9-0.2c0-0.1,0-0.2-0.1-0.3c-0.2-0.2-0.2-0.2-0.2-0.1c0,0-0.1,0.2,0,0.3c-0.4,0-0.8,0.2-1.2,0.3
			c0-0.1,0-0.3,0-0.4c-0.1-0.2-0.1-0.4-0.2-0.3c0,0-0.2,0.2-0.2,0.5c0,0.2,0.1,0.3,0.2,0.3c-0.4,0.2-0.8,0.5-0.9,0.7l0,0
			c-0.2,0-0.5-0.1-0.7-0.3c-0.3-0.2-0.6-0.5-0.9-0.8c0-0.2,0.1-0.6,0-0.7c-0.1-0.1-0.3,0-0.4,0.3C9.3,45.1,9.1,45,9,44.9
			c-0.1,0-0.1-0.1-0.2-0.1c0-0.2,0-0.4-0.1-0.5c-0.1,0-0.2,0.1-0.2,0.3c-0.3-0.1-0.6-0.2-0.8-0.3l0,0H7.6c0.1-0.2,0.1-0.4,0-0.4
			s-0.3,0.2-0.4,0.4c-0.3,0-0.6,0-0.8,0.1c0.1-0.3,0.1-0.7,0.1-1.1l0,0c0.6-0.4,2.4-1.9,2.8-2.2c0.1-0.1,0.3-0.2,0.4-0.3
			C10.3,40.5,10.7,40.1,11,39.8L11,39.8z M14.7,41.7C14.7,41.7,14.8,41.7,14.7,41.7L14.7,41.7c0.2-0.4,0.6-0.7,0.9-1
			c0.1-0.1,0.2-0.1,0.2-0.1l0,0c0.2,0.2,0.4,0.2,0.5,0.2s0.2-0.1,0.3-0.1c0.4-0.3,0.8-0.2,0.8-0.2h0.1c0.7,0,0.9,0.4,1.3,1
			c0.1,0.1,0.2,0.3,0.3,0.4c0.4,0.6,1.4,1.1,2.3,1.4l0,0c0,0-0.2,0.1,0,0.3c0.1,0.2,0.5,0.7,0.6,0.6c0.1-0.1-0.1-0.6-0.2-0.7
			c0.1,0,0.2,0.1,0.3,0.1c0.2,0.1,0.4,0.1,0.5,0.2c1,0.4,1.8,0.5,2.8-0.1c0.7-0.4,1-0.2,1.2,0c0.2,0.3,0.6,0.5,1,0.7
			c0.2,0.1,0.4,0.2,0.6,0.3s0.2,0.2,0.2,0.2l0,0l0,0l0,0l0,0l0,0c0,0-0.2,0.7-0.5,1.6C27.8,47,27.5,47,27.3,47
			c-1.6-0.7-2.6,0.1-3.2,0.6c-0.2,0.2-0.5,0.4-0.6,0.4s-0.2,0-0.3-0.1c0,0,0-0.1-0.1-0.1c-0.1-0.1-0.1-0.2-0.2-0.2
			c0-0.1-0.1-0.1-0.1-0.2c-0.1-0.2-0.2-0.5-0.4-0.7c-0.4-0.6-1.8-1.4-2.6-1.8c-0.1-0.2-0.3-0.3-0.6-0.4c-0.3-0.3-0.8-0.8-1.3-0.9
			c-0.4-0.2-0.8-0.5-1.3-1c-0.2-0.2-0.4-0.3-0.5-0.3c0-0.2-0.1-0.6-0.2-0.6c-0.1,0-0.3,0.3-0.3,0.5c-0.3,0-0.6-0.1-0.9-0.3v-0.1
			C14.7,41.8,14.7,41.8,14.7,41.7L14.7,41.7L14.7,41.7z M32.1,41.5L32.1,41.5L32.1,41.5c0,0.1,0,0.3,0.2,0.3c0.3,0,0.6-0.2,0.3-0.6
			c0.1-0.2,0.4-0.6,0.4-0.6c0-0.1,0.1-0.1,0-0.2v-0.1c0,0,0.1,0,0.2,0c0.1,0.1,0.3,0,0.4-0.1c0.1-0.1,0.2-0.1,0.2-0.1l0.1,0.1
			c0.1,0.1,0.2,0.2,0.3,0.2l0,0c0,0,0,0.2-0.1,0.5c0,0.2-0.1,0.4-0.1,0.6c-0.1,0.1-0.4,0.2-0.6,0.3c-0.1,0-0.2,0.2-0.3,0.3
			c0,0.1,0,0.3,0.1,0.3c0,0.1-0.1,0.3-0.1,0.4C33,43.1,32.8,43.5,33,44c0,0.1,0,0.1-0.2,0.2c-0.2,0.2-0.5,0.4-0.7,0.8
			c-0.3,0.4-1,0.7-1.9,1c-0.8,0.2-1.1,1.2-1.1,1.2c0,0.1,0,0.2,0,0.2c-0.3,0.1-1.2,0.3-1.3-0.2c0.2-0.1,0.4-0.3,0.5-0.7
			c0.2-0.8,0.4-1.5,0.4-1.6c0,0,0-0.1,0-0.2c0.1-0.2,0.2-0.5,0.4-1.2c0.2-0.8,0.7-1.1,1.5-1.6l0.3-0.2
			C31.7,41.4,32.1,41.5,32.1,41.5L32.1,41.5L32.1,41.5z M20.1,45.7C20.1,45.6,20.1,45.6,20.1,45.7c0.7,0.3,1.6,0.9,1.9,1.3l0,0
			c-0.2-0.1-0.5-0.1-0.9,0c-1.1,0.3-1.5,0.2-2.1-0.1c-0.1-0.1-0.3-0.1-0.4-0.2c-0.3-0.1-0.4-0.3-0.3-0.5c0.1-0.3,0.3-0.5,0.4-0.4
			c0,0,0.3,0.1,0.2,0.6c-0.1,0.2,0.6,0.2,0.9,0C20,46.3,20.1,46,20.1,45.7L20.1,45.7z M5.5,41c-0.1-0.2-0.3-0.5-0.5-0.7
			c-0.2-0.3-0.5-0.6-0.6-0.8C5.2,39.1,6,38.9,6.3,39l0,0c0.3,0.2,0.5,0.3,0.5,0.4C6.8,39.6,6.7,40,5.5,41L5.5,41L5.5,41z M21.3,47.4
			c0.7-0.2,1,0.1,1.3,0.5c0.1,0.2,0.2,0.3,0.3,0.4c0.2,0.3,0.5,0.6,0.9,0.7c0.2,0,0.3,0.1,0.3,0.1s0,0,0,0.1l0,0c0,0,0,0,0,0.1
			c-0.2,0.1-0.8,0.3-1.5,0.1c0,0,0,0-0.1,0c0,0-0.2,0.1-0.1,0.4c0,0.1,0,0.2,0,0.2c-0.1,0.1-0.2,0.1-0.4,0.1c-0.1,0-0.2,0-0.2,0
			c0.2-0.2,0.3-0.5,0.3-1c0-1-0.6-1.4-1.7-1.5C20.6,47.6,20.9,47.5,21.3,47.4L21.3,47.4z M6.5,42.9c-0.2-0.5-0.5-1-0.7-1.5
			c0.5-0.4,0.8-0.8,1.1-1.1c0.2,0,0.6,0,0.9-0.5c0.1-0.1,0.1-0.2,0.1-0.3c0.2,0.3,0.5,0.7,0.6,1c0.1,0.2,0.2,0.3,0.4,0.5
			C8.2,41.6,7,42.5,6.5,42.9L6.5,42.9z M7.3,39.7c-0.1,0.1-0.1,0.2-0.2,0.2c0.1-0.2,0.1-0.3,0.1-0.5c0-0.4-0.4-0.6-0.7-0.8l0,0
			c-0.3-0.2-0.8-0.1-1.2,0.1c0-0.1,0.1-0.3,0.2-0.4c0-0.1,0.1-0.1,0.1-0.2c0.1,0,0.1,0,0.2-0.1c1-0.4,1.2-0.2,1.7,0.3
			C7.7,38.5,7.6,39,7.3,39.7L7.3,39.7z M22.7,50.5C22.7,50.6,22.7,50.6,22.7,50.5c0,0.2-0.1,0.4,0.3,0.6l0,0c-0.1,0-0.5,0.1-0.9-0.5
			C22.2,50.7,22.5,50.7,22.7,50.5L22.7,50.5z M26.9,50.8L26.9,50.8C26.8,50.8,26.8,50.8,26.9,50.8c0,0-0.1,0-0.2-0.1
			c-0.3-0.3-0.9-0.6-1.3-0.8c0-0.1,0.2-0.2,0.1-0.4c-0.1-0.1-0.4,0-0.5,0c-0.2-0.1-0.4-0.2-0.5-0.2l0,0l0,0c0-0.1,0.1-0.3,0-0.4
			c-0.1-0.2-0.3-0.2-0.6-0.3c-0.1,0-0.1,0-0.2,0c0.2-0.1,0.5-0.2,0.7-0.5c0.7-0.5,1.5-1.1,2.9-0.5l0,0c0,0,0.1,0,0.2,0
			c0.1,0.2,0.2,0.5,0.7,0.5C28,48.2,28,48.5,28,48.9c0,0.3,0,0.7,0,1C27.3,50.9,26.9,50.8,26.9,50.8L26.9,50.8z M35.9,45.7
			c-0.2,0-0.7,0.1-1-0.1c0.2-2.2,0.4-2.5,0.7-2.8c0.1-0.2,0.3-0.4,0.5-0.8c0.4-1,1.2-1.2,2.4-1.5h0.1c0.8-0.2,1.3,0.1,1.5,0.3
			c-0.1,0.2-0.3,0.6-0.2,1c0.1,0.3,0.4,0.5,0.8,0.6c-0.4,0.7-1.5,1.4-3,1.9C36.4,44.7,36,45.4,35.9,45.7L35.9,45.7z M40.9,41.9
			c-0.3-0.1-0.5-0.2-0.5-0.4c-0.1-0.2,0.1-0.5,0.1-0.6c1.1,0.2,2.1-0.8,2.7-1.5c0.1-0.1,0.2-0.3,0.3-0.4c0.6-0.6,1.2-1,2-0.4
			s0.5,1.1-0.3,2.3c-0.5,0.6-2.6,0.8-3.9,0.7C41.1,41.7,40.9,41.8,40.9,41.9L40.9,41.9z M41.8,39c0.4-0.5,0.9-0.6,1-0.6
			c0,0.1,0,0.3,0,0.6c0,0.1,0,0.1,0,0.2c-0.1,0.1-0.2,0.2-0.3,0.3C42,39.3,41.8,39.1,41.8,39L41.8,39L41.8,39z M45.8,38.3
			c-0.2-0.2-0.4-0.3-0.6-0.3c0-0.4,0-0.7,0.1-0.9c0.2,0.1,0.4,0.1,0.6,0.2c0.1,0,0.6,0.2,0.6,0.2v0.1C46.3,37.9,46.1,38.1,45.8,38.3
			L45.8,38.3L45.8,38.3z M46.3,36.5c-0.1-0.2-0.1-0.3-0.1-0.4c0.1,0,0.1,0,0.2,0.1c0.1,0.1,0.2,0.2,0.4,0.2l0,0
			c-0.2,0.1-0.3,0.1-0.4,0.2C46.3,36.6,46.3,36.6,46.3,36.5L46.3,36.5z M1.1,37.5l0.1-0.1c0,0,0.1,0,0.1,0.1l0.1,0.1
			c0,0.1-0.1,0.2-0.2,0.2H1.1v-0.1C1.1,37.5,1.1,37.5,1.1,37.5L1.1,37.5z"/>
		<path class="st0" d="M9.5,41.4c-0.2,0.1-0.6,0.6-0.3,0.7c0,0,0.6-0.3,0.6-0.5C9.9,41.5,9.8,41.4,9.5,41.4L9.5,41.4z"/>
		<path class="st0" d="M10,42.3c0.2,0.1,0.4-0.1,0.5-0.3s0-0.5-0.2-0.3C10.3,41.7,9.8,42.2,10,42.3L10,42.3z"/>
		<path class="st0" d="M11,42.6c0.2-0.2,0.3-0.5,0.2-0.8c-0.1-0.2-0.2-0.1-0.2-0.1s-0.4,0.5-0.4,0.7C10.7,42.6,10.8,42.9,11,42.6
			L11,42.6z"/>
		<path class="st0" d="M12.1,42.9c0.2-0.1,0.2-0.3,0.1-0.6C12.1,42,12.1,41.9,12,42c0,0-0.1,0.2-0.1,0.4
			C11.8,42.6,11.9,42.9,12.1,42.9L12.1,42.9z"/>
		<path class="st0" d="M18.2,10.4c0,0-0.2,0.1-0.2,0.4c0,0.3,0.1,0.5,0.5,0.5c0.4-0.1,0.1-0.8,0-0.9C18.5,10.3,18.2,10.4,18.2,10.4
			L18.2,10.4z M18.4,11c0,0,0-0.1,0-0.2c0-0.1,0-0.1,0-0.1h0.1c0,0.1,0.1,0.2,0.1,0.3C18.4,11,18.4,11,18.4,11L18.4,11z"/>
		<path class="st0" d="M18.2,11.4c0,0-0.2,0.1-0.1,0.4c0,0.2,0,0.5,0.3,0.4c0.3,0,0.4-0.3,0.3-0.5C18.8,11.4,18.4,11.3,18.2,11.4
			L18.2,11.4z M18.5,11.9L18.5,11.9C18.4,11.9,18.4,11.9,18.5,11.9C18.4,11.9,18.4,11.9,18.5,11.9c-0.1-0.1-0.1-0.1-0.1-0.2v-0.1
			c0,0,0,0,0.1,0l0,0C18.5,11.9,18.5,11.9,18.5,11.9L18.5,11.9z"/>
		<path class="st0" d="M18.2,12.4c0,0-0.4,0.4-0.1,0.6c0.3,0.1,0.5,0.2,0.6-0.2C18.9,12.4,18.6,12.2,18.2,12.4L18.2,12.4z
			 M18.5,12.7C18.4,12.7,18.4,12.8,18.5,12.7C18.4,12.8,18.4,12.8,18.5,12.7C18.4,12.7,18.4,12.7,18.5,12.7
			C18.5,12.6,18.5,12.6,18.5,12.7C18.5,12.6,18.5,12.7,18.5,12.7L18.5,12.7z"/>
		<path class="st0" d="M18.9,10c0,0-0.2,0-0.2,0.3c0.1,0.3,0.2,0.7,0.5,0.5c0.3-0.1,0.3-0.4,0.1-0.7C19.3,9.8,19.1,9.9,18.9,10
			L18.9,10z M19.1,10.5L19.1,10.5c0,0-0.1-0.1-0.1-0.3l0,0l0,0l0,0C19.1,10.3,19.2,10.5,19.1,10.5C19.2,10.5,19.2,10.5,19.1,10.5
			L19.1,10.5z"/>
		<path class="st0" d="M18.9,11.2c0,0-0.1,0.6,0.2,0.6c0.3,0,0.5-0.1,0.5-0.5C19.6,10.8,19,10.7,18.9,11.2L18.9,11.2z M19.3,11.5
			c0,0,0,0-0.1,0c0-0.1,0-0.2,0-0.2l0,0c0-0.1,0-0.1,0-0.1l0,0c0,0,0.1,0.1,0.1,0.2V11.5L19.3,11.5z"/>
		<path class="st0" d="M19.2,12c0,0-0.3,0.1-0.3,0.3s-0.1,0.6,0.2,0.6c0.3-0.1,0.6-0.1,0.6-0.6C19.6,11.8,19.4,11.9,19.2,12L19.2,12
			z M19.4,12.5c0,0-0.1,0.1-0.2,0.1c0,0,0,0,0-0.1s0-0.1,0-0.2c0,0,0,0,0.1,0h0.1C19.4,12.3,19.4,12.3,19.4,12.5
			C19.4,12.4,19.4,12.4,19.4,12.5L19.4,12.5z"/>
		<path class="st0" d="M19.6,9.3c0,0-0.3,0.2-0.2,0.6c0.1,0.4,0.4,0.4,0.5,0.3c0.2-0.1,0.3-0.2,0.2-0.6C20,9.2,19.8,9,19.6,9.3
			L19.6,9.3z M19.8,9.5L19.8,9.5L19.8,9.5L19.8,9.5L19.8,9.5z M19.9,9.9C19.8,9.9,19.8,9.9,19.9,9.9C19.8,9.9,19.8,9.9,19.9,9.9
			c-0.1,0-0.1,0-0.1-0.1c0-0.2,0-0.2,0-0.3c0,0,0,0.1,0.1,0.2C19.9,9.8,19.9,9.9,19.9,9.9L19.9,9.9z"/>
		<path class="st0" d="M19.7,10.7c0.1,0.3,0,0.7,0.3,0.5c0.4-0.2,0.4-0.3,0.3-0.7C20.2,10,19.6,10.4,19.7,10.7L19.7,10.7z
			 M20.1,10.9C20.1,10.9,20,10.9,20.1,10.9c-0.1,0-0.1-0.1-0.1-0.2c0,0,0,0,0.1-0.1C20.1,10.8,20.1,10.8,20.1,10.9L20.1,10.9z"/>
		<path class="st0" d="M19.8,11.7c0,0.4,0,0.7,0.3,0.6c0.3-0.1,0.4-0.3,0.4-0.7C20.4,11.1,19.8,11.4,19.8,11.7L19.8,11.7z M20.1,12
			c0-0.1,0-0.2,0-0.3c0,0,0,0,0-0.1h0.1c0,0,0,0,0,0.1C20.2,11.9,20.2,12,20.1,12L20.1,12z"/>
		<path class="st0" d="M28.8,13.5c-0.1,0-0.2,0.1-0.3,0.2l-0.1,0.1c-0.2,0.2-0.7,0.7-0.8,0.7c0,0,0,0,0,0.1c0,0,0,0.1,0.1,0.1h1.9
			l0,0c0,0,0,0,0-0.1c-0.2-0.2-0.6-0.8-0.6-0.9C28.9,13.6,28.9,13.5,28.8,13.5L28.8,13.5z M28.6,14.3c0.1-0.1,0.1-0.1,0.1-0.1l0,0
			c0,0,0.1,0.1,0.1,0.2L28.6,14.3L28.6,14.3z"/>
		<path class="st0" d="M2.2,32.6c1.2,3.8,2,4.6,1.7,2.4c-0.3-2.2-0.7-3.9-0.5-4.3s0.1-0.9,0-1.5s0.2-0.7-0.2-2.1s0.1-1,0-1.7
			c0-0.7-0.3-0.7-0.2-1.5c0.1-0.9,0.1-2.1,0.1-2.1s-0.7,0-0.8,0.5s-0.1,6.3,0.3,8.4s-0.6,0-0.8-2.5s-0.1-5.4-0.1-5.4
			s0.1-0.7-0.7-0.9C1,21.9,1,28.8,2.2,32.6L2.2,32.6z"/>
		<path class="st0" d="M5.6,30.9c0-1.4-0.5-2.1-0.3-2.9c0.2-0.9,0.4-1.2-0.1-1.9c-0.4-0.7-0.3-0.7-0.1-1.5c0.1-0.9-0.1-2.2,0-2.9
			c0,0-0.4-0.3-0.5,0.1S4.7,27,5,28.9c0.3,1.9-0.2,1.1-0.4-0.5c-0.1-1.1-0.4-6.5-0.4-6.5s-0.5-0.4-0.7,0c0,0-0.1,6.5,1.1,8.9
			S5.6,32.3,5.6,30.9L5.6,30.9z"/>
		<path class="st0" d="M7.2,29.4C7,28.6,7,28.5,7.1,27.8s-0.2-1.2-0.4-2.1c-0.1-0.9-0.2-3.1-0.2-4.4c0,0-0.2-0.2-0.5,0
			c0,0,0,3.2,0.2,4.4c0.2,1.2-0.5-0.1-0.5-2.1s0-2.5-0.4-2.1c0,0-0.1,6.3,1.6,8.2C7,29.7,7.4,30.1,7.2,29.4L7.2,29.4z"/>
		<path class="st0" d="M6.9,20.9c0,0-0.2,5.8,1.4,7.3c1.6,1.6,0.4,0.1,0.4-1.7c0-2.1-0.5-1.7-0.5-2.2c0,0-0.1-2.2-0.2-2.8
			c-0.1-0.6-0.6-0.9-0.4,0.1s0.5,3.8,0.1,3.8c-0.4,0-0.3-1.7-0.4-2.8C7.3,21.5,7.4,20.9,6.9,20.9L6.9,20.9z"/>
		<path class="st0" d="M9.1,20.7c0,0-0.3-0.2-0.2,0.8s0.3,2-0.1,2c-0.4,0-0.2-1.3-0.3-1.8S8.3,20.6,8.1,21c0,0,0.1,3.9,1.1,5.5
			c1.1,1.6,1.1,0.4,0.6-0.6c-0.5-0.9-0.6-2.1-0.6-3C9.4,21.9,9.1,20.7,9.1,20.7L9.1,20.7z"/>
		<path class="st0" d="M10.2,24.4c0.7,0.9,0.5,0.2,0.3-0.8s-0.2-2.5-0.1-3.2c0,0-0.2-0.2-0.4,0c0,0,0.2,1.8,0,1.7
			c-0.2,0-0.2-0.7-0.3-1.3c-0.1-0.6-0.1-0.4-0.3-0.3C9.4,20.5,9.5,23.5,10.2,24.4L10.2,24.4z"/>
		<path class="st0" d="M1.5,15.9c0,0-0.2,1.2-0.3,3C1.1,20.7,1.3,21,1.9,21c0.9,0,1.1-0.6,1.2-2c0.1-1.6,0.2-2.4,0.2-2.6
			s-0.5-0.9-0.6,0.1s0,3.9-0.6,3.8s-0.5-1.6-0.3-2.7c0.1-1,0.4-2.3,0-2.4C1.5,15.3,1.5,15.9,1.5,15.9L1.5,15.9z"/>
		<path class="st0" d="M3.7,16.5c0,0-0.8,4.4,0,4.4c1.2,0,1-1.2,1.1-2.6c0.1-1.4,0.2-1.8,0-1.8c-0.3,0-0.4,1.3-0.4,2s0,1.7-0.3,1.6
			S3.8,19,3.9,18.2C4.1,16.3,4,16,3.7,16.5L3.7,16.5z"/>
		<path class="st0" d="M5.5,17c0,0-0.1-0.2-0.2-0.2c0,0-0.1,1.5-0.2,2.4c0,0.9,0.1,1.3,0.7,1.3s0.5-1.1,0.6-1.9c0-0.9,0.2-1.6,0-1.7
			S6.1,17.5,6.1,18c0,0.6-0.1,1.8-0.3,1.8c-0.2,0-0.4-0.3-0.3-1.2C5.4,17.8,5.5,17,5.5,17L5.5,17z"/>
		<path class="st0" d="M22.7,20.6c0.2-0.1,0.2-0.2,0.3,0c0.2,0.2,0.2,0.2,0.4,0.2c0.2,0,0.5,0.1,0.6,0.2s0.3,0.1,0.3,0.2
			s-0.2,0.2,0.3,0.3c0.5,0.1,0.6,0.1,0.8,0c0.1-0.2,0.3-0.2,0-0.4c-0.4-0.2-0.5-0.2-0.8-0.5s-0.3-0.3-0.5-0.4s-0.4-0.2-0.8-0.1
			c-0.3,0.1-0.7,0.1-0.7,0.1s-0.1,0.1,0,0.2C22.5,20.5,22.4,20.6,22.7,20.6L22.7,20.6z"/>
		<path class="st0" d="M24.8,21.8c-0.2,0-0.3-0.1-0.4-0.1c0,0-0.2,0-0.1,0.2s0.2,0.2,0.4,0.2C24.8,22,24.9,21.8,24.8,21.8L24.8,21.8
			z"/>
		<path class="st0" d="M25.9,21.9c0,0,0.3,0,0.5-0.1s0.3,0,0.5,0.1c0.2,0,0.3,0,0.4-0.2s0-0.3-0.2-0.4c-0.1-0.1-0.3-0.1-0.5,0
			s-0.1,0.1-0.3,0.2C26.1,21.4,25.7,21.9,25.9,21.9L25.9,21.9z"/>
		<path class="st0" d="M27.8,22c0.1,0,0.3,0,0.3,0c0.1,0,0.2,0,0.1-0.2s-0.1-0.3-0.3-0.2c-0.2,0-0.2,0.1-0.2,0.1S27.7,22,27.8,22
			L27.8,22z"/>
		<path class="st0" d="M28.7,24.9c0,0,0.2,0.1,0.2,0c0-0.2,0-0.4-0.3-0.3C28.6,24.6,28.5,24.7,28.7,24.9
			C28.7,24.8,28.7,24.8,28.7,24.9L28.7,24.9z"/>
		<path class="st0" d="M9.6,17.9c-0.4,2.7,0.7,1.7,0.7,1.7c0-0.7,0.2-1.6,0.2-1.6c-0.1-0.1-0.2-0.1-0.2,0.3c0,0.3,0,1.1-0.3,1.1
			c-0.3-0.1,0-1.5-0.2-1.5C9.7,17.8,9.6,17.9,9.6,17.9L9.6,17.9z"/>
		<path class="st0" d="M8.3,17.5c0,0-0.2,1.3-0.2,1.7c0,0.4,0.2,0.7,0.7,0.7c0.5-0.1,0.4-0.7,0.4-1.3c0-0.6,0.1-0.9,0.1-0.9
			c-0.3-0.1-0.2,0-0.3,0.7s-0.1,1-0.4,1.1c-0.4,0-0.2-1.4-0.1-1.7C8.6,17.5,8.3,17.5,8.3,17.5L8.3,17.5z"/>
		<path class="st0" d="M6.9,17.2c0,0-0.2,1.3-0.2,2.3s1.1,0.7,1.2,0c0-0.7,0.3-2.1,0.3-2.1c-0.4-0.3-0.4,0.5-0.5,1.1
			c-0.1,0.7-0.1,1.1-0.4,1c-0.4-0.1-0.1-1.9-0.1-2.2C7.1,17.1,6.9,17.2,6.9,17.2L6.9,17.2z"/>
		<path class="st0" d="M6.4,40.9c-0.2,0.3-0.1,0.4,0.1,0.4s0.3-0.5,0.3-0.5C6.7,40.6,6.6,40.6,6.4,40.9L6.4,40.9z"/>
		<path class="st0" d="M7.2,40.8c0,0-0.3,0-0.2,0.4c0,0.4,0.3,0.4,0.4,0.4c0.1-0.1,0.1-0.4,0.1-0.5C7.4,40.9,7.3,40.6,7.2,40.8
			L7.2,40.8z"/>
		<path class="st0" d="M7.7,40.7c0,0,0,0.3,0.1,0.5c0.2,0.2,0.4,0.3,0.3-0.1C8.1,40.6,8,40.5,7.7,40.7L7.7,40.7z"/>
		<path class="st0" d="M3.5,40c-0.1-0.1-0.2-0.1-0.3,0.1c0,0-0.1,0.2,0.2,0.2C3.6,40.3,3.6,40,3.5,40L3.5,40z"/>
		<path class="st0" d="M2.4,40.6L2.4,40.6c0,0,0,0.2,0.1,0.2s0.1-0.1,0.2-0.2C2.7,40.6,2.5,40.4,2.4,40.6L2.4,40.6z"/>
		<path class="st0" d="M2.8,41.9c0,0-0.2,0.2,0,0.3C3,42.4,3.1,42.3,3,42.1C3,41.8,2.9,41.9,2.8,41.9L2.8,41.9z"/>
		<path class="st0" d="M4,41.9c0,0,0.1,0.1,0.2,0c0-0.1,0-0.2,0-0.2S3.9,41.7,4,41.9L4,41.9z"/>
		<path class="st0" d="M4.2,42.9c0,0-0.1,0.2,0.1,0.3c0.2,0,0.2-0.2,0.1-0.3C4.3,42.8,4.2,42.9,4.2,42.9L4.2,42.9z"/>
		<path class="st0" d="M5.2,43.2h0.2c0,0,0-0.1,0-0.2C5.3,43,5.1,43,5.2,43.2L5.2,43.2z"/>
		<path class="st0" d="M5,46.9c0,0,0.4-0.9-0.2-0.7c0,0-0.3,0.2-0.2,0.6c0,0-0.3-0.1-0.1,0.3c0.2,0.4,0.3,0.7,0.6,0.3
			C5.6,47.1,5,46.9,5,46.9L5,46.9z"/>
		<path class="st0" d="M6.3,47.5c0,0-0.3,0.2-0.2,0.4c0.1,0.1,0.5,0.2,0.5,0C6.6,47.7,6.4,47.4,6.3,47.5L6.3,47.5z"/>
		<path class="st0" d="M7.6,47.7c0,0-0.3,0.1-0.2,0.3c0.2,0.2,0.5,0.2,0.5,0.2C7.9,48.1,8.1,47.6,7.6,47.7L7.6,47.7z"/>
		<path class="st0" d="M6.6,46.2c0,0-0.4,0.2-0.2,0.4c0.2,0.1,0.4-0.1,0.4-0.1S6.9,46.2,6.6,46.2L6.6,46.2z"/>
		<path class="st0" d="M7.8,45.8c0.3,0.1,0.4-0.1,0.4-0.1S8,45.2,7.7,45.4C7.7,45.4,7.5,45.7,7.8,45.8L7.8,45.8z"/>
		<path class="st0" d="M9.4,47.5c0.3,0.1,0.4,0,0.4,0s0.2-0.3-0.5-0.4C9.2,47.1,9.1,47.4,9.4,47.5L9.4,47.5z"/>
		<path class="st0" d="M13.2,47.4c0-0.3-0.3-0.2-0.3-0.2s-0.2,0.1-0.2,0.2c0,0.1,0.2,0.2,0.2,0.2S13.2,47.6,13.2,47.4L13.2,47.4z"/>
		<path class="st0" d="M13.2,48.9C13,48.8,12.9,49,12.9,49s-0.1,0.3,0.2,0.3s0.3-0.2,0.3-0.2S13.5,49,13.2,48.9L13.2,48.9z"/>
		<path class="st0" d="M14.9,48.4c0-0.2-0.2-0.3-0.4-0.3c0,0-0.3,0-0.4,0.3c-0.1,0.3,0.5,0.3,0.5,0.3S14.9,48.6,14.9,48.4L14.9,48.4
			z"/>
		<path class="st0" d="M14.5,49.4c0,0,0,0.2,0.3,0.2s0.3-0.2,0.3-0.2S14.6,49.2,14.5,49.4L14.5,49.4z"/>
		<path class="st0" d="M16.3,48.4c0.3,0,0.2-0.2,0.2-0.2s-0.1-0.1-0.3-0.1c-0.2,0-0.3,0-0.3,0.2C15.9,48.2,15.9,48.5,16.3,48.4
			L16.3,48.4z"/>
		<path class="st0" d="M13.1,43c0.2,0,0-0.6,0-0.6S13,42,12.9,42c0,0-0.3,0-0.2,0.5S12.9,43,13.1,43L13.1,43z"/>
		<path class="st0" d="M13.8,42.7c0.1,0.2,0.2,0.2,0.4,0.1c0.2-0.1-0.3-0.8-0.3-0.8s-0.4-0.2-0.4,0C13.5,42,13.7,42.5,13.8,42.7
			L13.8,42.7z"/>
		<path class="st0" d="M8.1,42.6c-0.1,0-0.6,0.3-0.4,0.4c0,0,0.3,0.1,0.4-0.1C8.3,42.7,8.3,42.6,8.1,42.6L8.1,42.6z"/>
		<path class="st0" d="M8.9,42.9c0,0-0.6,0.6-0.3,0.7c0.2,0.1,0.4-0.2,0.5-0.4C9.1,42.9,9,42.8,8.9,42.9L8.9,42.9z"/>
		<path class="st0" d="M9.5,43.8c0.1,0.2,0.2,0.4,0.4,0s0.1-0.5,0-0.4C9.8,43.4,9.4,43.6,9.5,43.8L9.5,43.8z"/>
		<path class="st0" d="M10.9,44c0.1-0.5,0-0.5-0.1-0.3c0,0-0.4,0.3-0.3,0.4C10.6,44.2,10.8,44.5,10.9,44L10.9,44z"/>
		<path class="st0" d="M11.9,44.7c0.3,0,0.2-0.4,0.1-0.7c-0.1-0.3-0.2-0.3-0.2-0.3s-0.2,0-0.2,0.3C11.6,44.4,11.6,44.7,11.9,44.7
			L11.9,44.7z"/>
		<path class="st0" d="M12.9,43.9c0,0-0.3,0.6,0.1,0.9c0.4,0.2,0.2-0.2,0.2-0.5C13.1,44,13,43.7,12.9,43.9L12.9,43.9z"/>
		<path class="st0" d="M14,43.8c0,0-0.2,0-0.1,0.3c0.1,0.3,0.2,0.6,0.5,0.6C14.7,44.5,14.2,43.9,14,43.8L14,43.8z"/>
		<path class="st0" d="M15.8,44.5c0.2-0.3-0.7-1-0.8-0.9c0,0-0.3,0.1,0,0.4C15.2,44.3,15.6,44.9,15.8,44.5L15.8,44.5z"/>
		<path class="st0" d="M16.8,44.4c0.2-0.1-0.3-0.6-0.3-0.6s-0.4-0.4-0.5-0.3c0,0-0.2,0.2,0.1,0.5C16.4,44.3,16.6,44.5,16.8,44.4
			L16.8,44.4z"/>
		<path class="st0" d="M11.1,45.3c0,0-0.5,0.8-0.2,0.9c0.3,0.1,0.4-0.5,0.4-0.8C11.2,45.1,11.1,45.3,11.1,45.3L11.1,45.3z"/>
		<path class="st0" d="M16.1,45.1c0,0,0.2,0.4,0.2,0.5c0,0.2,0.2,0.4,0.4,0.2c0.2-0.3,0.1-0.3-0.1-0.6C16.5,45,16,44.9,16.1,45.1
			L16.1,45.1z"/>
		<path class="st0" d="M4.7,14.2c0,0-0.6-0.1-0.8,0.5S3.8,15.5,4,15.5c0.1,0,0.2-0.6,0.3-0.5c0.2,0.1-0.2,0.6,0,0.6
			c0.2,0.1,0.3-0.6,0.5-0.5s-0.2,0.6,0.1,0.6C5.2,15.8,5.5,14.4,4.7,14.2L4.7,14.2z"/>
		<path class="st0" d="M6.3,14.7c0,0-0.5-0.1-0.7,0.5s0,0.8,0.1,0.7c0.1,0,0.2-0.6,0.3-0.5c0.1,0-0.1,0.5,0.1,0.6
			c0.2,0,0.2-0.5,0.4-0.5c0.2,0-0.1,0.5,0.1,0.6C6.8,16.1,7,14.9,6.3,14.7L6.3,14.7z"/>
		<path class="st0" d="M3.2,15C3.5,15.1,4,13.6,3,13.2c0,0-0.7-0.2-1,0.5s-0.1,1,0,1c0.2,0,0.3-0.7,0.5-0.6c0.2,0.1-0.3,0.7,0,0.7
			c0.3,0.1,0.4-0.7,0.6-0.6C3.3,14.4,2.9,14.9,3.2,15L3.2,15z"/>
		<path class="st0" d="M7.8,15.3c0,0-0.4-0.1-0.6,0.4c-0.2,0.5,0,0.7,0.1,0.6c0.1,0,0.1-0.5,0.3-0.4c0.1,0-0.1,0.4,0,0.5
			c0.2,0,0.2-0.5,0.4-0.4c0,0-0.2,0.4-0.1,0.5C8.1,16.5,8.4,15.4,7.8,15.3L7.8,15.3z"/>
		<path class="st0" d="M9.2,16.7c0.2,0,0.4-0.8-0.1-1c0,0-0.4-0.1-0.5,0.3s0,0.6,0,0.5c0.1,0,0.1-0.4,0.2-0.4c0.1,0-0.1,0.4,0,0.4
			s0.2-0.4,0.3-0.3C9.3,16.3,9,16.7,9.2,16.7L9.2,16.7z"/>
		<path class="st0" d="M10.5,17c0.2,0,0.3-0.9-0.3-0.9c0,0-0.4,0-0.4,0.4c-0.1,0.4,0,0.6,0.1,0.5c0.1,0,0.1-0.4,0.2-0.4
			c0.1,0-0.1,0.4,0.1,0.4c0.1,0,0.1-0.4,0.2-0.4S10.3,17,10.5,17L10.5,17z"/>
		<path class="st0" d="M2.3,16.2c-0.1,0.5-0.5,3.5-0.2,3.6s0.2-1.3,0.3-2C2.5,17.1,2.6,16,2.6,16S2.4,15.7,2.3,16.2L2.3,16.2z"/>
		<path class="st0" d="M4.2,16.8c-0.1,0.4-0.4,2.8-0.2,2.8s0.2-1,0.2-1.6c0-0.5,0.1-1.4,0.1-1.4S4.3,16.4,4.2,16.8L4.2,16.8z"/>
		<path class="st0" d="M5.7,17.2c0,0.3-0.2,2.2,0,2.2s0.1-0.8,0.2-1.3C5.9,17.7,6,17,6,17S5.8,16.9,5.7,17.2L5.7,17.2z"/>
		<path class="st0" d="M7.3,17.4c-0.1,0.2-0.3,1.7-0.1,1.7c0.2,0,0.1-0.6,0.2-1c0-0.3,0.1-0.8,0.1-0.8S7.4,17.2,7.3,17.4L7.3,17.4z"
			/>
		<path class="st0" d="M9,17.7c0,0-0.1-0.1-0.2,0.1c0,0.2-0.2,1.3,0,1.3s0.1-0.5,0.1-0.8C8.9,18.1,9,17.7,9,17.7L9,17.7z"/>
		<path class="st0" d="M10.2,17.9c0,0-0.1-0.1-0.2,0.1c0,0.2-0.2,1.1,0,1.1s0.1-0.4,0.1-0.6C10.1,18.2,10.2,17.9,10.2,17.9
			L10.2,17.9z"/>
		<path class="st0" d="M34.6,16.6v0.9c0,0,0.5,0,0.5-0.2c0-0.1,0.2,0.1,0.2,0.1S35.2,16.9,34.6,16.6L34.6,16.6z"/>
		<path class="st0" d="M35.4,19.2c-0.2,0-0.3,0.1-0.3-0.4s0.1-0.8-0.4-0.6v1.5c0,0,0.7,0.5,1,0c0,0,0.2-0.9-0.1-1.5
			c0,0-0.1-0.1-0.2,0.1C35.4,18.3,35.5,19.2,35.4,19.2L35.4,19.2z"/>
		<path class="st0" d="M34.7,20.3c0,0-0.1,1.1,0,1.1s0.4,0,0.4-0.7C35.1,20.1,34.8,20.1,34.7,20.3L34.7,20.3z"/>
		<path class="st0" d="M35.5,20.2c0,0-0.1,0-0.1,0.4c0,0.5-0.1,0.8,0,0.8s0.3-0.4,0.3-0.8C35.8,20.2,35.7,20.1,35.5,20.2L35.5,20.2z
			"/>
		<path class="st0" d="M34.8,22.4c0.3,0,0.6,0,0.7-0.4c0.1-0.4-0.4-0.3-0.8,0C34.7,22,34.5,22.4,34.8,22.4L34.8,22.4z"/>
		<path class="st0" d="M34.7,22.9v1.2c0.1-0.1,0.4-0.8,0.5-1.1C35.3,22.7,34.8,22.7,34.7,22.9L34.7,22.9z"/>
		<path class="st0" d="M34.5,30.9c0.2,0.7,0,0.7-0.1,0.7c-0.2,0-0.3-1-0.6-0.3c-0.1,0.4-0.4,1,0.1,0.9c0.5,0,1.7,0,1.3-0.9
			C34.8,30.4,34.3,30.2,34.5,30.9L34.5,30.9z"/>
		<path class="st0" d="M35.6,33.9c0,0,0.2-0.1,0.1-0.4c-0.1-0.3-0.8-0.1-0.8-0.1l-1.7,0.1c0,0-0.2,0.4-0.1,0.4
			C32.9,34,35.5,34,35.6,33.9L35.6,33.9z"/>
		<path class="st0" d="M34,35.4c0-0.7-0.1-1.3-0.7-1.2c0,0-0.7,0-0.8,0.5c0,0.5-0.1,1.2,0.1,1.2c0.2,0,0.1-0.9,0.2-0.9
			c0.2,0,0.2,0.4,0.2,0.6c0,0.2,0.3,0.4,0.3,0s-0.2-0.7,0-0.6c0.2,0.1,0.3,0.1,0.2,0.4C33.6,35.7,34,36.1,34,35.4L34,35.4z"/>
		<path class="st0" d="M34.7,34.9c0.2,0,0.2,0.3,0.2,0.5s0.3,0.3,0.3,0c0-0.4-0.2-0.6,0-0.6s0.2,0.1,0.2,0.4c0,0.3,0.3,0.7,0.3,0.1
			c0-0.6-0.1-1.2-0.6-1.2c0,0-0.7,0-0.7,0.4c0,0.5-0.1,1.1,0.1,1.1C34.7,35.7,34.6,34.9,34.7,34.9L34.7,34.9z"/>
		<path class="st0" d="M17,42.8c0.3,0,0.1-1.3-0.2-1.1c0,0-0.2,0.1-0.2,0.4C16.6,42.5,16.7,42.8,17,42.8L17,42.8z"/>
		<path class="st0" d="M18,42.7c-0.1-0.5-0.3-0.7-0.3-0.5c0,0-0.1,0.3,0,0.6C17.8,43.1,18.1,43.2,18,42.7L18,42.7z"/>
		<path class="st0" d="M19.1,42.8c0.1-0.1-0.3-0.9-0.5-0.6c0,0-0.2,0.1,0,0.4C18.9,42.9,19.1,42.9,19.1,42.8L19.1,42.8z"/>
		<path class="st0" d="M20.2,44.4c0-0.1-0.2-0.3-0.3-0.3c0,0-0.2,0.1,0,0.3C20.1,44.6,20.3,44.5,20.2,44.4L20.2,44.4z"/>
		<path class="st0" d="M21.2,44.4c0.3-0.1-0.2-0.6-0.5-0.6c0,0-0.2,0,0,0.3C20.8,44.4,20.9,44.5,21.2,44.4L21.2,44.4z"/>
		<path class="st0" d="M22.3,46c0.3,0.2,0.5,0.2,0.4-0.1c-0.2-0.3-0.3-0.5-0.4-0.4C22.3,45.5,22,45.7,22.3,46L22.3,46z"/>
		<path class="st0" d="M23.7,45.7c0.1-0.2-0.4-0.9-0.6-0.8c0,0-0.3,0,0,0.5C23.3,45.7,23.7,45.9,23.7,45.7L23.7,45.7z"/>
		<path class="st0" d="M24.5,45.4c0-0.2-0.4-0.9-0.4-0.7c0,0-0.1,0.5,0.1,0.7C24.3,45.7,24.5,45.7,24.5,45.4L24.5,45.4z"/>
		<path class="st0" d="M25.5,45.2c-0.1-0.3-0.3-0.7-0.4-0.6c0,0-0.2,0.1,0,0.5C25.2,45.3,25.5,45.4,25.5,45.2L25.5,45.2z"/>
		<path class="st0" d="M26.2,44.8c0.5,0-0.1-0.4-0.2-0.5c0-0.1-0.3-0.1-0.2,0C25.8,44.3,25.7,44.8,26.2,44.8L26.2,44.8z"/>
		<path class="st0" d="M26.2,46.4c0-0.2-0.2-0.3-0.3-0.3c0,0-0.3,0-0.1,0.2C26,46.6,26.2,46.5,26.2,46.4L26.2,46.4z"/>
		<path class="st0" d="M27,46.2c-0.2-0.5-0.3-0.7-0.5-0.6c0,0-0.1,0.2,0.1,0.5C26.8,46.5,27.2,46.7,27,46.2L27,46.2z"/>
		<path class="st0" d="M27.6,45.6c-0.1-0.4-0.7-1.3-0.7-0.9c0,0-0.1,0.3,0.1,0.6C27.3,45.6,27.7,46,27.6,45.6L27.6,45.6z"/>
		<path class="st0" d="M25.7,47.6c-0.1,0.2-0.2,0.6,0.1,0.5c0,0,0.5-0.3,0.4-0.4C26,47.5,25.8,47.5,25.7,47.6L25.7,47.6z"/>
		<path class="st0" d="M26.5,48.5c-0.2,0.1-0.5,0.3-0.3,0.4c0,0,0.1,0.3,0.5,0C27,48.7,26.8,48.5,26.5,48.5L26.5,48.5z"/>
		<path class="st0" d="M30.5,49c0,0-0.6,0.4-0.1,0.5c0.5,0,0.5-0.1,0.4-0.3C30.7,48.9,30.6,48.9,30.5,49L30.5,49z"/>
		<path class="st0" d="M33.5,49.4c-0.1,0-0.6,0.2-0.4,0.4c0,0,0.4,0.2,0.5-0.1C33.9,49.5,33.6,49.4,33.5,49.4L33.5,49.4z"/>
		<path class="st0" d="M34.7,48.5c-0.2,0.1-0.3,0.3,0,0.4c0,0,0.2,0,0.4-0.2C35.2,48.5,34.9,48.4,34.7,48.5L34.7,48.5z"/>
		<path class="st0" d="M32.7,48.3c0,0-0.5,0.6,0,0.6s0.2-0.4,0.2-0.4S32.8,48.2,32.7,48.3L32.7,48.3z"/>
		<path class="st0" d="M32.7,47.3c-0.2-0.2-0.3-0.1-0.5,0c0,0-0.3,0.5,0.1,0.5C32.7,47.9,32.9,47.5,32.7,47.3L32.7,47.3z"/>
		<path class="st0" d="M34.5,47.2c-0.1-0.2-0.1-0.3-0.3-0.2c0,0-0.4,0.3-0.1,0.4C34.3,47.5,34.5,47.4,34.5,47.2L34.5,47.2z"/>
		<path class="st0" d="M29.1,45.9c0,0-0.1,0.3,0.2,0.3c0.3,0,0.3-0.2,0.3-0.2C29.5,45.9,29.3,45.8,29.1,45.9L29.1,45.9z"/>
		<path class="st0" d="M29.6,44.2c0,0-0.1,0.4,0.2,0.4c0.3,0.1,0.2-0.2,0.2-0.3C29.9,44.3,29.5,44,29.6,44.2L29.6,44.2z"/>
		<path class="st0" d="M31.1,44.9c0,0-0.3,0.3-0.1,0.3C31.1,45.3,31.5,45,31.1,44.9L31.1,44.9z"/>
		<path class="st0" d="M32.2,44.1c0.3,0,0.4-0.3,0.1-0.3C32.2,43.8,31.9,44.1,32.2,44.1L32.2,44.1z"/>
		<path class="st0" d="M30.8,44c0,0-0.3,0-0.1,0.2c0.2,0.2,0.3,0.2,0.3,0C31.1,44,31,44,30.8,44L30.8,44z"/>
		<path class="st0" d="M31.4,42.8c0,0-0.1,0.2,0.1,0.4c0.2,0.1,0.2,0,0.2-0.1C31.7,42.9,31.4,42.7,31.4,42.8L31.4,42.8z"/>
		<path class="st0" d="M31,42.3c0,0,0.2,0.1,0.3-0.1C31.4,42.2,31,42.1,31,42.3L31,42.3z"/>
		<path class="st0" d="M33.8,40.9c0.2-0.1-0.2-0.3-0.3-0.1C33.5,40.8,33.6,41.1,33.8,40.9L33.8,40.9z"/>
		<path class="st0" d="M42.7,48.5c0.4-0.1,0.6-0.7,0-0.6c0,0-0.3,0.3-0.3,0.4C42.4,48.4,42.4,48.6,42.7,48.5L42.7,48.5z"/>
		<path class="st0" d="M40.4,47.6c0,0-0.1,0.4,0,0.3c0.2,0,0.5-0.1,0.3-0.3C40.5,47.4,40.5,47.5,40.4,47.6L40.4,47.6z"/>
		<path class="st0" d="M39.3,47.1c0,0-0.3,0.1-0.3,0.2c0,0.1,0,0.4,0.3,0.2S39.8,46.9,39.3,47.1L39.3,47.1z"/>
		<path class="st0" d="M38.1,46.7c0,0-0.4,0.1-0.3,0.2c0.1,0.2,0.4,0.4,0.5,0.1C38.4,46.8,38.3,46.5,38.1,46.7L38.1,46.7z"/>
		<path class="st0" d="M40.8,46.2c0,0-0.3,0.1-0.2,0.2c0.1,0.1,0.2,0.2,0.4,0.1C41,46.3,41,46,40.8,46.2L40.8,46.2z"/>
		<path class="st0" d="M41.7,47.4c0.2-0.1,0.6-0.6,0.1-0.6c0,0-0.2,0.1-0.3,0.3C41.4,47.3,41.5,47.4,41.7,47.4L41.7,47.4z"/>
		<path class="st0" d="M36.1,42.6c0,0,0,0.4,0.3,0.3c0.3-0.1,0.1-0.3,0.1-0.3S36.1,42.3,36.1,42.6L36.1,42.6z"/>
		<path class="st0" d="M36.1,44.3c-0.2-0.1-0.2-0.2-0.3-0.1c0,0-0.2,0.4,0,0.4C36,44.7,36.3,44.4,36.1,44.3L36.1,44.3z"/>
		<path class="st0" d="M37.2,43.2c0-0.2-0.8,0.2-0.5,0.3c0,0,0.3,0.1,0.4,0.1C37.2,43.6,37.1,43.4,37.2,43.2L37.2,43.2z"/>
		<path class="st0" d="M37.9,41.6c0.2,0,0.2-0.2,0.1-0.3c-0.1-0.1-0.4-0.1-0.4,0.1C37.7,41.4,37.7,41.6,37.9,41.6L37.9,41.6z"/>
		<path class="st0" d="M38,42.3c0.5,0.3,0.3-0.5,0.1-0.4C38.1,41.9,37.8,42.2,38,42.3L38,42.3z"/>
		<path class="st0" d="M38.8,41.7c0.5,0,0.2-0.5,0-0.4c0,0-0.2,0.2-0.3,0.2C38.5,41.6,38.4,41.7,38.8,41.7L38.8,41.7z"/>
		<path class="st0" d="M38.2,43.1c0,0.1,0.1,0.2,0.3,0.1c0.2-0.1,0.2-0.3-0.1-0.3C38.5,43,38.2,43,38.2,43.1L38.2,43.1z"/>
		<path class="st0" d="M39.4,42.8c0.1,0,0.1-0.3,0.1-0.4c0-0.2-0.1-0.2-0.3-0.1c0,0-0.1,0-0.1,0.2C39.1,42.7,39.2,42.9,39.4,42.8
			L39.4,42.8z"/>
		<path class="st0" d="M43.7,40.2c0.2-0.2,0.3-0.4,0-0.5c0,0-0.2,0-0.2,0.2C43.4,40.2,43.5,40.4,43.7,40.2L43.7,40.2z"/>
		<path class="st0" d="M44.2,40.4c0,0,0.2,0.1,0.4,0.1c0.1,0,0.1-0.3,0-0.3C44.4,40.1,44,40.4,44.2,40.4L44.2,40.4z"/>
		<path class="st0" d="M45,39.5c0.4,0.1,0.4-0.4,0.3-0.4C45.3,39.1,44.7,39.4,45,39.5L45,39.5z"/>
		<path class="st0" d="M44.3,39.4c0.2,0,0.3-0.1,0.2-0.2c-0.1-0.1-0.3-0.3-0.3-0.2C44.2,39,44.1,39.4,44.3,39.4L44.3,39.4z"/>
		<path class="st0" d="M42.9,15c0-0.4-0.1-0.5-0.2-0.4c0,0-0.1,1.1,0,1.1C42.8,15.7,42.9,15.4,42.9,15L42.9,15z"/>
		<path class="st0" d="M37.5,17.5c-0.2,0-0.3-0.3-0.3-0.5s-0.2-0.4-0.3-0.1c0,0,0,0.9,0.5,0.9c0.6,0,0.7-0.3,0.5-1.1
			c0,0-0.1-0.2-0.3-0.1C37.4,16.8,37.7,17.5,37.5,17.5L37.5,17.5z"/>
		<path class="st0" d="M38.2,16.5c0,0-0.1,1,0.3,1c0.6,0,0.7-0.3,0.6-1.1c0,0-0.1-0.2-0.3-0.1s0,0.9-0.2,0.9s-0.2-0.4-0.2-0.6
			C38.5,16.3,38.3,16.2,38.2,16.5L38.2,16.5z"/>
		<path class="st0" d="M39.5,16.2c0,0-0.1,1.1,0.3,1.1c0.5,0,0.7-0.3,0.6-1.1c0,0-0.1-0.2-0.3-0.1s0,0.9-0.2,0.9s-0.2-0.4-0.2-0.6
			C39.8,16,39.6,15.9,39.5,16.2L39.5,16.2z"/>
		<path class="st0" d="M40.7,15.6v0.9c0,0-0.1,0.6,0.6,0.6c0.6,0,0.5-0.8,0.5-1.2c0-0.4,0-0.9-0.2-0.9s-0.2,0.2-0.2,0.6
			s0.1,0.8-0.1,0.8c-0.2,0-0.2-0.3-0.2-0.7C41.1,15.4,40.8,15.1,40.7,15.6L40.7,15.6z"/>
		<path class="st0" d="M42.5,14.7c0,0-0.4-0.3-0.4,0.2s-0.1,2,0.7,2c0.9,0,0.7-1.1,0.7-1.8s0.1-1.4-0.1-1.2
			c-0.3,0.2-0.3,0.4-0.3,0.9s0.1,1.3-0.1,1.4c-0.3,0-0.4,0-0.4-0.8C42.6,14.8,42.5,14.7,42.5,14.7L42.5,14.7z"/>
		<path class="st0" d="M44.4,15.2c0-0.8,0-1.4-0.2-1.4c0,0-0.3,0-0.3,0.4s-0.2,2,0.4,2.3c0.6,0.2,1.3,0.1,1.3-0.5s0-2,0-2.3
			c0-0.4-0.4-0.5-0.4,0c-0.1,0.5,0.2,2.5-0.2,2.4C44.5,16,44.5,16,44.4,15.2L44.4,15.2z"/>
		<path class="st0" d="M44.7,13.9c0,0-0.2,1.5,0.1,1.5c0.2,0.1,0.1-1,0.1-1.3C44.9,13.8,44.8,13.7,44.7,13.9L44.7,13.9z"/>
		<path class="st0" d="M42.7,36.8c0.4,0,1.5-2.5,1.7-4.1c0.3-1.6,0.4-2,0.7-2.7s0.7-3.7,0.7-5.2s0.1-2.9,0-3.1s-0.2-0.3-0.4-0.1
			c-0.2,0.2-0.6,0.1-0.5,0.8c0,0.7,0.1,4.9-0.1,5.5c-0.2,0.7-0.5,1.7-0.6,2.4c-0.2,0.7-0.4,1.5-0.3,0c0.2-1.4,0.4-1.5,0.5-2.3
			c0-0.9,0.2-1.9,0.2-3.1s0.1-2.8,0.1-2.8S44.1,21.3,44,22c0,0.8,0.1,4.7,0,5.2s-0.2,1.3-0.2,1.8c0.1,0.5-0.2,0.7-0.2,1.6
			s-0.3,4.1-0.7,5C42.4,36.4,42.3,36.8,42.7,36.8L42.7,36.8z"/>
		<path class="st0" d="M42.1,32.9c0.3-0.2,1.3-2.7,1.4-6.6c0.1-3.9,0.2-4.3,0-4.6S43,21.3,43,22.1c0.1,0.8-0.1,6.4-0.4,6.4
			c-0.2,0.2,0.2-4.8,0.1-6.7l0,0c0,0-0.3-0.9-0.4-0.2c0,0.7,0,3.7-0.1,4c-0.1,0.2-0.4,1.5-0.3,2.5C42,29,42.1,31.4,42,32
			C41.8,32.6,41.8,33.1,42.1,32.9L42.1,32.9z"/>
		<path class="st0" d="M41.8,24.2c0.1-0.8,0.3-2.5,0.2-2.9c0,0-0.5-0.1-0.5,0.4c0,0.3,0,1.6-0.1,2s-0.1,2.4-0.3,2.3
			c-0.3,0-0.1-0.9,0-1.8c0.1-0.8,0.4-1.6,0.2-2.8c0,0-0.4-0.4-0.4,0s0,1.4-0.1,1.5c-0.1,0.2-0.2,0.7-0.2,1.3c0,0.6,0.1,1.6-0.1,2
			c-0.2,0.4-0.1,0.9-0.2,1.4c-0.1,0.5-0.2,1.6-0.6,2.4c-0.4,0.7,0.5,0.9,1.4-1.8C41.9,25.5,41.7,25,41.8,24.2L41.8,24.2z"/>
		<path class="st0" d="M39.3,21.5c0,0.4,0,3.1-0.2,3.6s-0.3,1.4-0.4,1.7c-0.1,0.3-0.6,1.5-0.8,1.8c-0.2,0.4-0.2,0.8,0.2,0.5
			s1.7-2,1.9-3.5s0.4-2.4,0.5-2.8s0.2-1.5,0.1-1.6c-0.1-0.1-0.4-0.2-0.4,0.2c0,0.4-0.1,1.8-0.3,2.5s-0.2,0.9-0.3,0.1
			c0-0.8,0.2-2.5,0-2.9C39.6,21.1,39.3,21,39.3,21.5L39.3,21.5z"/>
		<path class="st0" d="M37.9,21c0,0,0,0.4,0,1.6c0,1.5-0.8,2.9-1.2,3.9c-0.4,0.9,0.2,0.7,0.5,0.4c0.3-0.3,1-1.4,1.3-2.1
			c0.3-0.6,0.6-3.7,0.6-3.7c0-0.1-0.3-0.2-0.4,0c-0.1,0.2-0.2,0.2-0.3,0C38.2,20.9,37.9,21,37.9,21L37.9,21z"/>
		<path class="st0" d="M37.3,23.9c0.2-0.5,0.2-2.8,0.2-2.8c0-0.4-0.2-0.6-0.2,0s-0.2,0.4-0.3-0.2c-0.1-0.5-0.3,1.1-0.2,1.6
			s-0.5,2-0.7,3C36,26.5,37.2,24.4,37.3,23.9L37.3,23.9z"/>
		<path class="st0" d="M37.6,18.5c-0.1,0.7,0,1-0.2,0.9s0-1.2-0.2-1.2C37,18.2,37,18.7,37,19s-0.1,1.2,0.4,1.2
			c0.8,0,0.6-1.4,0.6-1.7C37.9,18.2,37.7,17.8,37.6,18.5L37.6,18.5z"/>
		<path class="st0" d="M39.1,18c-0.2,0-0.3,0-0.3,0.5c0,0.4,0.1,0.8-0.1,0.8c-0.2,0-0.1-0.5-0.1-0.9S38.5,18,38.5,18s-0.2,0-0.2,0.3
			c0,0.4-0.1,1.7,0.3,1.7c0.4,0,0.6-0.3,0.7-1.2C39.3,18,39.3,18,39.1,18L39.1,18z"/>
		<path class="st0" d="M40,20.4c0.7,0.1,0.6-1.2,0.6-1.5s0.1-1-0.1-1c-0.2,0-0.2,0.2-0.2,0.5s0,1.1-0.2,1.2c-0.2,0-0.3-0.4-0.2-1
			s0.1-0.7,0-0.7c0,0-0.3,0-0.3,0.5C39.5,18.8,39.2,20.3,40,20.4L40,20.4z"/>
		<path class="st0" d="M41.9,17.7c-0.2,0-0.3,0-0.3,0.4s0.1,1.7-0.2,1.7c-0.2,0-0.3-0.4-0.3-1c0-0.7,0.2-1,0.1-1.1
			c0,0-0.3-0.2-0.4,0.4c0,0.6-0.1,2.3,0.4,2.4s0.8-0.6,0.8-1.3C41.9,18.5,42.1,17.8,41.9,17.7L41.9,17.7z"/>
		<path class="st0" d="M42.6,17.6c0,0-0.3,0-0.3,0.5s0,1.5,0,1.9c0,0.5,0,0.9,0.5,0.9c0.4,0,0.8-0.7,0.8-1.4c0-0.8,0.2-2-0.1-2
			c-0.3-0.1-0.2,0.2-0.2,0.5s0,2.2-0.3,2.1s-0.4-0.9-0.3-1.7C42.8,17.4,42.6,17.6,42.6,17.6L42.6,17.6z"/>
		<path class="st0" d="M43,17.9c0,0-0.1-0.1-0.1,0.4s-0.1,1.3,0.1,1.3c0.2,0,0.1-0.4,0.1-0.9C43.1,18.3,43.1,17.9,43,17.9L43,17.9z"
			/>
		<path class="st0" d="M45.7,17.2c-0.3,0-0.4-0.1-0.4,0.5c0,0.5,0,2.2,0,2.2s0,0.6-0.4,0.6s-0.4-0.3-0.4-0.9s0.2-2.2-0.2-2.2
			c0,0-0.3,0-0.3,0.5s0,2.1,0,2.4s0.1,0.9,0.9,1c0.7,0.1,1-1,1-2C45.8,18.3,46,17.2,45.7,17.2L45.7,17.2z"/>
		<path class="st0" d="M44.9,17.8c0,0-0.2-0.1-0.2,0.4s-0.1,1.9,0.1,1.9c0.2,0,0.2-0.1,0.2-0.5C44.9,18.4,45.1,17.8,44.9,17.8
			L44.9,17.8z"/>
		<path class="st0" d="M36.6,4.5l0.2-1.7c0-0.2,0-0.4-0.3-0.5l-0.4-0.1l-0.4,2.5l0.4,0.1C36.5,4.9,36.6,4.8,36.6,4.5L36.6,4.5z
			 M36,4.7l0.1-0.9h0.2V3.6h-0.2l0.1-1h0.1c0.2,0,0.2,0.1,0.2,0.2l-0.2,1.7C36.3,4.6,36.2,4.7,36,4.7L36,4.7L36,4.7z"/>
		<path class="st0" d="M16.7,17.1c0,0-0.3,0-0.3-0.3c0-0.1,0-0.2,0-0.3h0.7c0.3,0,0.5-0.2,0.5-0.5c0-0.3-0.2-0.5-0.5-0.5h-0.7h-0.3
			h-0.3v0.2c0,0,0.2,0,0.2,0.2c0,0.2,0,1,0,1s0,0.2-0.2,0.2v0.2h0.9L16.7,17.1L16.7,17.1z M16.8,15.7c0.1,0,0.2,0.1,0.2,0.2
			c0,0.1-0.1,0.2-0.2,0.2h-0.5c0-0.2,0-0.4,0-0.5L16.8,15.7L16.8,15.7z"/>
		<path class="st0" d="M14.1,27.7c0.2,0,1,0,1,0s0.2,0,0.2,0.2h0.2V27h-0.2c0,0,0,0.3-0.3,0.3c-0.1,0-0.2,0-0.3,0v-0.7
			c0-0.3-0.2-0.5-0.5-0.5s-0.5,0.2-0.5,0.5v0.7v0.3v0.3h0.2C13.9,27.9,13.8,27.7,14.1,27.7L14.1,27.7z M13.8,26.8
			c0-0.1,0.1-0.2,0.2-0.2c0.1,0,0.2,0.1,0.2,0.2v0.4c-0.2,0-0.4,0-0.5,0L13.8,26.8L13.8,26.8z"/>
		<path class="st0" d="M30.7,35.2c0,0-0.1,0.2-0.3,0.1c-0.2-0.1-0.8-0.6-0.8-0.6s-0.1-0.1,0-0.3l-0.2-0.1l-0.6,0.9l0,0l-0.2,0.3
			c-0.2,0.2-0.2,0.6,0.1,0.7c0.1,0.1,0.3,0.1,0.5,0c0,0.1,0.1,0.3,0.2,0.3c0.2,0.2,0.5,0.1,0.7-0.1l0.4-0.5l0.1-0.1l0.1-0.2l0.2-0.3
			L30.7,35.2L30.7,35.2z M29.1,35.8c-0.1-0.1-0.1-0.3,0-0.4l0.3-0.4c0.1,0,0.1,0,0.2,0.1s0.2,0.1,0.3,0.2l-0.3,0.4
			C29.3,35.9,29.2,35.9,29.1,35.8L29.1,35.8z M30.1,36.1c-0.1,0.1-0.2,0.1-0.3,0c-0.1-0.1-0.1-0.2,0-0.3l0.2-0.4
			c0.2,0.1,0.3,0.2,0.4,0.3L30.1,36.1L30.1,36.1z"/>
		<path class="st0" d="M19.1,15.5c-0.5,0-1,0.4-1,0.9s0.4,0.9,1,0.9c0.5,0,1-0.4,1-0.9C20,15.9,19.6,15.5,19.1,15.5L19.1,15.5z
			 M19.1,17.1c-0.2,0-0.4-0.3-0.4-0.6c0-0.3,0.2-0.6,0.4-0.6c0.2,0,0.4,0.3,0.4,0.6C19.4,16.8,19.2,17.1,19.1,17.1L19.1,17.1z"/>
		<path class="st0" d="M21.7,17.1c0,0-0.3,0-0.3-0.3c0-0.1,0-0.2,0-0.3h0.3l0.5,0.8c0,0,0.3,0.1,0.6-0.2L22.6,17c0,0-0.2,0.1-0.3,0
			c-0.1-0.1-0.2-0.3-0.3-0.4c0.3,0,0.5-0.2,0.5-0.5c0-0.3-0.2-0.5-0.5-0.5h-0.7H21h-0.3v0.2c0,0,0.2,0,0.2,0.2c0,0.2,0,1,0,1
			s0,0.2-0.2,0.2v0.2h1L21.7,17.1L21.7,17.1z M21.8,15.7c0.1,0,0.2,0.1,0.2,0.2c0,0.1-0.1,0.2-0.2,0.2h-0.4c0-0.2,0-0.4,0-0.5
			L21.8,15.7L21.8,15.7z"/>
		<path class="st0" d="M14,24.3c0.2,0,1,0,1,0s0.2,0,0.2,0.2h0.2v-0.9h-0.2c0,0,0,0.3-0.3,0.3c-0.1,0-0.2,0-0.3,0v-0.3l0.8-0.5
			c0,0,0.1-0.3-0.2-0.6L15,22.6c0,0,0.2,0.2,0,0.3c-0.1,0.1-0.3,0.2-0.4,0.3c0-0.3-0.2-0.5-0.5-0.5s-0.5,0.2-0.5,0.5v0.7v0.3v0.3
			h0.2C13.9,24.5,13.8,24.3,14,24.3L14,24.3z M13.8,23.5c0-0.1,0.1-0.2,0.2-0.2c0.1,0,0.2,0.1,0.2,0.2v0.4c-0.2,0-0.4,0-0.5,0
			L13.8,23.5L13.8,23.5z"/>
		<path class="st0" d="M23.1,39.3c0,0,0.3,0.1,0.2,0.4c0,0.1-0.1,0.2-0.1,0.3L23,39.9L22.7,39c0,0-0.3-0.1-0.6,0.1v0.1
			c0,0,0.2-0.1,0.3,0.1c0,0.1,0.1,0.4,0.1,0.5c-0.3-0.1-0.5,0.1-0.6,0.3c-0.1,0.3,0.1,0.5,0.4,0.6l0.9,0.2l0.3,0.1l0.1-0.2
			c0,0-0.2,0-0.1-0.2s0.3-0.9,0.3-0.9s0.1-0.2,0.3-0.1v-0.2l-0.9-0.3L23.1,39.3L23.1,39.3z M22.5,40.3c0-0.1,0.2-0.2,0.3-0.2
			l0.4,0.1c0,0.2-0.1,0.3-0.1,0.5l-0.4-0.1C22.5,40.6,22.5,40.4,22.5,40.3L22.5,40.3z"/>
		<path class="st0" d="M33.3,17.6c0,0,0,0.2-0.2,0.2s-1,0-1,0s-0.2,0-0.2-0.2h-0.2v0.9h0.2c0,0,0-0.3,0.3-0.3c0.1,0,0.2,0,0.3,0v0.3
			L31.8,19c0,0-0.1,0.3,0.2,0.6l0.1-0.1c0,0-0.1-0.2,0-0.3c0.1-0.1,0.3-0.2,0.4-0.3c0,0.3,0.2,0.5,0.5,0.5s0.5-0.2,0.5-0.5v-0.7V18
			v-0.3L33.3,17.6L33.3,17.6z M33.4,18.7c0,0.1-0.1,0.2-0.2,0.2c-0.1,0-0.2-0.1-0.2-0.2v-0.5c0.2,0,0.4,0,0.5,0L33.4,18.7L33.4,18.7
			z"/>
		<polygon class="st0" points="26.3,17.1 26.1,17.1 26.7,16.2 27.7,17.3 28.5,16.4 29,17.1 28.7,17.1 28.7,17.3 29.9,17.3 
			29.9,17.1 29.7,17.1 28.9,15.9 28.9,15.9 28.9,15.6 28.5,15.6 28.5,15.8 27.9,16.5 27.1,15.6 26.3,15.6 26.3,15.9 26.5,15.9 
			26.5,15.9 25.6,17.1 25.5,17.1 25.5,17.3 26.3,17.3 		"/>
		<polygon class="st0" points="31.4,17 31.3,17 31.3,15.8 31.4,15.8 31.4,15.6 30.6,15.6 30.6,15.8 30.7,15.8 30.7,17 30.6,17 
			30.6,17.3 31.4,17.3 		"/>
		<polygon class="st0" points="13.9,22.1 15.1,22.1 15.1,22.2 15.3,22.2 15.3,21.4 15.1,21.4 15.1,21.5 13.9,21.5 13.9,21.4 
			13.6,21.4 13.6,22.2 13.9,22.2 		"/>
		<polygon class="st0" points="13.9,18.8 15.4,17.9 13.9,16.7 13.9,16.4 13.6,16.4 13.6,17.2 13.9,17.2 13.9,17 14.7,17.6 
			13.9,18.2 13.9,18.1 13.6,18.1 13.6,19 13.9,19 		"/>
		<polygon class="st0" points="13.8,21 14.1,21 14.1,20.8 14,20.8 14,20.4 15.1,20.4 15.1,20.7 15.3,20.7 15.3,19.5 15.1,19.5 
			15.1,19.8 14,19.8 14,19.4 14.1,19.4 14.1,19.2 14,19.2 14,19.2 13.6,19.2 13.6,21 		"/>
		<polygon class="st0" points="13.9,25.7 15.1,25.7 15.1,25.9 15.3,25.9 15.3,25.1 15.1,25.1 15.1,25.2 13.9,25.2 13.9,25.1 
			13.6,25.1 13.6,25.9 13.9,25.9 		"/>
		<path class="st0" d="M28.9,37.3c0,0-0.1,0-0.1-0.1l-0.7-0.8c0,0,0,0,0-0.1l0.1-0.1L28.1,36l-1.3,1.2l0.2,0.4l0.2-0.1
			c0-0.1,0-0.3,0-0.3v-0.1l0.5-0.5l0.8,0.8l0.1,0.1c0,0-0.2,0.2-0.3,0.3l0.2,0.2l0.8-0.8L29.1,37C29,37.3,29,37.3,28.9,37.3
			L28.9,37.3z"/>
		<path class="st0" d="M16.9,35.3l0.9-0.6h0.1c0,0,0.1,0.1,0.1,0.2l0.2-0.1l-0.9-1.5l-0.5,0.1l0.1,0.2c0.1,0,0.3,0,0.3,0
			s0.1,0,0.1,0.1l0.4,0.6l-0.9,0.6L16.7,35c0,0-0.2-0.2-0.2-0.3l-0.2,0.1l0.6,0.9l0.2-0.1C16.8,35.5,16.8,35.4,16.9,35.3
			C16.8,35.4,16.9,35.3,16.9,35.3L16.9,35.3z"/>
		<path class="st0" d="M17.8,35.2l0.2,0.2c0.1,0,0.1-0.1,0.1-0.1h0.1l0.1,0.1l0.3,0.4l-0.4,0.3l-0.4-0.5l-0.2,0.1l0.4,0.5l-0.4,0.3
			l-0.3-0.4l0,0c0,0,0,0,0-0.1l0,0l0.1-0.1l-0.2-0.2L17,36.2l1,1.2l0.2-0.1l-0.1-0.1c0,0,0,0,0-0.1c0,0,0,0,0-0.1l0.9-0.7h0.1
			l0.1,0.1l0.2-0.1l-1-1.2L17.8,35.2L17.8,35.2z"/>
		<path class="st0" d="M15,31.8l1.1-0.4h0.1c0,0,0,0.1,0.1,0.2l0.2-0.1L16,30h-0.5l0.1,0.2c0.1,0,0.1,0,0.2,0h0.1
			c0,0,0.1,0.1,0.1,0.2l0,0.6l-0.5,0.2l-0.2-0.6H15l0.2,0.6l-0.4,0.1l-0.2-0.5l0,0l0,0c0,0,0,0,0.1,0l0.1-0.1l-0.1-0.2l-0.4,0.3
			l0.5,1.4l0.2-0.1c0-0.1,0-0.1,0-0.1C15,31.9,15,31.9,15,31.8C15,31.9,15,31.8,15,31.8L15,31.8z"/>
		<path class="st0" d="M14.5,30c0.2,0,0.3-0.2,0.4-0.6c0-0.1,0-0.2,0.1-0.3c0-0.2,0.1-0.3,0.1-0.3l0.1-0.1c0,0,0.1,0,0.1,0.1
			s0,0.1,0.1,0.2c0,0.1,0,0.3,0,0.4c-0.1,0.1-0.2,0.2-0.3,0.2l0.1,0.3c0.2-0.1,0.3-0.2,0.5-0.2c0.1-0.3,0.1-0.4,0.1-0.7
			c0-0.4-0.1-0.5-0.3-0.7c-0.1-0.2-0.2-0.2-0.4-0.2c-0.1,0-0.2,0.1-0.3,0.2s-0.1,0.3-0.1,0.5c0,0,0,0.1-0.1,0.3
			c0,0.2-0.1,0.3-0.1,0.3s0,0.1-0.1,0.1s-0.2-0.1-0.2-0.2s0-0.6,0-0.6c0-0.1,0.2-0.1,0.3-0.2l-0.1-0.3c-0.2,0.1-0.3,0.1-0.5,0.2
			c0,0.3-0.1,0.4,0,0.7c0,0.3,0.1,0.5,0.2,0.7C14.2,29.9,14.3,30,14.5,30L14.5,30z"/>
		<path class="st0" d="M33.1,22.9C33.2,22.9,33.1,22.9,33.1,22.9c0.1,0.1,0.1,0.1,0.1,0.1v0.1v0.6L32,22.6c0,0-0.2-0.2-0.2,0.1
			c0,0.4,0,1.7,0,1.7l0.5,0.1v-0.3c-0.1,0-0.1-0.1-0.1-0.1V24v-0.5l1.2,1c0,0,0.2,0.1,0.2-0.2c0-0.3,0-1.7,0-1.7l-0.5-0.1L33.1,22.9
			L33.1,22.9z"/>
		<path class="st0" d="M32.1,19.9c0,0,0-0.1,0-0.2h-0.3v0.7h0.3c0-0.1,0-0.1,0-0.1l0,0l0.3,0.1v0.8c-0.2,0.1-0.3,0.2-0.3,0.2v-0.3
			h-0.3v1.1h0.3c0-0.1,0-0.1,0-0.2c0,0,0,0,0.1-0.1l1.3-0.8v-0.5L32.1,19.9L32.1,19.9L32.1,19.9z M32.7,20.6l0.4,0.2L32.7,21V20.6
			L32.7,20.6z"/>
		<path class="st0" d="M32.1,25c0,0,0-0.1,0-0.2h-0.3v0.7h0.3c0-0.1,0-0.1,0-0.1l0,0l0.3,0.1v0.8c-0.2,0.1-0.3,0.2-0.3,0.2v-0.3
			h-0.3v1.1h0.3c0-0.1,0-0.1,0-0.2c0,0,0,0,0.1-0.1l1.3-0.8v-0.5L32.1,25C32.1,25.1,32.1,25,32.1,25L32.1,25z M32.6,25.8L33,26
			l-0.4,0.2V25.8L32.6,25.8z"/>
		<path class="st0" d="M26.6,37.9l-0.2-0.3L25.8,38l0.2,0.3c0.1,0,0.1-0.1,0.1-0.1l0,0v0.3L25.6,39c-0.3-0.1-0.3-0.2-0.3-0.2
			s0.2-0.1,0.2-0.2l-0.1-0.3l-1,0.6l0.2,0.3c0.1-0.1,0.1-0.1,0.1-0.1h0.1l1.4,0.7l0.4-0.3L26.6,37.9C26.5,37.9,26.5,37.9,26.6,37.9
			C26.5,38,26.6,38,26.6,37.9L26.6,37.9z M25.8,39.1l0.3-0.2v0.4L25.8,39.1L25.8,39.1z"/>
		<path class="st0" d="M21.6,38.2l-0.2,0.2c0.1,0.1,0.1,0.1,0.1,0.1l0,0l-0.3,0.1l-0.6-0.4c0-0.3,0-0.3,0-0.3l0.2,0.2l0.2-0.2
			l-0.9-0.7L20,37.5c0.1,0,0.1,0.1,0.1,0.1s0,0,0,0.1L20,39.2l0.4,0.3l1.4-0.7c0,0,0,0,0.1,0c0,0,0.1,0,0.1,0.1l0.2-0.2L21.6,38.2
			L21.6,38.2z M20.5,39v-0.4l0.3,0.2L20.5,39L20.5,39z"/>
		<path class="st0" d="M31,32c0,0,0-0.1,0.1-0.1l-0.3-0.1l-0.3,0.6l0.3,0.1c0-0.1,0-0.1,0.1-0.1l0,0l0.2,0.2l-0.3,0.7
			c-0.3,0-0.3,0-0.3,0l0.1-0.3h-0.4l-0.5,1l0.3,0.1c0-0.1,0.1-0.1,0.1-0.1s0,0,0.1,0l1.6-0.2l0.2-0.5L31,32C31,32.1,30.9,32,31,32
			L31,32z M31.4,33.2H31l0.2-0.4L31.4,33.2L31.4,33.2z"/>
		<path class="st0" d="M32.9,29.6L32.9,29.6c0,0.1-0.1,0.1-0.2,0l-1-0.3h-0.1c0,0,0-0.1,0-0.2L31.4,29l-0.2,0.9l0.2,0.1
			c0-0.1,0-0.1,0-0.1l0,0c0,0,0,0,0.1,0L32,30l-0.2,0.8l-0.4-0.1h-0.1v-0.1l-0.2-0.1L31,31.2h0.2c0-0.1,0-0.1,0-0.1V31
			c0,0,0,0,0.1,0l1,0.3c0,0,0.1,0,0.1,0.1c0,0,0,0.1,0,0.2l0.2,0.1l0.2-0.9l-0.2-0.1c0,0.1,0,0.1,0,0.1l0,0h-0.1l-0.3-0.1l0.2-0.8
			l0.3,0.1c0,0,0.1,0,0.1,0.1v0.1l0.2,0.1l0.2-0.9L33,29.5C32.9,29.5,32.9,29.6,32.9,29.6L32.9,29.6z"/>
	</g>
	<g>
		<path class="st0" d="M11.4,60.9c0,1.2-0.4,2.1-1.1,2.7c-0.7,0.6-1.8,0.9-3.2,0.9s-2.4-0.3-3.2-0.9c-0.7-0.6-1.1-1.5-1.1-2.7v-6.1
			h2.5v5.9c0,0.7,0.1,1.1,0.4,1.5C6,62.5,6.4,62.7,7,62.7s1.1-0.2,1.3-0.5c0.3-0.3,0.4-0.8,0.4-1.5v-5.9h2.5L11.4,60.9z"/>
		<path class="st0" d="M22.4,64.3H20l-4-6.5v6.5h-2.2v-9.5h2.9l3.5,5.4v-5.4h2.2L22.4,64.3z"/>
		<path class="st0" d="M33.6,64.2h-2.5l-0.7-1.9h-3.5l-0.7,1.9h-2.5l3.5-9.5H30L33.6,64.2z M29.9,60.6l-1.2-3.4l-1.2,3.4H29.9z"/>
		<path class="st0" d="M45,64.2h-2.4v-6.4L40.8,62h-1.7l-1.8-4.1v6.4H35v-9.5h2.8l2.1,4.8l2.1-4.8h2.8L45,64.2z"/>
	</g>
</g>
</svg>
